<?xml version="1.0" standalone="no"?>
<!DOCTYPE svg PUBLIC "-//W3C//DTD SVG 1.1//EN" "http://www.w3.org/Graphics/SVG/1.1/DTD/svg11.dtd" >
<svg xmlns="http://www.w3.org/2000/svg" xmlns:xlink="http://www.w3.org/1999/xlink" version="1.1">
<metadata>
Created by FontForge 20170924 at Wed Jun  2 04:34:40 2021
 By www-data
FactoryType
</metadata>
<defs>
<font id="EdensorFree" horiz-adv-x="538" >
  <font-face 
    font-family="Edensor Free"
    font-weight="400"
    font-stretch="normal"
    units-per-em="1000"
    panose-1="0 0 0 0 0 0 0 0 0 0"
    ascent="800"
    descent="-200"
    x-height="449.725"
    cap-height="701.201"
    bbox="-160.003 -267.186 1103.59 963.612"
    underline-thickness="50"
    underline-position="-100"
    unicode-range="U+000A-2265"
  />
<missing-glyph horiz-adv-x="527" 
d="M50 700h427v-700h-427v700zM78 680l185 -309l186 309h-371zM251 350l-180 300v-601zM264 329l-185 -308h370zM276 350l181 -303v605z" />
    <glyph glyph-name=".notdef" horiz-adv-x="527" 
d="M50 700h427v-700h-427v700zM78 680l185 -309l186 309h-371zM251 350l-180 300v-601zM264 329l-185 -308h370zM276 350l181 -303v605z" />
    <glyph glyph-name=".null" horiz-adv-x="0" 
 />
    <glyph glyph-name=".null" horiz-adv-x="0" 
 />
    <glyph glyph-name="controlLF" unicode="&#xa;" horiz-adv-x="0" 
 />
    <glyph glyph-name="controlCR" unicode="&#xd;" horiz-adv-x="0" 
 />
    <glyph glyph-name="space" unicode=" " horiz-adv-x="270" 
 />
    <glyph glyph-name="exclam" unicode="!" horiz-adv-x="157" 
d="M78.1797 -0.280273c-19.9805 0 -36.1807 16.2002 -36.1807 36.1904c0 19.9805 16.2002 36.1807 36.1807 36.1807c19.9902 0 36.1904 -16.2002 36.1904 -36.1807c0 -19.9902 -16.2002 -36.1904 -36.1904 -36.1904zM65.2197 423.3l-20.5625 410.411
c-1.33984 26.7402 7.82031 51.1504 21.1699 56.4199c8.12012 3.29004 17.1904 3.29004 25.3008 0c13.3604 -5.28027 22.5205 -29.6807 21.1709 -56.4209l-20.5498 -410.41c-3.75 -77.21 -6.03027 -154.71 -6.03027 -232.28h-14.4697v1.37012
c-0.0195312 77.1104 -2.30957 154.15 -6.0293 230.91z" />
    <glyph glyph-name="quotedbl" unicode="&#x22;" horiz-adv-x="234" 
d="M220.869 718.26c0.0302734 -0.629883 2.20215 -63.4785 -55.8281 -77.1982l-3.33984 14.0801c16.8896 3.50977 31.0596 14.9395 38.0693 30.709c-14.6201 -6.67969 -31.8896 -2.89941 -42.3799 9.27051c-10.4805 12.1699 -11.6709 29.8096 -2.90137 43.2695
c8.75977 13.4697 25.3701 19.5195 40.75 14.8594c15.3701 -4.66016 25.8203 -18.9199 25.6299 -34.9902zM81.2314 718.261c0.0302734 -0.599609 2.21094 -63.4785 -55.8291 -77.1982l-3.33984 14.0801c16.9004 3.50977 31.0605 14.9395 38.0703 30.709
c-14.6201 -6.67969 -31.8799 -2.89941 -42.3701 9.27051s-11.6807 29.8096 -2.91113 43.2695c8.75977 13.4697 25.3701 19.5195 40.75 14.8594c15.3701 -4.66016 25.8203 -18.9199 25.6299 -34.9902z" />
    <glyph glyph-name="numbersign" unicode="#" horiz-adv-x="534" 
d="M510.036 447.088h-119.227l-28.1562 -191.374h117.074v-14.4736h-119.188l-35.4131 -240.682l-14.3193 2.11328l35.0947 238.578h-191.219l-35.4131 -240.682l-14.3193 2.11328l35.1035 238.578h-117.055v14.4736h119.217l28.1562 191.374h-117.055v14.4736h119.188
l35.4131 240.672l14.3193 -2.11328l-35.1035 -238.568h191.219l35.4033 240.672l14.3193 -2.11328l-35.0947 -238.568h117.055v-14.4736zM348.063 255.714l28.0986 191.374h-191.171l-28.1562 -191.374h191.229z" />
    <glyph glyph-name="dollar" unicode="$" horiz-adv-x="522" 
d="M484.46 191.91l-0.110352 -0.0751953c7.46973 -65.21 -26.1699 -128.25 -84.4902 -158.36c-19.9404 -10.7402 -41.2207 -18.7803 -63.2803 -23.9102c-16.7305 -4.01953 -33.7402 -6.70996 -50.8906 -8.05957l-3.36035 -0.299805
c-2.54004 -0.200195 -5.08984 -0.390625 -7.71973 -0.541016c-3.32031 -0.19043 -6.61035 -0.34082 -9.87988 -0.44043v-82.3604h-14.4697v82.2598c-25.4502 0.0703125 -50.8398 2.33008 -75.8896 6.75977c-50.5195 9.16016 -97.4697 32.2705 -135.54 66.7109
c-3.7002 4.37012 -5.40039 10.1006 -4.66016 15.7705c0.730469 5.67969 3.83008 10.79 8.52051 14.0703c6.32031 5.65039 13.3506 10.4307 20.9102 14.2402c12.0996 6 23.21 6.16016 26.9404 -0.410156c22.1299 -36.4297 54.0195 -65.9297 92.0693 -85.1494
c21.0303 -10.6602 44.1299 -16.6006 67.6895 -17.4307v297.83c-33.3096 15.1797 -65.4795 32.7393 -96.2695 52.5488c-26.3398 16.8896 -49.8398 37.8496 -69.6201 62.0898c-17.1201 21.0098 -29 45.7793 -34.6699 72.2793
c-4.42969 22.5801 -3.42969 45.8896 2.89062 68.0098c11.4297 39.5898 36.75 73.7295 71.3096 96.1592c37.9805 23.6201 81.6807 36.4199 126.4 37.0098v84.1699h14.4805v-83.71c0.860352 0.00976562 1.65039 0.0693359 2.52051 0.0693359h0.459961
c26.5898 0.0703125 53.1299 -2.37012 79.2695 -7.28027c50.9902 -10.8701 95.7803 -41.1104 124.92 -84.3506c2.66016 -5.13965 3.02051 -11.1699 0.980469 -16.5898c-2.03027 -5.41992 -6.27051 -9.72949 -11.6602 -11.8496
c-7.62012 -3.7002 -15.6797 -6.39062 -23.9893 -8.02051c-13.1104 -2.99023 -23.5801 -1.18066 -25.5605 5.63965c-19.0498 63.9297 -77.7402 107.81 -144.44 108h-0.129883c-0.820312 0 -1.57031 -0.0898438 -2.39062 -0.0898438v-300.72
c5.79004 -2.78027 11.5205 -5.56055 17.6504 -8.4502c17.9404 -8.57031 35.1807 -16.8906 51.4209 -25.3809c8 -4.17969 16.1699 -8.63965 23.4395 -12.7295l21.4502 -12.2695c28.0098 -15.0498 53.1602 -34.8896 74.2998 -58.6299
c4.98047 -6.08008 9.40039 -12.5898 13.21 -19.46c3.42969 -6.21973 6.41992 -12.6699 8.9502 -19.2998c4.63965 -12.1504 7.73926 -24.8301 9.23926 -37.75zM250.35 392.905l-0.0400391 293.17c-49.7803 -3.01953 -87.5 -19.1992 -112.16 -41.1494
c-25 -21.7305 -40.4102 -52.4502 -42.8604 -85.4805c-2.0498 -31.2695 7.41016 -60.7998 36.9902 -90.79c17.7598 -17.3096 37.6602 -32.2793 59.21 -44.5488c17.0703 -10.2305 36.75 -20.3809 58.8604 -31.2012zM435.479 135.175
c1.66992 15.79 0.243164 31.7598 -4.18652 47.0098c-2.41992 8.13965 -5.74023 15.9893 -9.89062 23.4092c-2.16992 3.86035 -4.57031 7.59082 -7.2002 11.1611c-2.57031 3.4502 -5.41016 6.68066 -8.50977 9.65039c-18.3799 15.9199 -38.8604 29.2295 -60.8701 39.5596
c-24.1504 12.75 -49.6006 25.3398 -80.001 39.7695v-290.77c23.4697 0.610352 46.7393 4.51074 69.1289 11.5703c19.5303 6 37.8799 15.3096 54.25 27.5195c26.5498 19.1201 43.7295 48.6006 47.2793 81.1201z" />
    <glyph glyph-name="percent" unicode="%" horiz-adv-x="720" 
d="M187.407 343.84c-21.5195 0.570312 -42.6299 5.99023 -61.7598 15.8604c-15.2598 7.55957 -29.4297 17.1396 -42.1396 28.4795c-14.5801 13.4404 -26.5303 29.4707 -35.2402 47.2803c-25.6904 55.0498 -25.6904 118.64 0 173.689
c8.70996 17.8096 20.6602 33.8398 35.2402 47.2803c12.71 11.3398 26.8799 20.9102 42.1396 28.4697c38.46 21.1504 85.0596 21.1504 123.51 0c15.2695 -7.55957 29.4395 -17.1299 42.1494 -28.4697c14.5801 -13.4404 26.5303 -29.4707 35.2402 -47.2803
c25.6904 -55.0498 25.6904 -118.64 0 -173.689c-8.70996 -17.8096 -20.6602 -33.8398 -35.2402 -47.2803c-12.71 -11.3398 -26.8799 -20.9199 -42.1494 -28.4795c-19.1201 -9.87012 -40.2305 -15.29 -61.75 -15.8604zM103.797 455.649
c2.98047 -14.7803 7.11035 -29.2998 12.3701 -43.4297c4.84961 -12.8496 12.3096 -24.5498 21.9092 -34.3799c13.1797 -12.9404 30.8701 -20.2705 49.3398 -20.4502l1.08984 0.0800781c18.2598 0.349609 35.6797 7.73926 48.6201 20.6289
c9.45996 9.82031 16.8096 21.4707 21.6191 34.2305c5.20996 14.1299 9.32031 28.6494 12.2803 43.4189c9.66992 43.8896 9.66992 89.3496 0 133.229c-2.96973 14.7803 -7.10938 29.2998 -12.3594 43.4199c-4.84961 12.8496 -12.3096 24.5596 -21.9199 34.3799
c-13.1797 12.9502 -30.8594 20.2803 -49.3291 20.46l-1.08984 -0.0898438c-18.2598 -0.339844 -35.6797 -7.72949 -48.6201 -20.6191c-9.46973 -9.82031 -16.8301 -21.4707 -21.6299 -34.2305c-5.20996 -14.1396 -9.32031 -28.6592 -12.2803 -43.4287
c-9.66992 -43.8799 -9.66992 -89.3398 0 -133.22zM669.867 265.789c25.6904 -55.0498 25.6904 -118.64 0 -173.689c-8.70996 -17.8096 -20.6602 -33.8398 -35.2402 -47.2803c-12.71 -11.3398 -26.8799 -20.9102 -42.1494 -28.4805
c-38.4502 -21.1396 -85.0498 -21.1396 -123.51 0c-15.2598 7.57031 -29.4297 17.1406 -42.1396 28.4805c-14.5801 13.4404 -26.5303 29.4707 -35.2402 47.2803c-25.6904 55.0498 -25.6904 118.64 0 173.689c8.70996 17.8096 20.6602 33.8398 35.2402 47.2803
c12.71 11.3398 26.8799 20.9102 42.1396 28.4697c38.46 21.1504 85.0596 21.1504 123.51 0c15.2695 -7.55957 29.4395 -17.1299 42.1494 -28.4697c14.5801 -13.4404 26.5303 -29.4707 35.2402 -47.2803zM614.337 112.359
c9.66992 43.8896 9.67969 89.3496 0.00976562 133.229c-2.96973 14.7803 -7.10938 29.2998 -12.3594 43.4199c-4.84961 12.8496 -12.3096 24.5596 -21.9199 34.3799c-13.1797 12.9502 -30.8594 20.2803 -49.3291 20.46l-1.08984 -0.0898438
c-18.2598 -0.339844 -35.6797 -7.72949 -48.6201 -20.6191c-9.46973 -9.82031 -16.8301 -21.4707 -21.6299 -34.2305c-5.20996 -14.1396 -9.32031 -28.6494 -12.2803 -43.4189c-9.66992 -43.8896 -9.66992 -89.3496 0 -133.229
c2.96973 -14.7803 7.09961 -29.2998 12.3594 -43.4199c4.84961 -12.8496 12.3096 -24.5596 21.9092 -34.3799c13.1797 -12.9502 30.8701 -20.2803 49.3398 -20.46l1.08984 0.0898438c18.2598 0.339844 35.6797 7.72949 48.6201 20.6191
c9.45996 9.82031 16.8203 21.4707 21.6201 34.2305c5.20996 14.1396 9.32031 28.6494 12.2803 43.4189zM599.297 701.189h17.6289l-487.85 -701.18h-17.6396z" />
    <glyph glyph-name="ampersand" unicode="&#x26;" horiz-adv-x="795" 
d="M769.78 131.44c12.6602 -4.2998 19.6289 -14.5332 15.8887 -23.0732c-9.79004 -21.5303 -23.3398 -41.1406 -40.04 -57.9004c-16.3301 -16.2305 -36.0205 -28.6904 -57.6807 -36.5c-11.6699 -3.92969 -23.6396 -6.89941 -35.79 -8.88965
c-11.8604 -1.67969 -23.8203 -2.58008 -35.8008 -2.7002l-2.42969 0.120117c-22.2695 0.280273 -44.3799 3.83984 -65.6201 10.54c-17.3096 5.37012 -34.1797 12.0898 -50.4395 20.0996c-24.9697 12.4697 -48.9893 26.7393 -71.8789 42.709
c-54.9199 -42.4102 -122.52 -73.54 -190.979 -73.54c-1.87988 0 -3.7002 0.0703125 -5.62988 0.0703125c-5.90039 0.150391 -11.6699 0.680664 -17.3701 1.38086c-6.45996 0.360352 -12.8799 1.09082 -19.25 2.21094c-10 1.78027 -19.9102 4.07031 -29.6699 6.87012
c-17.3203 4.80957 -34.04 11.5596 -49.8496 20.1191c-18.7998 10.3604 -35.29 24.46 -48.4297 41.4297c-20.7402 26.9199 -32.7598 59.5303 -34.4502 93.4707c-0.639648 10.1797 -0.429688 20.4102 0.660156 30.5605c1.23047 8.9502 3.13086 17.7998 5.6709 26.4697
c2.17969 7.61035 5.00977 15.0205 8.45996 22.1406l4.7002 9.65039l5.26953 8.49023c11.3301 17.6396 25.79 33.0596 42.6699 45.5098c14.0596 10.6602 27.6396 19.0498 43.0801 28.6299c8.88965 5.58984 18.5195 11.7402 29.2197 18.6602
c-8.07031 14.8701 -15.3398 30.1699 -21.7695 45.8301c-14.2197 33.79 -22.9199 69.6504 -25.7695 106.2c-2.50977 32.4805 1.83008 65.1201 12.75 95.8105c6.49023 17.8701 16.25 34.3896 28.7803 48.6992c15.25 17.7002 35.1904 30.7197 57.5303 37.5596
c16.2402 4.66992 33.0801 6.9502 49.9697 6.75977c41.21 0.120117 80.5596 -17.1797 108.319 -47.6396c24.6504 -28.6797 35.6006 -66.6797 29.9902 -104.08c-9.58008 -79.6104 -82.5703 -117.641 -146.98 -151.2c-9.19043 -4.79004 -18.04 -9.45996 -26.7305 -14.1602
v-0.169922c14.6904 -21.4805 31.6104 -45.6309 52.5703 -72.7207c19.4502 -24.9199 36.9404 -46.21 53.2305 -65.8398l42.7598 -52.54c24.9805 -31.0098 44.1709 -55.2998 62.9609 -77.1895c16.6201 15.4902 31.8701 32.3799 45.5898 50.4902
c38.1201 51.3398 66.0801 109.49 82.3896 171.33c9.23047 33.9697 -0.65918 70.2793 -25.8291 94.8896l-20.4902 19.9102h140.29l-42.5 -37.4004c-15.71 -13.9297 -26.5 -32.5693 -30.7402 -53.1289c-15.3203 -73.9297 -46.5205 -143.64 -91.4609 -204.3
c-14.3203 -18.8896 -30.25 -36.4893 -47.6201 -52.6191c15.9404 -18.46 33.8906 -35.0898 53.5303 -49.5498c13.7695 -9.94043 28.7295 -18.1104 44.5391 -24.3203c19.4697 -7.58984 40.1602 -11.5596 61.0605 -11.71h0.379883
c21.3301 0.110352 42.0098 7.34082 58.7598 20.541c26.96 22.6201 43.3701 55.3701 45.3506 90.5098c0.30957 6.62988 10.6094 10.2803 24.1191 8.94043c8.41992 -0.860352 16.71 -2.68066 24.71 -5.43066zM165.35 517.668c10.3701 -30.0498 23.7695 -58.9678 40 -86.3076
c6.62988 -11.6699 14.3096 -24.0898 22.9199 -37.4502c9.07031 4.91992 18.3799 9.80957 27.9795 14.8096c64.2305 33.4697 130.62 68.0693 139.311 140.109c5.05957 33.3301 -4.62012 67.21 -26.54 92.8301c-25.0596 27.3701 -60.5195 42.8701 -97.6299 42.6797
c-15.4697 0.200195 -30.8896 -1.87988 -45.7598 -6.16016c-19.4199 -5.94043 -36.4004 -18.0107 -48.4004 -34.4004c-9.75977 -13.1602 -16.3701 -28.3906 -19.29 -44.5107c-4.37988 -27.3896 -1.83984 -55.4395 7.41016 -81.5996zM235.049 16.7998
c63.6396 0 126.719 28.4307 178.699 67.6807c-26.5596 19.2695 -51.7793 40.3291 -75.4697 63.0391c-15.0195 14.2197 -31.0898 30.5801 -48.71 49.3301c-17.6201 18.7598 -37.3105 41.2402 -57.9805 67.71c-18.46 23.8398 -35.4697 48.7598 -50.9395 74.6299
c-0.860352 1.4502 -1.60059 2.87012 -2.43066 4.33984c-8.05957 -6.80957 -15.5098 -14.3096 -22.2793 -22.3896c-9.9502 -11.9297 -18.4307 -25.0098 -25.251 -38.96c-7.45996 -14.5703 -13.7402 -29.71 -18.7803 -45.2695l-2.25 -6.63965l-1.75 -7.0498
c-1.38965 -4.9502 -2.47949 -9.99023 -3.26953 -15.0801c-1.33008 -5.23047 -1.17969 -10.9307 -2.14941 -16.8105c-0.259766 -6.34961 -0.189453 -12.7197 0.220703 -19.0693c1.46973 -22.2695 6.88965 -44.0996 16.0098 -64.4697
c6.20996 -14.6797 13.8701 -28.6895 22.8701 -41.8398c8.36035 -12.4102 18.9707 -23.1504 31.2803 -31.6602c7.46973 -4.98047 15.5498 -8.96094 24.0596 -11.8408c10.6904 -3.09961 21.6904 -4.96973 32.8105 -5.58008
c1.76953 -0.0703125 3.5498 -0.0703125 5.30957 -0.0703125z" />
    <glyph glyph-name="quotesingle" unicode="'" horiz-adv-x="94" 
d="M81.21 718.47c0.0195312 -0.629883 2.16211 -63.4893 -55.8281 -77.209l-3.33984 14.0801c16.9004 3.50977 31.0605 14.9395 38.0703 30.709c-14.6104 -6.66992 -31.8701 -2.88965 -42.3604 9.28027c-10.4805 12.1699 -11.6709 29.7998 -2.90137 43.2598
c8.75977 13.46 25.3594 19.5195 40.7295 14.8594c15.3799 -4.66016 25.8203 -18.9199 25.6299 -34.9795z" />
    <glyph glyph-name="parenleft" unicode="(" horiz-adv-x="245" 
d="M209.729 -63.54c23.4805 -38.3604 51.6797 -73.6328 83.9297 -104.982l-10.1104 -10.3496c-32.7197 32.2998 -63.7598 66.25 -93.0195 101.72c-22.5195 27.4102 -43.5996 55.9805 -63.1299 85.5908c-22.25 34.5801 -40.4902 71.5898 -54.3701 110.3
c-9.32031 26.2002 -16.6699 53.0605 -21.9902 80.3604c-6.37012 34.8301 -9.71973 70.1299 -10.0195 105.54c-0.509766 63.3301 9.7998 126.29 30.46 186.16c13.5195 38.8496 31.4893 76.0098 53.5693 110.71c19.25 29.8096 40.1104 58.54 62.4805 86.0703
c28.9902 35.6797 59.7998 69.8496 92.3096 102.369l10.1797 -10.2803l-1.87988 -1.92969c-31.5801 -31.2803 -59.1104 -66.4004 -81.9404 -104.54c-16.8096 -29.0996 -30.9893 -59.6299 -42.3789 -91.2402c-12.8604 -35.5 -23.3799 -71.7998 -31.4902 -108.67
c-12.5898 -55.2305 -18.9395 -111.7 -18.9395 -168.351c0.349609 -31.5898 2.55957 -63.1396 6.60938 -94.4795c4.20996 -27.6396 8.44043 -52.0098 13.75 -73.7295c8.48047 -36.8896 19.3105 -73.1992 32.4102 -108.709
c11.8496 -31.7197 26.4199 -62.3594 43.5703 -91.5596z" />
    <glyph glyph-name="parenright" unicode=")" horiz-adv-x="245" 
d="M173.231 490.77c20.6455 -59.8711 30.9277 -122.827 30.4043 -186.155c-0.301758 -35.4004 -3.65625 -70.709 -10.0254 -105.533c-5.31348 -27.2969 -12.6611 -54.1582 -21.9805 -80.3594c-13.873 -38.7129 -32.1123 -75.7188 -54.3643 -110.302
c-19.5342 -29.6143 -40.6084 -58.1836 -63.1357 -85.5898c-29.2539 -35.4697 -60.3008 -69.4219 -93.0186 -101.724l-10.1123 10.3535c32.2559 31.3418 60.458 66.6016 83.9482 104.955c17.1406 29.2041 31.7178 59.8398 43.5664 91.5625
c13.0947 35.5127 23.917 71.8223 32.4014 108.709c5.30664 21.7207 9.5332 46.0947 13.75 73.7305c4.0498 31.3389 6.25684 62.8887 6.60938 94.4863c0 56.6621 -6.35645 113.146 -18.9502 168.39c-8.13867 36.9609 -18.7021 73.3467 -31.6201 108.921
c-11.5361 31.8369 -25.8799 62.585 -42.8623 91.8809c-23.1973 38.5273 -51.1445 73.9863 -83.1855 105.544l10.1797 10.2861l1.92969 -1.92969c32.0371 -32.2344 62.4229 -66.0693 91.041 -101.375c22.2139 -27.3135 42.9072 -55.8281 61.9873 -85.415
c22.0322 -34.6162 39.9648 -71.6768 53.4375 -110.436z" />
    <glyph glyph-name="asterisk" unicode="*" horiz-adv-x="512" 
d="M486.765 614.68c0.330078 -1.7998 0.560547 -3.62109 0.69043 -5.45117c0.669922 -13.79 -12.4502 -27.7197 -30.3604 -32.1299l-166.79 -41.1797l110.82 -131.3c11.8896 -14.0996 14.3594 -33.0498 5.66895 -43.8398
c-1.16992 -1.41992 -2.41016 -2.78027 -3.73047 -4.06055l0.339844 -0.490234l-11.71 -8.50977l-0.360352 0.490234c-1.62988 -0.860352 -3.30957 -1.62012 -5.01953 -2.29004c-12.9199 -4.92969 -30.2197 3.27051 -39.9395 18.9404l-90.6299 145.97l-90.6201 -145.97
c-9.74023 -15.6699 -27 -23.8701 -39.9404 -18.9404c-1.71973 0.669922 -3.38965 1.42969 -5.01953 2.29004l-0.360352 -0.480469l-11.71 8.50977l0.360352 0.490234c-1.32031 1.28027 -2.57031 2.64062 -3.74023 4.06055c-8.66992 10.79 -6.21973 29.7402 5.68066 43.8398
l110.82 131.3l-166.83 41.0801c-17.9102 4.41992 -31.0303 18.3096 -30.3604 32.1396c0.110352 1.83008 0.320312 3.66016 0.629883 5.48047l-0.580078 0.19043l4.48047 13.7695l0.580078 -0.179688c0.80957 1.66016 1.71973 3.27051 2.70996 4.82031
c7.55957 11.5898 26.3398 15.1094 43.4199 8.15918l159.12 -64.8301l-12.4902 171.36c-1.33984 18.4004 7.82031 35.1699 21.1699 38.7998c1.78027 0.469727 3.58984 0.830078 5.41016 1.08984v0.610352h14.4697v-0.55957
c1.82031 -0.259766 3.62988 -0.629883 5.41016 -1.09961c13.3604 -3.62988 22.5205 -20.4102 21.1709 -38.7998l-12.4805 -171.36l159.11 64.8203c17.0596 6.95996 35.8496 3.42969 43.4297 -8.15039c0.990234 -1.55957 1.90039 -3.16992 2.70996 -4.82031
l0.580078 0.179688l4.46973 -13.7695z" />
    <glyph glyph-name="plus" unicode="+" horiz-adv-x="476" 
d="M245.045 316.061h217.571v-14.4736h-217.571v-217.571h-14.4736v217.571h-217.571v14.4736h217.571v217.571h14.4736v-217.571z" />
    <glyph glyph-name="comma" unicode="," horiz-adv-x="107" 
d="M89.21 39.46c0.0302734 -0.629883 2.16211 -63.499 -55.8281 -77.209l-3.33984 14.0801c16.9004 3.50977 31.0605 14.9395 38.0703 30.709c-14.6104 -6.66992 -31.8701 -2.88965 -42.3604 9.28027c-10.4805 12.1699 -11.6709 29.7998 -2.90137 43.2598
c8.75977 13.46 25.3594 19.5195 40.7295 14.8594s25.8203 -18.9199 25.6299 -34.9795z" />
    <glyph glyph-name="hyphen" unicode="-" horiz-adv-x="264" 
d="M256.51 255.762h-249.51v14.4736h249.51v-14.4736z" />
    <glyph glyph-name="period" unicode="." horiz-adv-x="105" 
d="M52.1797 0.360352c-19.9805 0 -36.1807 16.2002 -36.1807 36.1807c0 19.9902 16.2002 36.1904 36.1807 36.1904c19.9902 0 36.1904 -16.2002 36.1904 -36.1904c0 -19.9805 -16.2002 -36.1807 -36.1904 -36.1807z" />
    <glyph glyph-name="slash" unicode="/" horiz-adv-x="255" 
d="M237.183 699.271l-255.298 -874.864l-13.8848 4.05176l255.298 874.864z" />
    <glyph glyph-name="zero" unicode="0" horiz-adv-x="647" 
d="M575.973 514.9c43.9404 -105.12 43.8984 -223.439 -0.0419922 -328.56c-14.7002 -33.9902 -34.9199 -65.3203 -59.8301 -92.7207c-21.9199 -23.4404 -47.1602 -43.5508 -74.8906 -59.6904c-23.5898 -13.7998 -49.2598 -23.6396 -76.0195 -29.1494
c-1.80957 -0.410156 -3.63965 -0.790039 -5.46973 -1.13965l-0.969727 -0.169922c-11.5996 -2.21973 -23.3994 -3.35938 -35.2197 -3.38965h-0.219727c-11.8096 0.0302734 -23.5996 1.16992 -35.1992 3.38965l-0.959961 0.169922
c-1.82031 0.349609 -3.64062 0.729492 -5.46094 1.13965c-26.75 5.5 -52.4297 15.3398 -76.0098 29.1396c-27.7402 16.1396 -52.9707 36.25 -74.9004 59.6904c-24.9102 27.4004 -45.1201 58.7305 -59.8203 92.7207c-43.9502 105.12 -43.9502 223.46 0 328.58
c14.7002 33.9902 34.9102 65.3203 59.8203 92.7207c21.9297 23.4404 47.1494 43.5508 74.8896 59.6904c23.5801 13.79 49.25 23.6396 76.0098 29.1396c1.82031 0.410156 3.65039 0.799805 5.49023 1.14941l0.959961 0.169922
c11.6104 2.21973 23.4004 3.35938 35.2207 3.38965h0.219727c11.8203 -0.0302734 23.6104 -1.16992 35.2207 -3.40039l0.969727 -0.169922c1.83984 -0.349609 3.66992 -0.729492 5.49023 -1.14941c26.75 -5.5 52.4297 -15.3496 76 -29.1396
c27.7402 -16.1396 52.9707 -36.25 74.8906 -59.6904c24.9102 -27.4004 45.1299 -58.7305 59.8301 -92.7207zM516.48 208.061c26.7695 93.1797 26.7793 192.018 0.00976562 285.208c-8.58984 30.7305 -20.4395 60.4609 -35.3496 88.6807
c-13.5 25.0996 -31.5498 47.4893 -53.21 66.0195c-29.3096 24.5098 -66.1592 38.2002 -104.369 38.7705h-0.169922l-2.16992 -0.160156c-37.79 -0.879883 -74.1299 -14.6895 -102.97 -39.1299c-21.3799 -18.5195 -39.2002 -40.7891 -52.6006 -65.709
c-14.8096 -28.1699 -26.5996 -57.8398 -35.1797 -88.4902c-26.7695 -93.1904 -26.7695 -192.03 0 -285.21c8.59961 -30.7305 20.4492 -60.4609 35.3496 -88.6807c13.5098 -25.0996 31.5498 -47.4893 53.21 -66.0195c29.3096 -24.5195 66.1592 -38.1992 104.359 -38.7695
h0.169922l2.16992 0.150391c37.79 0.879883 74.1396 14.6895 102.97 39.1299c21.3799 18.5303 39.2002 40.7998 52.6006 65.71c14.8096 28.1797 26.5996 57.8398 35.1797 88.5z" />
    <glyph glyph-name="one" unicode="1" horiz-adv-x="232" 
d="M53.752 0.00878906c21.6367 19.9746 33.9375 48.084 33.9268 77.5312v526.85l-53.6787 -4.47754c42.7939 17.5811 89.5928 64.0039 121.918 97.0723l4.12988 4.2168v-623.709c0 -29.4287 12.2959 -57.5186 33.917 -77.4834h-140.213z" />
    <glyph glyph-name="two" unicode="2" horiz-adv-x="537" 
d="M500.25 106.22l-0.00683594 -106.29h-494.24c16.2197 25.1699 33.9395 49.3398 53.0791 72.3701c15.3496 18.5703 31.6396 36.3398 48.7998 53.25l5.12988 5.12988l0.0898438 -0.0800781c38 36.8496 69.0996 63.5996 95.5293 87.8896
c28.0303 25.2305 50.6299 47.1006 73.79 71.7402c26.0098 27.2803 50.1797 56.25 72.3701 86.7197c13.7695 19.1104 25.4395 39.6504 34.8096 61.2607c11.0703 26.21 16.7402 54.3896 16.6504 82.8496c-0.129883 24.75 -4.97949 49.2598 -14.2891 72.1895
c-6.59961 15.9199 -15.3994 30.8301 -26.1494 44.29c-10.0303 13.1201 -22.5498 24.1201 -36.8398 32.4004c-19.5898 10.9902 -41.6895 16.75 -64.1592 16.7197h-0.410156c-22.6504 -0.110352 -44.8105 -6.58008 -63.9707 -18.6504
c-31.8496 -20.5898 -55.9492 -51.1699 -68.5088 -86.9395c-2.32031 -6.37012 -12.9805 -7.7002 -25.8604 -3.48047c-8.03027 2.69043 -15.7002 6.33008 -22.8604 10.8398c-11.3398 7.05957 -15.71 19.3691 -9.5498 27.0195c29.3701 37.7998 70.3604 64.8896 116.65 77.0898
c24.3896 5.91016 49.4092 8.7998 74.5088 8.60938c24.5098 -0.330078 48.8994 -3.4502 72.709 -9.28027c19.2002 -4.37012 37.75 -11.1797 55.2197 -20.2598c21.2695 -10.96 39.6797 -26.7598 53.7295 -46.1299c21.29 -30.6299 32.5303 -67.1299 32.1602 -104.439
c-0.120117 -20.4297 -2.49023 -40.7793 -7.0498 -60.6895c-4.26953 -17.5996 -10.4199 -34.6895 -18.3301 -50.9697c-12.9404 -26.2002 -29.4707 -50.4697 -49.1211 -72.0996c-27.9297 -30.2197 -59.2998 -57.0693 -93.4795 -79.9893
c-28.8096 -19.9902 -56.7598 -36.8105 -87.5693 -57.3203c-37.5898 -24.8896 -72.75 -53.2598 -105.04 -84.7295c-13.9902 -13.7998 -27.3105 -28.0801 -40.1406 -42.9404h344.85c29.4404 0 57.5303 12.29 77.5 33.9199z" />
    <glyph glyph-name="three" unicode="3" horiz-adv-x="485" 
d="M446.204 208.07c0.0595703 -3.12012 0.0810547 -5.36328 0.191406 -8.70312c-0.0400391 -23.46 -3.91992 -46.7598 -11.4795 -68.9697c-5.94043 -17.6699 -14.4209 -34.3701 -25.1709 -49.6006c-16.0195 -22.4004 -37.3398 -40.4902 -62.04 -52.6504
c-5.07031 -2.63965 -10.29 -4.93945 -15.6504 -6.88965c-5.08984 -2.25 -10.3398 -4.12012 -15.71 -5.58984l-16.0898 -4.69043l-16.9805 -3.46973c-27.6504 -4.92969 -55.6807 -7.44922 -83.7705 -7.50879h-0.44043c-24.5596 0.200195 -48.96 3.94043 -72.4502 11.1104
c-22.6602 6.57031 -43.46 18.3906 -60.7002 34.501c-18.9102 17.8398 -32.5498 40.54 -39.4297 65.6201c-2.73047 10.2002 6.39941 19.9697 19.5391 21.5195c8.40039 1.04004 16.8906 1.08984 25.3008 0.149414c13.5898 -1.57031 22.75 -6.4707 22.1396 -12.1211
c-1.34961 -15.75 1.81055 -31.5596 9.11035 -45.5791c8.4502 -16.0498 20.6406 -29.8193 35.5508 -40.1494c17.8701 -12.9805 39.2998 -20.1602 61.3799 -20.5703l1.58984 0.0703125c26.0898 -0.280273 51.9297 5.0498 75.7793 15.6299l13.5098 6.91016l11.7803 8.16992
c3.79004 2.62012 7.34961 5.56055 10.6191 8.80078c3.46973 2.94043 6.72949 6.11035 9.73926 9.51074c13.6504 14.7305 24.79 31.6006 32.9697 49.9404c5.25977 11.9004 9.41992 24.25 12.4395 36.9004c3.95996 16.1602 6 32.7305 6.08008 49.3701v7.98047
c-0.0800781 2.26953 -0.150391 4.51953 -0.220703 6.75c0.0302734 4.30957 -0.209961 8.60938 -0.700195 12.8896c-0.459961 8.36035 -2.01953 15.8105 -3.0293 23.0303c-2.59961 12.4297 -6.39941 24.5693 -11.3496 36.2695
c-7.62012 18.21 -18.7705 34.7295 -32.8105 48.6094c-3.12012 3.30957 -6.49023 6.35938 -10.0801 9.14941c-3.41992 3.12012 -7.11035 5.92969 -11.0303 8.38965c-3.9502 2.54004 -7.9502 5.23047 -12.25 7.7207l-13.9502 6.51953
c-24.6396 9.67969 -50.9199 14.4893 -77.4004 14.1689v14.4697l1.20996 0.0595703c20.1699 -0.0996094 40 5.09082 57.54 15.0508c12.6201 7.74023 23.7305 17.7002 32.8105 29.4004c9.28027 12.4102 17.0605 25.8799 23.1504 40.1396
c3.80957 8.87012 6.93945 18.0205 9.33984 27.3701c2.74023 11.8301 4.25977 23.9102 4.5498 36.0498c0.209961 3.7002 0.209961 7.41016 0 11.1104c-0.230469 3 0.00976562 5.98047 -0.379883 8.79004c-0.379883 2.80957 -0.679688 5.55957 -0.899414 8.25
c-0.530273 2.66016 -1.04004 5.23047 -1.54004 7.7207c-1.9502 9.08984 -4.83984 17.9502 -8.62988 26.4502c-6.08008 13.9902 -14.0996 27.0605 -23.8301 38.8203c-9.42969 11.5703 -21.1094 21.1104 -34.3291 28.04c-18.2305 9.37988 -38.5107 14.0898 -59.0205 13.71
h-0.330078c-18.9502 0.110352 -37.4697 -5.58984 -53.0693 -16.3398c-25.1797 -18.3496 -42.7695 -45.2695 -49.4697 -75.6992c-1.33984 -5.62988 -11.75 -6.63965 -24.6201 -2.73926c-8.08008 2.5 -15.8896 5.7998 -23.2998 9.85938
c-11.79 6.40039 -17.2402 16.9404 -12.3203 23.6904c12.3604 16.9502 27.29 31.8506 44.2598 44.1602c16.5 11.9805 35.2305 20.54 55.0908 25.1602c20.9004 4.65039 42.2803 6.79004 63.6904 6.37988c22.25 0.0195312 44.4697 -1.93066 66.3701 -5.85059
c17.9004 -2.74023 35.3809 -7.74023 52.0107 -14.8906c34.9805 -15.3496 61.9404 -44.6299 74.3809 -80.7402c1.33984 -4.17969 2.75 -8.48926 3.99023 -12.999l2.69043 -14.21c0.709961 -5.07031 1.16016 -10.1807 1.36035 -15.291
c0.349609 -4.84961 0.40918 -9.70996 0.168945 -14.5596c-0.339844 -19.2402 -3.85938 -38.2998 -10.4297 -56.3994c-5.40039 -14.1602 -12.8506 -27.4404 -22.1309 -39.4209c-13.54 -17.3301 -30.7998 -31.3701 -50.5195 -41.1006
c-13.6201 -6.33008 -27.8506 -11.29 -42.4502 -14.8096c2.76953 -0.349609 5.50977 -0.719727 8.20996 -1.10938l17.0303 -2.88965l16.25 -4.0498c5.41992 -1.26953 10.7402 -2.93945 15.9307 -4.98926c5.4502 -1.75 10.7803 -3.87988 15.9307 -6.37988
c25.5801 -11.3896 47.5 -29.6396 63.3301 -52.7295c10.7197 -15.6201 18.96 -32.8105 24.4102 -50.9609c2.99023 -10.6602 5.2002 -21.5205 6.62012 -32.501c0.889648 -5.91992 1.40918 -11.8896 1.54883 -17.8701c0.139648 -3.07031 0.269531 -6.18066 0.40918 -9.34082z
" />
    <glyph glyph-name="four" unicode="4" horiz-adv-x="542" 
d="M515.176 260.259l4.39062 5.16992v-93.4531l-4.38086 5.20117c-18.334 21.751 -45.3311 34.3037 -73.7783 34.3037h-45.0039v-137.917c0 -26.9258 11.25 -52.627 31.0322 -70.8936l2.89453 -2.66309h-140.213l2.89453 2.66309
c19.7822 18.2666 31.0322 43.9678 31.0322 70.8936v137.917h-322.044l394.403 489.72v-475.245h44.9941c28.4473 0 55.4443 12.5527 73.7783 34.3037zM324.034 225.953v362.34l-291.812 -362.34h291.812z" />
    <glyph glyph-name="five" unicode="5" horiz-adv-x="480" 
d="M364.069 628.81l-248.212 0.220703l-12.1504 -183.33c28.5596 15.7197 60.6094 24.0098 93.209 24.1201c2.30957 0 4.5293 -0.0996094 6.84961 -0.189453c1.61035 -0.0498047 3.12988 -0.200195 4.7002 -0.310547c1.2998 -0.0800781 2.58008 -0.160156 3.86035 -0.25
c0.610352 -0.0595703 1.26074 -0.0791016 1.86035 -0.128906c1.4502 -0.0898438 2.89062 -0.189453 4.25098 -0.379883l0.370117 -0.0595703c22.6201 -2.24023 44.8604 -7.35059 66.1904 -15.2002c22.3799 -8.01953 43.5098 -19.21 62.7197 -33.2295
c22.8096 -16.4102 41.9697 -37.3701 56.2695 -61.5605c43.96 -76.4805 43.96 -170.551 0 -247.021c-14.2998 -24.1904 -33.46 -45.1602 -56.2695 -61.5703c-19.21 -14.0195 -40.3398 -25.21 -62.7197 -33.2295c-25.4404 -9.40039 -52.1709 -14.8301 -79.251 -16.1201
c-0.629883 -0.0302734 -1.25977 -0.129883 -1.92969 -0.129883c-1.54004 -0.0595703 -2.96973 -0.119141 -4.42969 -0.119141c-0.820312 -0.0195312 -1.58984 -0.0996094 -2.42969 -0.0996094h-0.370117c-20.9199 -0.0800781 -41.8096 1.34961 -62.5195 4.2793
c-39.5898 6.15039 -76.7803 22.8906 -107.63 48.4502c-6.40039 5.09961 -3.58008 16.6797 6.07031 25.8096c6.13965 5.7998 12.8496 10.9697 20.0293 15.4297c11.5098 7.13965 21.7793 8.60938 24.6094 3.50977c15.1299 -28.2598 37.7402 -51.7998 65.3604 -68.0693
c16.5303 -9.63965 35.2998 -14.8096 54.4502 -14.9697h1.62988c27.2305 0.219727 53.8203 8.30957 76.5605 23.2793c16.7402 11.3203 31.0498 25.8604 42.0996 42.7705c12.46 18.2002 22.54 37.9102 29.9805 58.6602c23.1797 61.5498 23.1797 129.42 0 190.97
c-7.45996 20.8096 -17.5801 40.5596 -30.0996 58.7695c-11.1904 17.0195 -25.6602 31.6191 -42.5605 42.959c-23.1104 15.0195 -50.0605 23.0293 -77.6104 23.0596c-33.3496 -0.139648 -66 -9.48926 -94.3604 -27.0195
c-5.20996 -3.28027 -10.2295 -6.76074 -15.249 -10.5205l18.9102 283.59h331.36v-106.29l-2.66016 2.88965c-18.2598 19.7803 -43.96 31.0303 -70.8896 31.0303z" />
    <glyph glyph-name="six" unicode="6" horiz-adv-x="544" 
d="M507.529 240.44c3.16992 -42.2002 -5.16016 -84.4639 -24.1006 -122.313c-12.3799 -24.4805 -29.5801 -46.2207 -50.5801 -63.8809c-17.9902 -14.8398 -38.0801 -26.9199 -59.6104 -35.8701c-20.3496 -8.70996 -41.8496 -14.4102 -63.8398 -16.9297
c-7.17969 -0.969727 -14.4199 -1.45996 -21.6602 -1.47949h-0.179688c-22.4004 0.230469 -44.6807 3.30078 -66.3203 9.14062l-13.9697 4.82031c-2.26953 0.799805 -4.5498 1.5 -6.75 2.34961l-6.33008 2.95996l-12.3398 5.70996
c-3.96973 1.99023 -7.55957 4.45996 -11.2793 6.61035c-27.5898 16.8398 -51.4395 39.1494 -70.0791 65.5596c-21.2803 30.0996 -36.6699 63.9697 -45.3496 99.7998c-12.9805 52.9902 -17.6602 107.681 -13.8604 162.11c2.08008 54.8799 13.6699 108.99 34.25 159.91
c13.7305 34.0498 33.5508 65.3193 58.4805 92.2695c21.54 23.46 46.7002 43.3096 74.5303 58.79c35.8496 19.8604 76.0498 30.5605 117.03 31.1602h0.280273c16.1699 -0.139648 32.29 -1.69922 48.1904 -4.65918c14.8799 -2.80957 29.2998 -7.67969 42.8398 -14.4697
c14.3799 -7 27.7197 -15.96 39.6299 -26.6299c5.04004 -4.5 0.549805 -14.9697 -10.4502 -22.5c-6.92969 -4.82031 -14.21 -9.11035 -21.79 -12.8506c-12.1504 -5.86035 -21.29 -8.20996 -22.4199 -4.50977c-7.37988 22.0703 -20.6895 41.6807 -38.4697 56.6807
c-10.5996 8.98047 -23.9297 14.0801 -37.8096 14.4805l-2.25 -0.139648c-37.3604 -0.450195 -73.4902 -13.3906 -102.641 -36.7705c-21.4199 -17.7695 -39.04 -39.6895 -51.7803 -64.4395c-14.79 -27.6396 -26.0898 -57 -33.6396 -87.4199
c-12.25 -46.7402 -19.5303 -94.6406 -21.7207 -142.91c-0.790039 -15 -1.23047 -29.1201 -1.39062 -42.4502c16.4805 45.1504 47.8604 83.3408 88.9707 108.241c16.5703 9.76953 34.6406 16.6992 53.4805 20.5293h0.200195c15.7695 3.12988 31.8594 4.33984 47.9189 3.59961
c13.3096 -0.490234 26.5498 -2.15039 39.5596 -4.9502c22.9297 -4.94043 44.9297 -13.4404 65.2197 -25.2002c23.8896 -14 44.4199 -33.0596 60.1504 -55.8496c4.42969 -6.92969 9.22949 -14.29 13.5996 -22.4697c4.55957 -8.74023 8.5293 -17.7598 11.8896 -27.0195
c8.2002 -22.1602 13.0498 -45.4199 14.3896 -69.0098zM424.81 142.167c8.92969 30.3896 12.4746 62.1104 10.4844 93.7207c-1.03027 17.5498 -3.91016 34.9297 -8.60059 51.8701c-1.59961 7.66016 -4.55957 14.2998 -6.48926 21
c-2.37988 6.48047 -5.04004 12.4209 -7.27051 18.2705c-8.45996 19.5 -19.5596 37.7402 -33.0098 54.2002c-12.2695 15.2197 -27.6494 27.6494 -45.1191 36.4492c-10.6299 5.11035 -21.9697 8.60059 -33.6396 10.3604c-10.3096 1.61035 -20.7695 1.93066 -31.1592 0.960938
c-4.01953 -0.459961 -8.03906 -1.00977 -11.999 -1.79004c-0.209961 -0.0498047 -0.389648 -0.0996094 -0.589844 -0.0996094c-17.2695 -3.5 -33.8398 -9.86035 -49.0098 -18.8203c-51.0195 -29.8799 -85.6895 -85.1895 -95.3291 -149.229
c0.900391 -18.2998 2.35059 -34.8193 4.13086 -49.7197c3.0498 -31.1396 10.1797 -61.75 21.2197 -91.0303c9.5 -25.9297 25.2305 -49.1299 45.8105 -67.5498c2.87988 -2.37988 5.66992 -5.11035 8.88965 -7.36035l10.1504 -6.49023l5.2998 -3.36035
c1.86035 -0.980469 3.86035 -1.77051 5.79004 -2.73047l12.21 -5.54004c19.5801 -6.9502 40.1904 -10.5801 60.96 -10.75c0.419922 0 0.80957 0.0800781 1.22949 0.0800781h0.370117c26.3799 0.269531 52 8.90918 73.1602 24.6787c15.5 11.8896 28.4404 26.79 38.04 43.8096
c10.4805 18.6504 18.6904 38.4805 24.4707 59.0703z" />
    <glyph glyph-name="seven" unicode="7" horiz-adv-x="491" 
d="M458.783 628.821l-226.854 -557.458c-9.70215 -23.8389 -5.93066 -51.0449 9.89062 -71.3457h-93.4814l13.4023 8.41406c25.2725 15.8643 44.9209 39.2695 56.1689 66.9082l225.271 553.491h-361.625c-26.9258 0 -52.627 -11.25 -70.8936 -31.0322l-2.66309 -2.89453
v106.286h480.233z" />
    <glyph glyph-name="eight" unicode="8" horiz-adv-x="499" 
d="M458.769 211.55c2.7002 -20.4199 2.1377 -41.1504 -1.68262 -61.3906c-3.58984 -18.5596 -10 -36.4492 -19.0098 -53.0693c-9.17969 -17.1201 -21.4199 -32.4102 -36.0996 -45.1201c-28.4004 -23.2998 -62.4004 -38.7598 -98.6201 -44.8496
c-3.03027 -0.650391 -6.03027 -1.2207 -8.98047 -1.75098c-1.36035 -0.230469 -2.70996 -0.460938 -4.08984 -0.670898c-6.48047 -1.05957 -12.7402 -1.87988 -18.6299 -2.45996h-0.0898438c-9.7002 -0.959961 -19.2803 -1.41992 -28.71 -1.41992
c-65.8398 0 -124.03 22.9404 -159.21 63.75c-35.4102 42.9404 -48.0703 100.25 -34.0508 154.11c19.1299 75.5801 75.3604 115.84 136.601 143.46c-8.84961 3.58984 -17.5195 7.32031 -25.8594 11.4102c-27.3398 12.75 -52.1094 30.4102 -73.0693 52.1104
c-17.9502 18.7803 -30.8906 41.7705 -37.6309 66.8701c-5.26953 20.9297 -5.81934 42.7695 -1.61914 63.9395c7.65039 37.9297 28.0605 72.1094 57.8203 96.8291c16.3604 13.9697 34.8701 25.2002 54.8105 33.2705c19.3799 7.88965 39.8604 12.7295 60.71 14.3691
c1.41016 0.120117 2.82031 0.259766 4.23047 0.349609c2.41016 0.129883 4.87988 0.179688 7.33984 0.239258c1.12988 0.0302734 2.25 0.110352 3.38965 0.110352h0.400391c52.8398 0.44043 103.83 -19.4893 142.38 -55.6396
c36.5303 -35.3096 52.2305 -86.9893 41.4902 -136.649c-15.2598 -60.0498 -63.2998 -92.79 -114.439 -115.6c9.58984 -4.26953 18.9199 -8.81934 27.8496 -13.8389c15.4805 -8.65039 30.1104 -18.7402 43.6904 -30.1406c23.25 -19.21 42.7402 -42.5596 57.5 -68.8594
c12.0596 -21.4697 20.0596 -44.9893 23.5791 -69.3594zM131.496 470.96c17.4805 -14.1299 36.9814 -25.5684 57.8516 -33.9385c24.2998 -10.4697 54.8896 -19.3496 91.8496 -33.0996c2.08008 -0.790039 4.12012 -1.62988 6.17969 -2.43945
c52.6699 21.79 104.16 52.5996 119.09 111.399c9.54004 44.6904 -4.69043 91.1309 -37.6309 122.811c-35.8203 33.4902 -83.1602 51.9102 -132.19 51.4404h-0.120117l-2.48047 -0.0703125c-23.6699 -0.330078 -46.96 -6.03027 -68.0996 -16.6807
c-16.9404 -8.50977 -32.0205 -20.29 -44.3906 -34.6504c-20.3496 -23.1104 -31.1992 -53.0703 -30.3789 -83.8506c0.320312 -14.6504 3.62988 -29.0801 9.74023 -42.4004c7.26953 -14.9102 17.71 -28.0605 30.5801 -38.5205zM408.067 110.082
c4.25977 14.3301 6.24023 29.2422 5.83984 44.1826c-1.03027 33.6797 -12.3906 66.2197 -32.5205 93.2295c-13.2695 18.2197 -29.2295 34.2998 -47.3496 47.7002c-23.9502 17.5195 -50.3799 31.3691 -78.4199 41.0889c-17.0801 6.34961 -33.96 12.21 -50.3604 18.3301
c-64.5596 -26.8604 -122.55 -64.1504 -141.64 -139.57c-12.9004 -49.2803 -1.37012 -101.761 30.9795 -141.11c37.1797 -43.0898 102.8 -64.5098 175.62 -57.3799c54.2803 5.42969 93.2705 25.9795 115.271 52.0391c10.3799 12.0703 18.0801 26.21 22.5801 41.4902z" />
    <glyph glyph-name="nine" unicode="9" horiz-adv-x="544" 
d="M488.06 504.23c12.96 -52.9697 17.6318 -107.641 13.832 -162.041c-2.08008 -54.8799 -13.6699 -108.99 -34.25 -159.91c-13.7402 -34.0498 -33.5605 -65.3096 -58.4902 -92.2598c-21.5303 -23.46 -46.6807 -43.3203 -74.5107 -58.8008
c-35.8496 -19.8496 -76.0498 -30.5596 -117.04 -31.1494h-0.280273c-16.1602 0.139648 -32.29 1.69922 -48.1797 4.65918c-14.8896 2.80957 -29.3096 7.67969 -42.8496 14.4697c-14.3799 7 -27.7197 15.96 -39.6299 26.6299c-5.03027 4.5 -0.549805 14.9697 10.4502 22.5
c6.94043 4.82031 14.2207 9.11035 21.791 12.8506c12.1504 5.86035 21.3008 8.20996 22.4307 4.5c7.37988 -22.0596 20.6895 -41.6699 38.4697 -56.6797c10.5898 -8.96973 23.9199 -14.0693 37.7998 -14.4697l2.25 0.139648c37.3604 0.450195 73.5 13.3906 102.64 36.7705
c21.4297 17.7695 39.04 39.6895 51.79 64.4395c14.7803 27.6396 26.0801 57 33.6396 87.4199c12.2402 46.7402 19.5205 94.6406 21.7207 142.9c0.790039 15.0098 1.21973 29.1299 1.38965 42.46c-16.4805 -45.1504 -47.8701 -83.3301 -88.9805 -108.23
c-16.5596 -9.76953 -34.6299 -16.71 -53.4795 -20.5303h-0.150391c-15.7803 -3.13965 -31.8906 -4.34961 -47.9707 -3.60938c-13.2998 0.490234 -26.54 2.14062 -39.5596 4.9502c-22.9199 4.94043 -44.9297 13.4404 -65.2197 25.2002
c-23.8799 14 -44.4102 33.0596 -60.1406 55.8496c-4.42969 6.92969 -9.25 14.29 -13.6104 22.4697c-4.5498 8.73047 -8.51953 17.7607 -11.8799 27.0205c-8.2002 22.1602 -13.0498 45.4199 -14.3896 69.0098c-3.15039 42.1699 5.18945 84.4102 24.1191 122.23
c12.3799 24.4902 29.5898 46.2207 50.5801 63.8809c17.9902 14.8398 38.0801 26.9297 59.6201 35.8701c20.3398 8.70996 41.8496 14.4102 63.8398 16.9404c7.17969 0.959961 14.4199 1.4502 21.6699 1.46973h0.169922c22.4004 -0.230469 44.6904 -3.30078 66.3203 -9.14062
l13.9697 -4.82031c2.26953 -0.799805 4.55957 -1.5 6.75977 -2.34961l6.32031 -2.95996l12.3398 -5.70996c3.96973 -1.99023 7.5498 -4.45996 11.2803 -6.61035c27.5898 -16.8398 51.4297 -39.1494 70.0693 -65.5596c21.29 -30.0996 36.6699 -63.9697 45.3496 -99.7998z
M334.762 292.909c51 29.8799 85.6318 85.1904 95.332 149.21c-0.910156 18.3203 -2.35059 34.8398 -4.13086 49.75c-3.0498 31.1396 -10.1895 61.75 -21.2295 91.0303c-9.5 25.9297 -25.2305 49.1299 -45.8008 67.5498c-2.88965 2.37988 -5.67969 5.11035 -8.88965 7.36035
l-10.1504 6.49023l-5.30957 3.36035c-1.84961 0.969727 -3.85938 1.76953 -5.78906 2.72949l-12.2002 5.54004c-19.5898 6.9502 -40.1895 10.5801 -60.9697 10.75c-0.410156 0 -0.810547 -0.0703125 -1.21094 -0.0703125h-0.379883
c-26.3896 -0.269531 -52 -8.90918 -73.1602 -24.6787c-15.5098 -11.8896 -28.4502 -26.79 -38.0498 -43.8096c-10.4697 -18.6504 -18.6895 -38.4805 -24.4697 -59.0703c-8.91992 -30.4004 -12.4697 -62.1201 -10.4893 -93.7305
c1.03027 -17.5498 3.91992 -34.9297 8.59961 -51.8701c1.59961 -7.66016 4.55957 -14.2998 6.48926 -21c2.38965 -6.48047 5.04004 -12.4209 7.28027 -18.2705c8.4502 -19.5 19.5605 -37.7402 33.001 -54.2002c12.2695 -15.2197 27.6592 -27.6494 45.1191 -36.4492
c10.6396 -5.11035 21.9795 -8.60059 33.6494 -10.3604c10.2998 -1.61035 20.7695 -1.93066 31.1494 -0.970703c4.0498 0.469727 8.08008 1.01953 12.0703 1.7998c0.169922 0.0898438 0.339844 0.0898438 0.530273 0.0898438c17.2695 3.5 33.8291 9.86035 49.0088 18.8203z
" />
    <glyph glyph-name="colon" unicode=":" horiz-adv-x="121" 
d="M60.1846 479.104c-19.9844 0 -36.1846 16.2002 -36.1846 36.1846s16.2002 36.1846 36.1846 36.1846s36.1846 -16.2002 36.1846 -36.1846s-16.2002 -36.1846 -36.1846 -36.1846zM60.1846 134.75c-19.9844 0 -36.1846 16.2002 -36.1846 36.1846
s16.2002 36.1846 36.1846 36.1846s36.1846 -16.2002 36.1846 -36.1846s-16.2002 -36.1846 -36.1846 -36.1846z" />
    <glyph glyph-name="semicolon" unicode=";" horiz-adv-x="125" 
d="M62.1797 479.1c-19.9805 0 -36.1807 16.2002 -36.1807 36.1904c0 19.9805 16.2002 36.1807 36.1807 36.1807s36.1904 -16.2002 36.1904 -36.1807c0 -19.9902 -16.21 -36.1904 -36.1904 -36.1904zM98.25 170.449c0.0302734 -0.599609 2.21191 -63.4893 -55.8281 -77.209
l-3.33984 14.0801c16.8896 3.50977 31.0596 14.9395 38.0693 30.709c-14.6104 -6.66992 -31.8799 -2.88965 -42.3604 9.28027c-10.4902 12.1699 -11.6699 29.7998 -2.91016 43.2598c8.76953 13.46 25.3691 19.5195 40.7393 14.8594s25.8203 -18.9199 25.6299 -34.9795z" />
    <glyph glyph-name="less" unicode="&#x3c;" horiz-adv-x="405" 
d="M134.312 274.24l84.2188 -54.2783l168.428 -108.689l-7.62305 -12.3027l-172.249 102.533l-86.1191 51.2666l-43.0645 25.6377l-21.5273 12.8145l-41.376 25.0879l41.376 25.0879l21.5273 12.8145l43.0645 25.6377l86.1191 51.2666l172.249 102.533l7.62305 -12.3027
l-168.428 -108.68l-147.383 -95.1035l-1.3125 -0.849609c-0.241211 -0.116211 -0.0771484 -0.116211 -0.134766 -0.116211v-0.0869141c-0.0078125 -0.0410156 -0.0078125 -0.0830078 0 -0.124023c0.0292969 -0.106445 0.116211 -0.106445 0.260742 -0.106445
c-0.141602 0 -0.228516 -0.0351562 -0.260742 -0.105469c-0.0078125 -0.0410156 -0.0078125 -0.0830078 0 -0.124023v-0.0869141c0.0576172 -0.0478516 -0.106445 0.0488281 0.134766 -0.115234l1.3125 -0.849609z" />
    <glyph glyph-name="equal" unicode="=" horiz-adv-x="472" 
d="M460.615 227h-449.615v14.4746h449.615v-14.4746zM460.615 433.121h-449.615v14.4746h449.615v-14.4746z" />
    <glyph glyph-name="greater" unicode="&#x3e;" horiz-adv-x="405" 
d="M348.573 341.399l41.3857 -25.1299l-41.376 -25.0879l-21.5273 -12.8145l-43.0645 -25.6377l-86.1191 -51.2666l-172.249 -102.533l-7.62305 12.3027l168.428 108.689l147.383 95.1035l1.3125 0.849609c0.241211 0.116211 0.0771484 0.116211 0.134766 0.116211
v0.0869141c0.00683594 0.0419922 0.00683594 0.0839844 0 0.125977c-0.0322266 0.0703125 -0.119141 0.105469 -0.260742 0.105469c0.144531 0 0.260742 0.0390625 0.260742 0.106445c0.00683594 0.0419922 0.00683594 0.0839844 0 0.125977v0.0869141
c-0.0576172 0.0478516 0.106445 -0.0488281 -0.134766 0.115234l-1.3125 0.849609l-147.383 95.1035l-168.428 108.68l7.62305 12.3027l172.239 -102.562l86.1191 -51.2666l43.0645 -25.6377z" />
    <glyph glyph-name="question" unicode="?" horiz-adv-x="381" 
d="M55.6191 -0.280273c-19.9902 0 -36.1904 16.2002 -36.1904 36.1904c0 19.9805 16.2002 36.1807 36.1904 36.1807c19.9805 0 36.1807 -16.2002 36.1807 -36.1807c0 -19.9902 -16.2002 -36.1904 -36.1807 -36.1904zM358.339 673.479
c0.980469 -8.96973 1.25 -17.998 0.799805 -27.0078c-1.17969 -34.4102 -10.29 -68.1006 -26.6104 -98.4209c-14.5098 -27.4404 -32.9395 -52.6201 -54.6895 -74.75c-42.2998 -43.9805 -92.2002 -80.8906 -153.66 -128.671l-0.450195 -0.339844
c-61.46 -47.8203 -61.46 -95.6504 -61.46 -151.011v-9.49023h-14.4697v9.49023c-0.00976562 56.7002 -0.0195312 110.271 67.0303 162.431h0.0498047c52 38.6797 95.5996 87.5098 128.159 143.54c13.1104 23.0703 23.5107 47.5801 30.9912 73.0303
c7.73047 24.9004 12.0303 50.7402 12.7705 76.7998c0.389648 6.66992 0.389648 13.3604 0 20.0303c-0.0400391 3.2998 -0.0595703 6.58008 -0.0595703 9.83008l-1.12988 9.70996c-0.860352 6.42969 -0.820312 12.9795 -2.08008 19.2393
c-1.25 6.25977 -1.92969 12.7793 -3.37988 18.8896c-4.7998 24.8096 -14.2002 48.5098 -27.7305 69.8496c-15.2803 23.6104 -36.4902 42.8008 -61.5 55.6406c-14.3496 7.50977 -29.5898 13.1895 -45.3496 16.9092c-17.5996 3.95996 -35.5693 6.01953 -53.5996 6.11914
h-0.450195c-25.0801 -0.169922 -49.6904 -6.87012 -71.4004 -19.4199c-18.2998 -10.46 -34.4102 -24.3301 -47.4805 -40.8604c-11.5996 -15.1504 -19.5195 -32.79 -23.1592 -51.5205c-0.629883 -7.00977 -11.4502 -10.4297 -24.96 -9.01953
c-8.41016 0.929688 -16.6699 2.96973 -24.5596 6.06934c-5.57031 1.59961 -10.21 5.46973 -12.79 10.6602c-2.58984 5.19043 -2.87012 11.2207 -0.790039 16.6309c13.1504 24.4697 31.7402 45.5898 54.3203 61.7598c21.1104 14.7002 44.8203 25.2305 69.8701 31.0303
c26.7002 6.13965 54 9.20996 81.3896 9.16992l1.92969 -0.0595703c18.7695 -0.179688 37.5098 -1.5498 56.1094 -4.08008c17.21 -2.58984 34.1699 -6.58984 50.7197 -11.9697c31.3701 -9.91016 60.21 -26.5098 84.5498 -48.6494
c23.7998 -21.8701 42.5596 -48.6602 55 -78.4902c3.30957 -7.44043 5.62988 -15.1602 8.37988 -22.96c2.44043 -8.00977 4.44043 -16.1494 6 -24.3799l2.55957 -12.6299c0.480469 -4.2998 0.790039 -8.68945 1.12988 -13.0996z" />
    <glyph glyph-name="at" unicode="@" horiz-adv-x="828" 
d="M788.312 370.93c3.63965 -44.4004 0.172852 -89.0781 -10.2773 -132.378c-10.7803 -48.4199 -36.0205 -92.4297 -72.3701 -126.189l-0.280273 -0.219727c-17.9805 -15.25 -37.4502 -28.6602 -58.1104 -40.0303c-16.5303 -9.63965 -34.1904 -17.1992 -52.5703 -22.5195
c-10.7598 -2.9502 -21.8896 -4.32031 -33.04 -4.07031c-15.3604 0.209961 -30.3701 4.58984 -43.4297 12.6797c-17.1904 10.8604 -30.1904 27.2305 -36.8701 46.4404c-0.69043 1.76953 -1.24023 3.5791 -1.81055 5.39941
c-10.0303 -9.96973 -21.0205 -18.9297 -32.8105 -26.75c-25.2598 -15.8398 -53.29 -26.7598 -82.6104 -32.1895l-22.6504 -3.28027c-9.2998 -0.700195 -18.6494 -0.330078 -27.8691 1.09961c-21.3701 3.20996 -41.6104 11.7197 -58.8604 24.75
c-21.6104 16.3701 -38.2207 38.4502 -47.9404 63.7598c-11.8203 31.46 -13.9902 65.7295 -6.25977 98.4297c7.07031 30.0195 19.6299 58.4795 37.0498 83.9395c6.62012 10.1504 13.8203 19.9004 21.5801 29.2002c6.82031 8.48047 14.1406 16.54 21.9307 24.1299
c24.5098 24.7998 54.0596 44.0498 86.6494 56.4502c28.0703 10.7197 57.96 15.8799 88 15.2197c8.44043 -0.0703125 16.8604 -0.900391 25.1602 -2.49023c9.61035 -1.63965 18.8008 -5.17969 27.0205 -10.4297c8.41016 -5.45996 15.5205 -12.71 20.8008 -21.2295v0.0703125
c5.58008 25.7803 28.3799 44.1807 54.7598 44.1807h61.9199l-18.9297 -17.4805c-14.5801 -13.4404 -24.6504 -31.0508 -28.8408 -50.4307c-16.9297 -78.2402 -44.8398 -207.17 -49.8799 -229.87c-2.09961 -10.1504 -2.09961 -20.6201 0 -30.7705
c1.11035 -6.2002 3.76074 -12.0205 7.7207 -16.9209c9.73047 -9.37988 22.3408 -15.1895 35.791 -16.5098c15.7402 -2.67969 31.8398 -2.29004 47.4297 1.15039c17.3398 3.88965 33.6797 11.3496 47.9795 21.8994c3.19043 2.41016 6.38086 4.71973 9.49121 7.38965
c33.9404 31.7002 56.8203 73.4502 65.2705 119.11c8.49023 41.5 9.65039 84.1504 3.4502 126.04c-11.8301 79.6396 -44.6904 151.229 -99.8604 191.279c-54.4102 41.6699 -122.83 54.6504 -190.47 49.6104c-71.5303 -6.21973 -140.521 -29.54 -201.16 -68
c-89.3398 -58.2002 -153.38 -148.04 -179.27 -251.48c-3.86035 -16.7002 -6.64062 -33.6406 -8.32031 -50.7109c-2.04004 -17.0195 -1.19043 -34.9092 -1.64062 -52.7188c0.599609 -36.3096 6.19922 -72.3691 16.6396 -107.159
c11.1299 -36.8604 29.1396 -71.29 53.0693 -101.47c26.4697 -32.7305 60.0098 -59.04 98.0898 -76.9697c42.3301 -19.79 88.46 -30.0996 135.19 -30.2197h0.519531c29.1904 0.349609 58.0508 6.33008 84.9707 17.6201c45.6396 19.1504 84.9297 50.8301 113.31 91.3896
c4.94043 7.41992 16.5605 7.57031 28.4707 1.30078c7.61035 -3.75 14.6104 -8.62988 20.75 -14.4697c4.55957 -4.13965 7.21973 -9.96973 7.34961 -16.1201c0.120117 -6.16016 -2.29004 -12.0898 -6.66992 -16.4102c-44.29 -37.9297 -98.3604 -62.6201 -156.03 -71.2598
c-30.6904 -4.32031 -61.6406 -6.51074 -92.6309 -6.57031l-4.9502 0.209961c-48.3301 0.660156 -96.04 10.9902 -140.32 30.3799c-40.75 17.9502 -77.2803 44.25 -107.23 77.1904c-27.7402 31.04 -49.7803 66.7197 -65.1299 105.41
c-14.5801 36.7197 -24.2305 75.21 -28.7002 114.47c-1.49023 19.2998 -4.14062 38.21 -3.79102 57.8896c-0.410156 9.79004 0.660156 19.4805 0.969727 29.2402c0.650391 9.73047 2 19.3906 3.04004 29.1006c5.75977 38.9502 16.75 76.9502 32.6797 112.96
c16.3398 37.3096 37.8994 72.1191 64.0293 103.379c27.6201 33.4199 60.2197 62.3799 96.6602 85.8799c36.4102 23.0703 75.9404 40.8105 117.37 52.6904c39.1504 11.3896 79.6807 17.3193 120.45 17.6094c40.0498 0.320312 79.8799 -6.00977 117.86 -18.7295
c38.2598 -12.8604 73.3701 -33.6699 103.03 -61.0596c14.96 -13.8203 28.2998 -29.3008 39.7598 -46.1406c11.2803 -17.0801 20.7305 -35.3105 28.2002 -54.3604c15.0801 -38.8604 24.2305 -79.7705 27.1709 -121.341zM474.596 136.582
c-0.919922 12.0996 -0.0673828 24.2705 2.52246 36.1201c4.75 21.3301 30.0098 137.99 46.54 214.48c-1.62012 4.82031 -3.83984 9.41016 -6.59961 13.6699c-4.40039 6.88965 -10.5205 12.5195 -17.7607 16.3193c-6.48047 3.37012 -13.6406 5.20996 -20.9502 5.40039
c-7.09961 0.360352 -14.2197 -0.0898438 -21.2197 -1.33984c-25.1797 -4.42969 -48.9395 -14.79 -69.2998 -30.2305c-22.7695 -16.9102 -42.8291 -37.1797 -59.4893 -60.1201c-5.00977 -6.83984 -10.4102 -13.8496 -15.4404 -22.04
c-5.4502 -7.75977 -10.4805 -16.6201 -15.9307 -25.9502c-11.6299 -19.4502 -20.2998 -40.5205 -25.7295 -62.5205c-10.1699 -47.1299 5.57031 -78.5996 24.2207 -98.2695c8.70996 -9.01953 19.2402 -16.0791 30.8799 -20.7295
c5.17969 -2.16992 10.5693 -3.79004 16.0889 -4.82031l19.1504 -2.2002c25.3896 -2.55957 51.0293 0.860352 74.8691 9.99023c14.0098 6.03027 26.8896 14.4307 38.0498 24.8311c0.269531 0.259766 0.539062 0.580078 0.808594 0.849609
c-0.259766 2.16992 -0.519531 4.33984 -0.709961 6.55957z" />
    <glyph glyph-name="A" unicode="A" 
d="M525.342 13.9502l15.1953 -14.0605h-140.2c18.7305 17.3398 24.8809 44.3994 15.4912 68.1299l-97.9004 247.5c-38.8604 -25.8096 -84.71 -39.0791 -131.35 -37.999c-72.8799 1.78027 -104.26 -29.4297 -108.689 -34.25l-38.3096 -96.8799l-0.0996094 -0.290039
c-0.129883 -0.349609 -0.219727 -0.699219 -0.349609 -1.03906c-5.88965 -15.9004 -6.2998 -33.3008 -1.16016 -49.4609c8.80957 -26.79 27.9492 -48.96 53.1797 -61.5703c4.41992 -2.28027 2.36035 -12.0498 -4.75 -23.6299
c-0.959961 -1.55957 -2.09961 -2.95996 -3.06934 -4.45996h0.0595703l0.19043 -0.19043l-3.86035 -5.11035l-1.05957 -1.4502l-3.75977 -4.91992c-0.0996094 0.0898438 -0.0996094 0.0898438 -0.199219 0.0898438l-0.120117 0.0996094
c-1.16992 -1.38965 -2.25977 -2.85938 -3.47949 -4.16895c-8.96973 -9.7998 -20.4697 -12.6895 -25.4697 -6.26953c-25.1201 30.6797 -37.3604 69.9199 -34.1201 109.45c2.15039 20.0195 7.06055 39.6494 14.6006 58.3193v0.0595703l217.2 549.14l257.64 -651.52
c5.34961 -13.5303 13.6895 -25.6699 24.3896 -35.5195zM186.917 292.09c44.7002 -0.94043 88.5811 12.1406 125.471 37.4004l-100.25 253.49l-123.9 -313.22v-0.0800781c30.0996 16.6797 64.3193 24.4492 98.6797 22.4092z" />
    <glyph glyph-name="B" unicode="B" horiz-adv-x="585" 
d="M550.017 251.14c6.82812 -21.6328 10.167 -44.2119 9.88379 -66.8945c0.25 -22.6953 -3.17773 -45.2812 -10.1514 -66.8799c-5.68359 -17.5781 -14.293 -34.0723 -25.4648 -48.7871c-16.5566 -21.4229 -38.4561 -38.1143 -63.501 -48.4004
c-38.4424 -14.291 -71.6748 -18.6719 -126.251 -20.3223h-304.53l3.01074 2.7793c19.7822 18.2666 31.0322 43.9678 31.0322 70.8936v553.867c0 26.9258 -11.25 52.627 -31.0322 70.8936l-3.01074 2.7793h272.822c23.541 -0.238281 46.9727 -3.24414 69.8115 -8.95508
c18.3555 -4.56836 36.1309 -11.2109 52.9834 -19.7998c20.1836 -10.7373 37.7148 -25.8457 51.3154 -44.2227c4.3916 -5.9375 8.37598 -12.166 11.9258 -18.6426c3.87695 -7.41113 7.25195 -15.0742 10.1025 -22.9375c3.1543 -8.95312 5.50781 -18.1689 7.0332 -27.5381
c1.06152 -5.08496 1.70703 -10.248 1.92969 -15.4385c0.154297 -2.67285 0.318359 -5.375 0.472656 -8.14453s0.202148 -5.57715 0.241211 -7.71973s-0.0673828 -4.8252 -0.231445 -7.71973c-0.116211 -2.74707 -0.273438 -5.46191 -0.472656 -8.14453
s-0.395508 -5.31055 -0.588867 -7.88379c-0.4375 -2.56641 -0.87207 -5.09473 -1.30273 -7.58398c-0.974609 -4.9502 -1.60156 -9.81348 -2.95215 -14.3682l-4.0625 -13.1904c-2.84082 -7.87012 -6.20996 -15.5391 -10.084 -22.9551
c-3.55762 -6.47559 -7.54199 -12.707 -11.9268 -18.6523c-13.6045 -18.3877 -31.1553 -33.4951 -51.3623 -44.2129c-13.6328 -6.98047 -27.918 -12.6074 -42.6494 -16.7998c3.57031 -0.607422 7.12109 -1.26367 10.6143 -2.08398
c1.26367 -0.164062 2.54688 -0.318359 3.79199 -0.492188c21.5928 -2.67188 42.8008 -7.85352 63.1934 -15.4395c25.2236 -9.94043 47.3193 -26.4648 63.9844 -47.8506c5.16992 -7.0791 9.89746 -14.4717 14.1553 -22.1348
c4.5498 -8.6543 8.32129 -17.6963 11.2705 -27.0186zM136.424 686.701l-0.00390625 -317.925h166.498l1.18652 0.0576172c21.1875 0.0351562 41.9863 5.69629 60.2695 16.4043c13.1738 8.38672 24.7207 19.0898 34.0811 31.5918
c9.81934 13.2363 17.958 27.6406 24.2295 42.8818c2.11328 4.15918 3.19434 9.05176 5.19141 13.7412c1.37988 4.97852 3.04883 10.0635 4.27441 15.5928c0.569336 2.7793 1.09082 5.64551 1.75684 8.56934s0.705078 6.0498 1.19727 9.17578
c0.21875 1.60156 0.44043 3.20996 0.666016 4.82422c0.0390625 1.64062 0.0585938 3.2998 0.125977 4.98828s0.0966797 3.49316 0.212891 5.13379s0.135742 3.46387 0.174805 5.98242s-0.115234 4.19727 -0.182617 5.93457s-0.144531 3.44531 -0.211914 5.13379
c0.0253906 3.27539 -0.242188 6.54688 -0.800781 9.77441c-0.62793 5.97266 -1.61719 11.9014 -2.96289 17.7539c-1.27344 5.5293 -2.875 10.6816 -4.3125 15.6123c-1.99707 4.68945 -3.05859 9.61035 -5.20117 13.7598c-6.30371 15.2812 -14.4746 29.7236 -24.3262 42.9971
c-9.44434 12.585 -21.1133 23.335 -34.4287 31.7178c-18.5137 10.7998 -39.5889 16.4287 -61.0225 16.2979h-166.411zM482.635 137.001c3.44434 15.5586 5.08887 31.4521 4.90137 47.3867c0.0390625 5.58691 -0.395508 9.23438 -0.472656 13.7402
c0.0283203 4.11133 -0.239258 8.21973 -0.800781 12.293c-0.453125 3.88867 -0.800781 7.71973 -1.32227 11.3281s-1.52539 6.89844 -2.13281 10.2471c-1.29102 6.18945 -2.96387 12.293 -5.00781 18.2764c-1.95898 5.56738 -4.39062 10.5371 -6.32031 15.5449
c-8.28613 16.9873 -19.6113 32.3154 -33.415 45.2266c-13.6611 12.5996 -29.4336 22.6953 -46.5957 29.8262c-23.7803 9.33691 -49.1592 13.9258 -74.7041 13.5088h-180.335v-339.809h181.869c62.8359 1.20605 94.1963 19.752 119.883 42.833
c13.5049 13.1514 24.6074 28.5615 32.8066 45.5352c5.15625 10.8779 9.06348 22.3047 11.6465 34.0625z" />
    <glyph glyph-name="C" unicode="C" horiz-adv-x="618" 
d="M599.897 140.55l13.0615 -6.28223l-3.13965 -6.50977c-0.610352 -1.25977 -62.1006 -124.2 -236.841 -127.561v-0.120117h-5.50977h-8.95996v0.179688c-9.46973 0.230469 -18.9199 0.950195 -28.3203 2.14062c-32.3398 3.78027 -63.9902 12.0205 -94.0605 24.501
c-32.0996 13.0801 -62.0293 30.9404 -88.7793 52.9902c-31.5098 25.4502 -57.7695 56.7803 -77.3398 92.2402c-60.0098 111.42 -60.0098 245.54 0 356.96c19.5596 35.46 45.8291 66.79 77.3389 92.2402c26.75 22.04 56.6797 39.9102 88.7793 52.9902
c30.0898 12.4805 61.7695 20.7305 94.1191 24.5107c11.7002 1.51953 23.4805 2.28906 35.2705 2.31934h7.4502v-0.0595703c20.8896 0.0996094 41.7598 -1.08008 62.5 -3.54004c44.2402 -5.59961 85.9199 -23.8496 120.05 -52.5596
c6.99023 -5.7998 4.82031 -17.9902 -4.83008 -27.29c-6.08008 -5.87988 -12.7998 -11.0596 -20.0303 -15.4395c-11.5596 -6.94043 -22.3193 -8 -25.5889 -2.33008c-18.0703 31.0498 -44.8398 56.1299 -77 72.1494c-19.3496 9.62988 -40.6699 14.6396 -62.29 14.6094
h-0.150391l-2.37988 -0.150391c-41.4697 -0.459961 -82.04 -12.1104 -117.44 -33.7207c-26.3203 -16.3096 -49.3301 -37.4297 -67.8301 -62.2598c-21.1104 -27.1797 -38.3008 -57.1992 -51.0508 -89.1797c-39.4502 -96.6504 -39.4502 -204.91 0 -301.561
c12.7803 -32.0596 30.0303 -62.1396 51.2402 -89.3701c18.6904 -24.9697 41.9404 -46.1895 68.5107 -62.5293c35.9297 -21.6699 77.0498 -33.2002 119.01 -33.3701h1.74023c169.57 0.820312 228.73 118.311 229.311 119.511z" />
    <glyph glyph-name="D" unicode="D" horiz-adv-x="675" 
d="M632.258 462.565l0.0478516 -0.104492c25.0215 -72.5469 25.0215 -151.385 0 -223.932c-24.6416 -69.6973 -71.5938 -129.314 -133.574 -169.605c-61.626 -38.3896 -131.567 -61.4248 -203.945 -67.1689c-12.1582 -1.20898 -24.4707 -1.81348 -36.9375 -1.81348h-227.848
l2.89453 2.66309c19.7822 18.2666 31.0322 43.9678 31.0322 70.8936v554.07c0 26.9258 -11.25 52.627 -31.0322 70.8936l-2.89453 2.66309h227.529c13.3799 -0.0195312 26.75 -0.744141 40.0537 -2.1709c34.5068 -3.09961 68.5703 -9.97559 101.578 -20.5049
c35.0127 -11.4727 68.5225 -27.1035 99.8115 -46.5576c36.4658 -23.8008 67.9834 -54.4307 92.8154 -90.2021c16.874 -24.502 30.4785 -51.1016 40.4688 -79.124zM565.678 260c24.2021 83.252 14.2197 172.7 -27.8184 248.525
c-17.6689 32.8926 -39.96 63.083 -66.1943 89.6514c-24.248 23.7422 -52.0176 43.5967 -82.3271 58.8604c-41.1338 19.6406 -86.1582 29.7783 -131.74 29.6621h-121.349v-672.196h121.311c45.582 -0.116211 90.6064 10.0215 131.74 29.6621
c30.3066 15.2637 58.0732 35.1182 82.3174 58.8604c26.2354 26.5674 48.5264 56.7578 66.1934 89.6514c11.4834 21.4688 20.8174 44.0195 27.8672 67.3232z" />
    <glyph glyph-name="E" unicode="E" horiz-adv-x="501" 
d="M387.97 14.5312c26.9023 0.0107422 52.5801 11.252 70.8359 31.0117l29.4404 31.8418v-77.2891l-458.245 -0.0966797l2.82715 2.60547c19.7881 18.2666 31.042 43.9717 31.042 70.9014v554.177c0 26.9297 -11.2539 52.6348 -31.042 70.9014l-2.82715 2.60547h458.148
v-77.3857l-29.4307 31.8418c-18.2666 19.7822 -43.9678 31.0322 -70.8936 31.0322h-251.576v-328.861h107.416c26.9258 0 52.627 11.25 70.8936 31.0322l29.459 31.9092v-140.221l-29.3242 31.7646c-18.2666 19.7822 -43.9678 31.0322 -70.8936 31.0322h-107.551v-328.803
h251.721z" />
    <glyph glyph-name="F" unicode="F" horiz-adv-x="492" 
d="M30 701.152l463.196 0.0371094v-77.3857l-29.4307 31.8418c-18.2666 19.7822 -43.9678 31.0322 -70.8936 31.0322h-256.671v-328.87h107.367c26.9307 0 52.6357 11.2539 70.9023 31.042l29.459 31.9092v-140.221l-29.3242 31.7549
c-18.2646 19.7852 -43.9658 31.0391 -70.8926 31.041h-107.474v-269.702c0 -26.9248 11.25 -52.625 31.0322 -70.8906l2.97168 -2.74023h-140.214l2.80762 2.58594c19.7822 18.2656 31.0322 43.9658 31.0322 70.8906v554.168c0 26.9297 -11.2539 52.6348 -31.042 70.9014z
" />
    <glyph glyph-name="G" unicode="G" horiz-adv-x="673" 
d="M495.645 350.583l163.315 -0.0410156l-2.89453 -2.66309c-19.7822 -18.2666 -31.0322 -43.9678 -31.0322 -70.8936v-276.988c-38.5742 32.7441 -92.1523 41.3301 -139.027 22.2793c-35.9883 -14.2754 -74.3076 -21.7666 -113.022 -22.0967v-0.125h-5.50977h-8.96484
v0.183594c-9.4707 0.233398 -18.9229 0.948242 -28.3203 2.14258c-32.3359 3.77832 -63.9912 12.0234 -94.0615 24.5c-32.0967 13.0781 -62.0273 30.9414 -88.7734 52.9834c-31.5117 25.4521 -57.7812 56.7803 -77.3496 92.2461
c-60.0049 111.419 -60.0049 245.533 0 356.952c19.5703 35.4648 45.8389 66.793 77.3486 92.2461c26.7471 22.041 56.6777 39.9043 88.7734 52.9834c30.0908 12.4854 61.7695 20.7334 94.1289 24.5078c11.6924 1.51855 23.4688 2.29492 35.2588 2.3252h7.44922v-0.0576172
c20.8857 0.0947266 41.7578 -1.08789 62.499 -3.54102c44.2393 -5.60547 85.9219 -23.8545 120.048 -52.5586c6.99609 -5.80859 4.8252 -17.9951 -4.82422 -27.2969c-6.07715 -5.88184 -12.7969 -11.0605 -20.0322 -15.4385
c-11.5596 -6.9375 -22.3184 -7.99902 -25.5898 -2.3252c-18.0732 31.0498 -44.8408 56.1299 -77.001 72.1465c-19.3477 9.63477 -40.6719 14.6357 -62.2861 14.6084h-0.173828l-2.38379 -0.144531c-41.4658 -0.466797 -82.0371 -12.1182 -117.432 -33.7246
c-26.3213 -16.3066 -49.334 -37.4268 -67.834 -62.2559c-21.1104 -27.1885 -38.2969 -57.208 -51.0557 -89.1777c-39.4375 -96.6533 -39.4375 -204.911 0 -301.564c12.7852 -32.0537 30.0381 -62.1387 51.2471 -89.3613c18.6924 -24.9756 41.9375 -46.1934 68.5107 -62.5352
c35.9248 -21.6689 77.0498 -33.2002 119.004 -33.3672h1.74609c90.6074 0.43457 149.719 34.1875 185.17 65.7207v157.532c0.00976562 44.5059 -21.1201 86.3711 -56.9307 112.799z" />
    <glyph glyph-name="H" unicode="H" horiz-adv-x="621" 
d="M556.665 73.5742c0 -26.9307 11.2529 -52.6348 31.041 -70.9014l2.89453 -2.66309h-140.213l2.89453 2.66309c19.7822 18.2666 31.0322 43.9678 31.0322 70.8936v301.964c-40.4307 -54.9795 -106.28 -85.3203 -174.343 -80.3301
c-70.4805 5.58105 -137.948 -29.6221 -173.687 -90.625v-130.998c0 -26.9258 11.25 -52.627 31.0322 -70.8936l2.89453 -2.66309h-140.213l2.89453 2.66309c19.7881 18.2666 31.042 43.9717 31.042 70.9023v554.07c-0.00195312 26.9268 -11.2559 52.6279 -31.041 70.8926
l-2.89453 2.66309h140.203l-2.89453 -2.66309c-19.7822 -18.2666 -31.0322 -43.9678 -31.0322 -70.8936v-398.321c40.415 54.9922 106.271 85.334 174.333 80.3203c70.5127 -4.92969 137.756 30.4102 173.687 91.2812v226.709c0 26.9258 -11.25 52.627 -31.0322 70.8936
l-2.89453 2.66309h140.223l-2.89453 -2.66309c-19.7822 -18.2666 -31.0322 -43.9678 -31.0322 -70.8936v-554.07z" />
    <glyph glyph-name="I" unicode="I" horiz-adv-x="201" 
d="M136.286 73.5742c0 -26.9258 11.25 -52.627 31.0322 -70.8936l2.89453 -2.66309h-140.213l2.89453 2.66309c19.7822 18.2666 31.0322 43.9678 31.0322 70.8936v554.07c0 26.9258 -11.25 52.627 -31.0322 70.8936l-2.89453 2.66309h140.213l-2.89453 -2.66309
c-19.7822 -18.2666 -31.0322 -43.9678 -31.0322 -70.8936v-554.07z" />
    <glyph glyph-name="J" unicode="J" horiz-adv-x="369" 
d="M201.569 701.21l140.271 0.000976562l-2.90039 -2.66992c-19.7803 -18.2695 -31.0303 -43.9697 -31.0303 -70.8994v-468.85c0.55957 -29.7305 -5.77051 -59.1807 -18.501 -86.0605c-9.12012 -18.6104 -22.8301 -34.5908 -39.8398 -46.4404
c-14.3604 -9.67969 -30.3906 -16.6299 -47.2803 -20.4902c-20.0703 -4.50977 -40.6299 -6.45996 -61.1895 -5.79004h-0.360352c-22.1299 -0.610352 -44.1299 3.66992 -64.4102 12.54c-19.6797 8.67969 -36.5801 22.6201 -48.8496 40.29
c-12.4004 17.9902 -21.3105 38.1504 -26.2607 59.4404c-1.75 8.21973 7.13965 16.0098 20.4492 17.3701c8.40039 0.889648 16.8809 0.919922 25.3008 0.0800781c13.4199 -1.40039 22.8398 -6.31055 21.6895 -12.1006c-2.38965 -14.4902 -2.08008 -29.2998 0.910156 -43.6797
c3.21973 -14.8096 10.5801 -28.4092 21.2305 -39.1895c13.2402 -13.4102 31.4307 -20.7402 50.2705 -20.2705c18.3398 -1.0498 36.5596 3.50977 52.2598 13.0596c10.71 7.13965 19.2803 17.0596 24.7803 28.6992c5.73047 12.2598 9.74023 25.25 11.9199 38.5996
c3.69043 21.1201 5.52051 42.5205 5.4707 63.9609v468.84c0 26.9297 -11.25 52.6299 -31.04 70.8994z" />
    <glyph glyph-name="K" unicode="K" horiz-adv-x="633" 
d="M644.76 0.00976562l-140.189 0.0498047c4.09961 13.8096 1.21973 28.7598 -7.7207 40.0693l-250.65 316.76l-109.91 -129.3v-154.02c0 -26.9199 11.25 -52.6201 31.0303 -70.8896l2.88965 -2.66016h-140.21l2.88965 2.66016
c19.79 18.2695 31.0498 43.9697 31.0498 70.8994v554.07c-0.00976562 26.9297 -11.2598 52.6299 -31.0498 70.8994l-2.88965 2.66016h140.21l-2.88965 -2.66016c-19.7803 -18.2695 -31.0303 -43.9697 -31.0303 -70.8994v-377.72l285.61 335.9
c28.2305 33.2002 28.5 81.8799 0.639648 115.38h140.21l-48.1201 -36.0596c-11.4902 -8.61035 -21.9902 -18.4805 -31.2998 -29.4209l-189.37 -222.68l284.35 -359.33c16.4404 -20.7803 36.9805 -37.9502 60.3408 -50.4404z" />
    <glyph glyph-name="L" unicode="L" horiz-adv-x="610" 
d="M610.885 77.415l0.000976562 -77.4062h-580.885l3.03906 2.80762c19.7822 18.2666 31.0322 43.9678 31.0322 70.8936v553.8c0 26.9258 -11.25 52.627 -31.0322 70.8936l-3.03906 2.80762h140.213l-2.74023 -2.52832
c-19.7822 -18.2666 -31.0322 -43.9678 -31.0322 -70.8936v-613.259h374.159c26.9307 0 52.6357 11.2539 70.9023 31.042z" />
    <glyph glyph-name="M" unicode="M" horiz-adv-x="797" 
d="M733.035 73.5742c-0.0107422 -26.9443 11.2412 -52.667 31.0391 -70.9434l2.89453 -2.66309h-140.223l2.89453 2.66309c19.7822 18.2666 31.0322 43.9678 31.0322 70.8936v560.873l-282.028 -634.169l-285.299 641.521v-563.584
c-0.00195312 -28.4453 12.5469 -55.4424 34.2939 -73.7783l5.20117 -4.38086h-93.4814l5.21094 4.39062c21.751 18.334 34.3037 45.3311 34.3037 73.7783v522.739c0 26.9258 -11.25 52.627 -31.0322 70.8936l-31.8428 29.3916h130.12l264.206 -594.076l264.206 594.076
h92.4395l-2.89453 -2.66309c-19.7852 -18.2646 -31.0391 -43.9658 -31.041 -70.8926v-554.07z" />
    <glyph glyph-name="N" unicode="N" horiz-adv-x="627" 
d="M507.645 702.34l93.4824 0.00976562l-5.20117 -4.39062c-21.751 -18.334 -34.3037 -45.3311 -34.3037 -73.7783v-623.883l-479.182 665.751l-0.462891 -0.260742v-587.64c0 -28.4473 12.5527 -55.4443 34.3037 -73.7783l5.20117 -4.38086h-93.4814l5.21094 4.39062
c21.7471 18.3359 34.2959 45.333 34.2939 73.7783v544.874c0.00195312 28.4453 -12.5469 55.4424 -34.2939 73.7783l-5.21094 4.39062h118.3l400.849 -556.917v479.896c0 28.4473 -12.5527 55.4443 -34.3037 73.7783z" />
    <glyph glyph-name="O" unicode="O" horiz-adv-x="704" 
d="M637.157 526.32c55.5596 -110.15 55.5498 -240.109 -0.00976562 -350.26c-18.3301 -35.1797 -43.0801 -66.6299 -72.96 -92.7197c-12.5801 -11.0195 -25.9004 -21.1699 -39.8506 -30.4004l-21.9199 -12.75c-7.25 -4.51953 -15.6699 -7.58984 -23.7197 -11.6602
c-29.04 -13.1299 -59.8701 -21.8799 -91.4805 -25.9502c-11.6299 -1.65039 -23.3701 -2.51074 -35.1299 -2.54102h-0.360352c-11.7598 0.0302734 -23.5 0.879883 -35.1504 2.54004c-31.5996 4.07031 -62.4297 12.8105 -91.46 25.9404
c-8.0498 4.08008 -16.46 7.13965 -23.7197 11.6592l-21.9199 12.75c-13.96 9.23047 -27.2695 19.3809 -39.8594 30.4004c-29.8701 26.0898 -54.6201 57.54 -72.9404 92.7197c-55.5703 110.14 -55.5703 240.12 0 350.271c18.3301 35.1797 43.0703 66.6299 72.9502 92.7197
c12.5898 11.0098 25.8994 21.1699 39.8594 30.3896l21.9199 12.7598c7.25 4.50977 15.6699 7.58008 23.7197 11.6602c29.0303 13.1299 59.8604 21.8701 91.46 25.9297c11.6504 1.66016 23.3906 2.50977 35.1504 2.5498h0.360352
c11.7598 -0.0400391 23.5 -0.889648 35.1396 -2.5498c31.6104 -4.05957 62.4307 -12.7998 91.4707 -25.9297c8.0498 -4.08984 16.46 -7.14941 23.7197 -11.6592l21.9199 -12.7598c13.9502 -9.21973 27.2705 -19.3799 39.8506 -30.3896
c29.8799 -26.0898 54.6299 -57.54 72.96 -92.7197zM579.487 202.221c35.9805 96.0703 35.9814 201.91 0.000976562 297.99c-11.71 31.75 -27.5801 61.8203 -47.1904 89.4102c-8.61035 12.0596 -18.0908 23.4893 -28.3604 34.1689l-16.9902 15.21
c-6.19043 5.11035 -12.6807 9.85059 -19.4404 14.1904c-34.3701 22.3799 -74.4404 34.4199 -115.45 34.6797h-0.219727l-2.33008 -0.150391c-40.5703 -0.540039 -80.1299 -12.71 -114 -35.0498l-9.98047 -6.88965l-4.82031 -3.37988l-4.40039 -3.86035l-16.8203 -15.0996
c-10.1699 -10.6602 -19.5596 -22.0303 -28.0996 -34.04c-19.5195 -27.5498 -35.3193 -57.5498 -47.0098 -89.2197c-35.9805 -96.0703 -35.9805 -201.92 0 -297.99c11.71 -31.7598 27.5801 -61.8193 47.1904 -89.4092c8.61035 -12.0703 18.0908 -23.4902 28.3604 -34.1807
l16.9902 -15.21c6.19043 -5.11035 12.6904 -9.85059 19.4502 -14.1807c34.3604 -22.3896 74.4307 -34.4199 115.44 -34.6797h0.219727l2.33008 0.150391c40.5703 0.540039 80.1299 12.7002 114 35.04l9.96973 6.90039l4.83008 3.37988l4.40039 3.86035l16.8203 15.0996
c10.1602 10.6602 19.5498 22.0303 28.0898 34.0303c19.5195 27.5498 35.3291 57.5498 47.0195 89.2295z" />
    <glyph glyph-name="P" unicode="P" horiz-adv-x="579" 
d="M563.825 500.709c0.22168 -3.55078 0.280273 -7.17383 0.347656 -9.93359s-0.134766 -6.37793 -0.34668 -9.92871c-0.21875 -3.49902 -0.4375 -6.94727 -0.65625 -10.3438c-0.376953 -6.59082 -1.29688 -13.1387 -2.75 -19.5781
c-2.26172 -11.8076 -5.54883 -23.3955 -9.82324 -34.6318c-7.47363 -18.3848 -17.7178 -35.5176 -30.376 -50.8027c-18.2451 -21.8779 -40.9424 -39.6182 -66.5801 -52.0381c-21.4375 -10.1016 -43.9561 -17.7285 -67.1201 -22.7334
c-29.1357 -6.78516 -58.9453 -10.252 -88.8604 -10.334h-161.384v-206.86c0.00195312 -26.9268 11.2559 -52.6279 31.041 -70.8926l2.89453 -2.66309h-140.213l2.89453 2.67285c19.7822 18.2666 31.0322 43.9678 31.0322 70.8936v554.07
c0 26.9258 -11.25 52.627 -31.0322 70.8936l-2.89453 2.67285h267.67c29.915 -0.0820312 59.7246 -3.54883 88.8604 -10.334c23.1611 -5.00488 45.6768 -12.6318 67.1113 -22.7334c25.6387 -12.4189 48.3359 -30.1592 66.5801 -52.0381
c12.6553 -15.2861 22.8955 -32.4189 30.3662 -50.8037c4.27832 -11.2354 7.56543 -22.8232 9.82324 -34.6318c1.45801 -6.43848 2.38086 -12.9873 2.75879 -19.5781c0.21875 -3.39648 0.4375 -6.84473 0.65625 -10.3438zM491.534 483.017
c0.144531 2.24805 0.223633 4.61328 0.291016 7.80762s-0.116211 5.46191 -0.270508 7.71973c-0.109375 2.30957 -0.22168 4.58008 -0.337891 6.8125c-0.0898438 4.34668 -0.564453 8.67676 -1.41797 12.9395c-1.18066 7.91016 -2.84375 15.7402 -4.97949 23.4473
c-4.16699 13.1709 -9.66309 25.8838 -16.4043 37.9414c-10.7656 19.2676 -24.0723 37.001 -39.5615 52.7236c-14.5391 14.7871 -31.4619 27.0225 -50.0605 36.1943c-25.3154 12.1924 -53.1016 18.3838 -81.1982 18.0928h-161.384v-391.876h161.384l1.66895 0.0771484
c27.7705 -0.138672 55.2031 6.09668 80.1855 18.2266c18.4004 9.21191 35.1465 21.4102 49.5586 36.0977c15.4043 15.7178 28.6436 33.4189 39.3682 52.6367c6.73828 12.0557 12.2344 24.7646 16.4033 37.9316c2.13086 7.70801 3.79004 15.5381 4.96973 23.4473
c0.865234 4.27148 1.34961 8.61133 1.44727 12.9688c0.109375 2.23828 0.22168 4.50879 0.337891 6.81152z" />
    <glyph glyph-name="Q" unicode="Q" horiz-adv-x="704" 
d="M636.918 525.23l-0.0595703 0.0214844c55.54 -110.1 55.54 -240.01 0 -350.109c-18.3203 -35.1602 -43.0605 -66.6006 -72.9209 -92.6807c-12.5898 -11.0098 -25.8994 -21.1602 -39.8496 -30.3799l-21.9102 -12.7598c-7.25 -4.51953 -15.6602 -7.5791 -23.71 -11.6494
c-28.9902 -13.1104 -59.7705 -21.8408 -91.3301 -25.9209c-9.17969 -1.28027 -18.4199 -2.06055 -27.6895 -2.33008c1.61035 -28.2803 16.71 -54.0605 40.5898 -69.3008c22.6396 -13.7402 48.1094 -22.1699 74.4795 -24.6504
c13.3496 -1.62012 26.7793 -2.48047 40.2295 -2.59082c13.7998 0.700195 27.0996 0.259766 40.9297 2.0293c10.6396 1.03027 20.1992 -8.42969 22.4297 -21.8496c1.38965 -8.37988 1.38965 -16.9199 0 -25.2998c-1.37012 -12.5703 -12.6104 -21.6904 -25.1904 -20.4502
c-15.0996 1.73047 -30.4697 5.79004 -45.4502 8.69043c-15.1797 3.76953 -30.1299 8.41992 -44.7695 13.9199c-30.1396 10.4404 -57.5098 27.6006 -80.04 50.1807c-23.21 24.0498 -36.6699 55.8701 -37.7803 89.2803c-9.54004 0.25 -19.0498 1.04004 -28.5 2.36035
c-31.5596 4.05957 -62.3398 12.7998 -91.3398 25.9102c-8.0498 4.08008 -16.46 7.12988 -23.71 11.6494l-21.9199 12.7598c-13.9404 9.20996 -27.25 19.3604 -39.8301 30.3701c-29.8701 26.0801 -54.6104 57.5205 -72.9307 92.6807
c-55.5303 110.1 -55.5303 240.01 0 350.109c18.3301 35.1602 43.0605 66.6006 72.9307 92.6807c12.5801 11.0098 25.8896 21.1602 39.8398 30.3799l21.9199 12.7598c7.24023 4.51953 15.6602 7.5791 23.7002 11.6494c29.04 13.1299 59.8604 21.8604 91.46 25.9199
c11.6299 1.66016 23.3604 2.50977 35.1006 2.5498h0.360352c11.75 -0.0302734 23.4902 -0.890625 35.1201 -2.55078c31.5996 -4.05957 62.4199 -12.79 91.4502 -25.9199c8.05957 -4.07031 16.46 -7.12988 23.7197 -11.6494l21.9102 -12.7598
c13.9502 -9.20996 27.2598 -19.3604 39.8301 -30.3701c29.8799 -26.0801 54.6104 -57.5098 72.9307 -92.6797zM579.248 201.271c35.9502 96.0303 35.9473 201.821 -0.00292969 297.852c-11.71 31.7402 -27.5703 61.79 -47.1699 89.3701
c-8.59961 12.0596 -18.0693 23.4697 -28.3389 34.1602l-16.9805 15.1904c-6.19043 5.12012 -12.6807 9.85059 -19.4307 14.1904c-34.3496 22.3799 -74.3994 34.4102 -115.399 34.6699h-0.219727l-2.33008 -0.150391c-40.5498 -0.540039 -80.0898 -12.7002 -113.939 -35.0205
l-9.96973 -6.88965l-4.83008 -3.37988l-4.40039 -3.86035l-16.7998 -15.0996c-10.1699 -10.6602 -19.5498 -22.0303 -28.0898 -34.0205c-19.5098 -27.54 -35.3096 -57.5303 -46.9893 -89.1904c-35.9502 -96.0303 -35.9502 -201.82 0 -297.851
c11.71 -31.7402 27.5703 -61.79 47.1699 -89.3701c8.61035 -12.0596 18.0801 -23.4697 28.3398 -34.1602l16.9805 -15.1904c6.19043 -5.12012 12.6807 -9.85059 19.4404 -14.1904c34.3701 -22.4004 74.4697 -34.4404 115.5 -34.6807l2.44043 0.160156
c40.5498 0.540039 80.0898 12.7002 113.95 35.0205l9.95996 6.88965l4.83008 3.37988l4.40039 3.86035l16.8096 15.0996c10.1602 10.6602 19.5498 22.0303 28.0898 34.0205c19.5 27.54 35.2998 57.5303 46.9795 89.1904z" />
    <glyph glyph-name="R" unicode="R" horiz-adv-x="605" 
d="M687.779 -53.96l-0.0361328 -14.4795h-1.52441c-59.9414 -0.839844 -98.9336 0.125 -137.02 28.1074c-20.1768 16.5283 -35.3936 38.3105 -43.9707 62.9424c-10.6318 31.6748 -18.8984 64.0957 -24.7314 96.9941c-1.10645 4.47754 -2.18359 8.8291 -3.23242 13.0557
l-3.42578 11.5791c-2.53809 7.19824 -5.29785 13.5283 -7.43066 19.9258c-2.64355 6.0498 -5.79883 11.3379 -8.21094 16.79c-2.55664 5.35547 -6.0791 9.63965 -8.68457 14.3584c-2.6582 4.39355 -5.63477 8.58594 -8.90625 12.5439
c-2.67969 3.95215 -5.68457 7.67383 -8.9834 11.126c-3.13574 3.34863 -6.00195 6.90918 -9.06055 10.1035l-9.54297 8.94531c-13.2334 12.1631 -28.334 22.1221 -44.7246 29.4971c-22.1445 9.81348 -46.0645 14.9893 -70.2852 15.207h-161.722v-209.244
c0 -26.9258 11.25 -52.627 31.0322 -70.8936l2.89453 -2.66309h-140.213l2.89453 2.66309c19.7822 18.2666 31.0322 43.9678 31.0322 70.8936v554.07c0 26.9258 -11.25 52.627 -31.0322 70.8936l-2.89453 2.66309h268.992
c29.751 -0.0800781 59.3975 -3.51758 88.377 -10.2471c23.041 -4.9668 45.4424 -12.5391 66.7725 -22.5703c25.5342 -12.3291 48.1436 -29.9648 66.3184 -51.7295c12.6016 -15.2051 22.7998 -32.25 30.2412 -50.542c4.25488 -11.1797 7.52539 -22.709 9.77539 -34.457
c1.4502 -6.41016 2.36719 -12.9297 2.74121 -19.4912c0.22168 -3.38672 0.433594 -6.77344 0.655273 -10.2949c0.22168 -3.52246 0.289062 -7.14062 0.34668 -9.87109s-0.135742 -6.33887 -0.347656 -9.87012c-0.21875 -3.48633 -0.4375 -6.91797 -0.65625 -10.2949
c-0.374023 -6.56152 -1.29102 -13.0811 -2.74121 -19.4912c-2.25 -11.748 -5.52051 -23.2773 -9.77539 -34.457c-7.43848 -18.2969 -17.6367 -35.3457 -30.2402 -50.5527c-18.1748 -21.7646 -40.7842 -39.4004 -66.3184 -51.7295
c-21.3291 -10.0322 -43.7305 -17.6045 -66.7725 -22.5703c-4.23633 -0.984375 -8.63672 -1.90137 -13.1143 -2.78906l0.607422 -0.0869141c20.3623 -2.85547 40.3984 -7.68652 59.8252 -14.4248l15.1299 -6.05957c5.03711 -2.40234 10.0742 -5.33594 15.4395 -8.30762
c5.67285 -3.07227 11.04 -6.67773 16.0283 -10.7686c5.88184 -4.16992 11.3721 -8.86621 16.4033 -14.0303c5.76855 -5.66895 11.167 -11.7021 16.1621 -18.0635c4.81543 -7.03418 10.335 -14.4355 15.0439 -22.8398c4.13965 -8.59766 8.81934 -17.8613 12.7471 -27.8096
c1.65918 -4.99219 3.37012 -10.1387 5.13281 -15.4395l4.20703 -16.1436c5.05664 -21.9902 7.51758 -40.333 9.65039 -56.1484c2.09375 -15.6318 3.67578 -28.8125 5.50879 -39.9668c1.88184 -17.7109 6.93457 -34.9395 14.917 -50.8613
c8.2959 -14.2168 20.8867 -25.4365 35.9619 -32.0449c4.46875 -2.06543 9.04199 -3.89453 13.7021 -5.48047c5.39258 -1.41113 10.873 -2.46191 16.4043 -3.14551c13.4834 -1.70312 27.0625 -2.53809 40.6523 -2.5zM300.702 297.268
c27.6133 -0.126953 54.8682 6.09375 79.6934 18.1865c18.2773 9.1709 34.9072 21.3105 49.2109 35.9248c15.2842 15.6357 28.4199 33.2363 39.0605 52.3379c6.67188 11.9639 12.1162 24.5723 16.249 37.6328c2.11426 7.65039 3.76074 15.4229 4.93066 23.2734
c0.847656 4.23145 1.31934 8.5293 1.40918 12.8438c0.116211 2.21973 0.193359 4.50684 0.337891 6.75488s0.202148 4.48633 0.269531 7.71875s-0.125977 5.48047 -0.270508 7.71875c-0.109375 2.2832 -0.22168 4.53516 -0.337891 6.75488
c-0.0898438 4.31445 -0.561523 8.6123 -1.40918 12.8438c-1.16797 7.85156 -2.81445 15.624 -4.93066 23.2744c-4.12891 13.082 -9.57617 25.71 -16.2588 37.6895c-10.665 19.1494 -23.8506 36.7812 -39.2041 52.4248c-14.4307 14.7158 -31.2363 26.8965 -49.7129 36.0303
c-25.1562 12.1387 -52.7754 18.3037 -80.7061 18.0156h-162.696v-389.502h162.696z" />
    <glyph glyph-name="S" unicode="S" horiz-adv-x="497" 
d="M471.45 191.86l-0.0361328 0.0810547c7.48047 -65.2197 -26.1592 -128.26 -84.4893 -158.37c-19.9404 -10.7402 -41.2207 -18.7803 -63.291 -23.9102c-16.8301 -4.04004 -33.9502 -6.75 -51.21 -8.08984l-2.73047 -0.25
c-2.73047 -0.200195 -5.4707 -0.400391 -8.28027 -0.560547c-6.25977 -0.379883 -12.4697 -0.639648 -18.54 -0.639648h-0.75c-27.0596 -0.19043 -54.0898 2.06934 -80.75 6.75977c-50.5195 9.16016 -97.4697 32.2705 -135.54 66.7207
c-3.7002 4.37012 -5.40039 10.1006 -4.66016 15.7705c0.730469 5.67969 3.83008 10.79 8.52051 14.0703c6.30957 5.63965 13.3398 10.4297 20.9102 14.2393c12.0996 6.00977 23.1992 6.16016 26.9395 -0.410156c22.1299 -36.4404 54.0195 -65.9404 92.0693 -85.1602
c22.6299 -11.5098 47.6494 -17.5293 73.0391 -17.5791h2.80957c25.6201 0.0996094 51.0703 4.09961 75.4805 11.8496c19.5303 5.99023 37.8799 15.2998 54.2598 27.5195c26.54 19.1201 43.7305 48.6006 47.2803 81.1201c1.66992 15.8096 0.25 31.7998 -4.19043 47.0693
c-2.41992 8.13965 -5.72949 15.9893 -9.87988 23.4092c-2.16992 3.86035 -4.58008 7.59082 -7.20996 11.1611c-2.55957 3.4502 -5.40918 6.68066 -8.50879 9.65039c-18.3799 15.9199 -38.8604 29.2402 -60.8799 39.5605c-27.6904 14.5596 -57.0303 29.0195 -93.5898 46.1699
c-33.6396 15.29 -66.1299 33.0098 -97.21 53c-26.3496 16.8896 -49.8496 37.8496 -69.6396 62.0996c-17.1104 21.0098 -29 45.7793 -34.6797 72.2793c-4.41992 22.5801 -3.42969 45.8896 2.90039 68.0195c11.4297 39.5898 36.75 73.7402 71.3096 96.1699
c35.5098 23.5195 82.6895 37.4697 143.39 37.5195h0.480469c27.3203 0.0195312 54.5 -3.66016 80.8301 -10.9404c24.5 -7.09961 47.4697 -18.6699 67.7695 -34.1104c20.8398 -15.7998 39.1895 -34.6299 54.4697 -55.8496
c2.70996 -5.04004 3.17969 -10.9805 1.31934 -16.3809c-1.87012 -5.41016 -5.90039 -9.79004 -11.1406 -12.0898c-7.40039 -4.12012 -15.3105 -7.24023 -23.5205 -9.2998c-13 -3.58984 -23.7402 -1.55957 -26.2402 5.74023
c-12.7998 39.8896 -38.6494 74.3193 -73.3994 97.7295c-21.1299 13.3701 -45.5703 20.5605 -70.5703 20.7705h-0.129883c-58.2695 0.0195312 -101.64 -17.4004 -129.04 -41.7803c-25.0098 -21.7305 -40.4199 -52.4502 -42.8701 -85.4902
c-2.0498 -31.2695 7.41992 -60.7998 36.9902 -90.7998c17.7598 -17.3096 37.6602 -32.2793 59.2197 -44.5488c24.8799 -14.96 55 -29.6201 90.9502 -46.7002c17.96 -8.57031 35.1904 -16.8799 51.4307 -25.3799c8.00977 -4.16992 16.1797 -8.63965 23.4492 -12.7197
l21.46 -12.2803c28.0098 -15.04 53.1494 -34.8896 74.2998 -58.6299c4.98047 -6.07031 9.40039 -12.5898 13.21 -19.46c3.42969 -6.21973 6.41992 -12.6602 8.93945 -19.2998c4.63965 -12.1504 7.75 -24.8301 9.25 -37.75z" />
    <glyph glyph-name="T" unicode="T" horiz-adv-x="577" 
d="M-0.995117 701.172l578.356 0.00976562v-77.3584l-29.4014 31.8428c-18.2686 19.7842 -43.9736 31.0342 -70.9023 31.0312h-152.689v-613.133c0 -26.9258 11.25 -52.627 31.0322 -70.8936l2.89453 -2.66309h-140.213l2.89453 2.66309
c19.7822 18.2666 31.0322 43.9678 31.0322 70.8936v613.124h-152.699c-26.9258 0 -52.627 -11.25 -70.8936 -31.0322l-29.4111 -31.8428v77.3584z" />
    <glyph glyph-name="U" unicode="U" horiz-adv-x="576" 
d="M459.82 700.71l93.4219 0.0263672l-17.6504 -14.8799c-13.7803 -11.6201 -21.71 -28.75 -21.6602 -46.7803l1.29004 -425.53c-0.120117 -117.86 -95.6299 -213.38 -213.49 -213.51v0h-0.0595703c-5.24023 0.00976562 -10.4199 0.259766 -15.5596 0.629883
c-3.03027 -0.0302734 -6.0498 0.160156 -9.0498 0.570312c-7.70996 1.11035 -15.1699 1.35059 -22.0303 2.80078s-13.5508 2.33984 -19.7812 3.85938l-18.0195 4.62988c-21.7803 6.44043 -42.7207 15.4404 -62.3809 26.8301c-23.2598 13.9697 -43.29 32.71 -58.7598 55
c-5.00977 7.12012 -9.5293 14.5703 -13.5098 22.3105c-4.41016 8.79004 -8.29004 17.8301 -11.6299 27.0801c-7.41992 22.5098 -11.3203 46.0195 -11.5801 69.71v0.110352l-1.2998 429.71c-0.0498047 16.9404 -7.14941 33.0908 -19.5996 44.5908l-14.4697 13.3799h140.21
l-14.1396 -13.0703c-12.54 -11.5801 -19.6504 -27.8799 -19.6006 -44.9502l1.2998 -429.55l-0.139648 -0.110352h0.139648c0.30957 -16.71 2.35938 -33.3301 6.11914 -49.6104c2.05957 -7.08008 3.7793 -13.9199 6.01953 -20.1699
c2.58008 -6.05957 4.08984 -12.3496 6.99023 -17.6396c8.2998 -19.1602 19.0596 -37.1699 32 -53.5703c12.1504 -15.2197 26.8701 -28.1895 43.5 -38.3291l14.9902 -7.4502c5.33008 -2.37988 11.2197 -4.0498 17.3701 -6.14941
c6.61035 -1.80957 13.3105 -3.25977 20.0801 -4.33008c3.67969 -0.610352 7.39941 -0.970703 11.1299 -1.08105l5.84961 -0.349609l2.99023 -0.179688l1.50977 -0.0800781h0.209961c0.429688 -0.00976562 0.839844 -0.0693359 1.25977 -0.0693359v0
c109.86 0.120117 198.891 89.1504 199.021 199.021l-1.2998 425.53c-0.0498047 17.9004 -7.96973 34.8701 -21.6602 46.4004z" />
    <glyph glyph-name="V" unicode="V" horiz-adv-x="715" 
d="M629.97 701.2l93.4834 0.0488281l-21.6504 -13.0098c-21.25 -12.7695 -38.2402 -31.5498 -48.8203 -53.9795l-299.36 -634.18l-303.07 640.92c-10.0801 21.3096 -25.96 39.3496 -45.8203 52.0498l-12.7305 8.13965h140.22
c-10.54 -17.4697 -11.6201 -39.0596 -2.90039 -57.5098l256.3 -541.96l252.34 534.57c9.38965 19.8896 7.33008 43.29 -5.37988 61.2305z" />
    <glyph glyph-name="W" unicode="W" horiz-adv-x="1096" 
d="M1010.11 701.182l93.4824 -0.000976562c-35.1826 -21.1416 -63.3105 -52.2354 -80.832 -89.3535l-288.802 -611.828l-190.562 403.035l-150.219 -318.256l-39.9961 -84.7217l-303.43 641.828c-9.81348 20.7578 -25.1367 38.4238 -44.2988 51.0732l-12.4473 8.21191
h140.213l-0.743164 -1.13867c-10.8623 -16.6865 -12.2939 -37.8125 -3.78223 -55.8115l256.515 -542.526l150.219 318.256l-104.356 220.71c-9.81348 20.7578 -25.1367 38.4238 -44.2988 51.0732l-14.2998 9.4375h140.213
c-10.8623 -16.6865 -12.2939 -37.8125 -3.78223 -55.8115l66.5215 -140.688l60.1143 127.372c10.6006 22.4531 8.28125 48.876 -6.06934 69.1387h93.4717l-21.5176 -12.9297c-21.252 -12.7715 -38.2422 -31.5557 -48.8252 -53.9785l-69.166 -146.516l182.554 -386.091
l250.214 530.185c10.6289 22.5156 8.30176 49.0117 -6.08887 69.3301z" />
    <glyph glyph-name="X" unicode="X" horiz-adv-x="615" 
d="M623.684 0.00878906l-140.263 -0.00878906c5.82812 15.0283 3.80664 31.9707 -5.39355 45.2061l-186.974 268.973l-175.896 -252.975c-12.5449 -18.043 -14.3184 -41.4697 -4.63184 -61.1953h-93.4814l18.9512 10.0742c27.0908 14.3994 50.3584 35.0508 67.873 60.2402
l178.376 256.535l-227.095 326.686c-10.8047 15.5498 -24.9902 28.4521 -41.4922 37.7383l-17.6582 9.92871h140.213c-5.83301 -15.0342 -3.81152 -31.9844 5.39355 -45.2256l184.726 -265.731l173.687 249.723c12.5498 18.0518 14.3232 41.4902 4.63184 61.2246h93.4727
l-18.9316 -10.0645c-27.0947 -14.3984 -50.3652 -35.0498 -67.8818 -60.2402l-176.138 -253.322l229.353 -329.889c10.8047 -15.5498 24.9902 -28.4521 41.4922 -37.7383z" />
    <glyph glyph-name="Y" unicode="Y" horiz-adv-x="543" 
d="M458.409 701.201l93.5 0.00976562l-6.85059 -4.0332c-31.5918 -18.623 -57.2236 -45.8613 -73.8936 -78.5254l-145.153 -284.422v-256.67c0.00195312 -29.4287 12.2979 -57.5186 33.918 -77.4844h-140.213c21.627 19.9648 33.9268 48.0596 33.9268 77.4932v236.407
l-194.21 320.23c-16.4688 27.1543 -39.3848 49.8252 -66.7148 66.001l-1.71777 1.0127h140.213c-7.63574 -16.0166 -6.69238 -34.8018 2.50879 -49.9736l183.441 -302.476l145.385 284.885c11.0186 21.5898 9.43262 47.4619 -4.13965 67.5449z" />
    <glyph glyph-name="Y" unicode="&#x178;" horiz-adv-x="543" 
d="M458.409 701.201l93.5 0.00976562l-6.85059 -4.0332c-31.5918 -18.623 -57.2236 -45.8613 -73.8936 -78.5254l-145.153 -284.422v-256.67c0.00195312 -29.4287 12.2979 -57.5186 33.918 -77.4844h-140.213c21.627 19.9648 33.9268 48.0596 33.9268 77.4932v236.407
l-194.21 320.23c-16.4688 27.1543 -39.3848 49.8252 -66.7148 66.001l-1.71777 1.0127h140.213c-7.63574 -16.0166 -6.69238 -34.8018 2.50879 -49.9736l183.441 -302.476l145.385 284.885c11.0186 21.5898 9.43262 47.4619 -4.13965 67.5449z" />
    <glyph glyph-name="Z" unicode="Z" horiz-adv-x="512" 
d="M390.358 14.5498c29.4287 0.00195312 57.5186 12.2979 77.4844 33.918l26.7285 28.9482v-77.3389h-488.57l8.56836 14.4736l397.79 672.187h-284.652c-29.4336 0.000976562 -57.5283 -12.2988 -77.4932 -33.9268l-26.7285 -28.9482v77.3389h481.497l-406.311 -686.651
h291.687z" />
    <glyph glyph-name="bracketleft" unicode="[" horiz-adv-x="239" 
d="M217.483 693.944l-148.01 -0.000976562v-860.386h148.01v-14.4736h-162.483v889.334h162.483v-14.4736z" />
    <glyph glyph-name="backslash" unicode="\" horiz-adv-x="255" 
d="M286.106 -171.951l-13.8857 -4.05078l-255.221 874.887l13.8857 4.05078z" />
    <glyph glyph-name="bracketright" unicode="]" horiz-adv-x="239" 
d="M21 708.418l162.483 0.000976562v-889.334h-162.483v14.4736h148.01v860.386h-148.01v14.4736z" />
    <glyph glyph-name="asciicircum" unicode="^" horiz-adv-x="367" 
d="M271.714 376.754l75.707 -161.201l-12.9785 -6.40723l-82.1055 157.997l-41.0479 78.998l-20.5244 39.4941l-5.13379 9.87109l-1.2832 2.4707l-0.607422 1.1582h-0.0478516l-0.173828 0.0966797c-0.206055 0.0771484 -0.308594 -0.0546875 -0.308594 -0.395508
c0 0.34082 -0.102539 0.472656 -0.308594 0.395508l-0.173828 -0.0966797h-0.0478516l-0.607422 -1.1582l-1.2832 -2.46973l-5.13379 -9.87109l-20.5244 -39.4941l-41.0479 -78.998l-82.1055 -157.997l-12.9785 6.40723l113.417 241.801l18.9033 40.3047l31.8428 66.5801
l31.8428 -66.5801l18.9033 -40.3047z" />
    <glyph glyph-name="underscore" unicode="_" horiz-adv-x="448" 
d="M442.757 -5.62695h-437.757v14.4736h437.757v-14.4736z" />
    <glyph glyph-name="grave" unicode="`" horiz-adv-x="107" 
d="M-32.8643 795.078l124.609 -159.078l-11.0674 -9.33105l-135.678 149.757z" />
    <glyph glyph-name="a" unicode="a" horiz-adv-x="453" 
d="M433.085 0.00976562l-106.553 -0.0214844l0.269531 53.6797c-13.3203 -10.1504 -27.5303 -19.0801 -42.46 -26.6797c-13.71 -7.58984 -28.3896 -13.2598 -43.6396 -16.8594c-9.91016 -2.83984 -19.9805 -5.08984 -30.1602 -6.75
c-22.6602 -3.70996 -45.7402 -4.08008 -68.5098 -1.12012c-23.4902 2.83984 -46.0303 10.9795 -65.9102 23.8096l-7.87988 5.5c-2.51953 2.09961 -4.98926 4.38965 -7.46973 6.66992c-5.2002 4.71973 -9.87988 9.98926 -13.9502 15.7197
c-4.38965 6.17969 -8.18945 12.7598 -11.3291 19.6602c-2.7002 6.48047 -4.89062 13.1602 -6.57031 19.9697c-6.74023 26.3398 -4.75977 54.1494 5.64062 79.2793c9.54004 22.4805 24.8496 42.0508 44.3896 56.7012c19.1904 13.8701 40.3008 24.8701 62.6709 32.6602
c23.0303 8.7998 46.6406 15.9902 70.6709 21.5205c105.64 25.29 109.56 60.2197 109.56 60.5596h0.959961c-0.990234 5.30957 -2.12988 10.2197 -3.41016 14.7197c-3.20996 12.4902 -8.08008 24.5 -14.4805 35.7002c-6.30957 10.8701 -15.0293 20.1602 -25.4795 27.1406
c-14.9297 9.25 -32.2393 13.9404 -49.7891 13.5107h-0.400391c-21.7803 -0.0498047 -43.0107 -6.91016 -60.7109 -19.6006c-27.8896 -22.3701 -44.7998 -55.6504 -46.4297 -91.3506c-0.580078 -6.51953 -10.3701 -9.83984 -23.8203 -9.04004
c-8.4502 0.280273 -16.8506 1.54004 -25.0205 3.77051c-12.9004 3.88965 -20.2803 14.9795 -16.2402 23.7793c9.75 22.1299 23.4102 42.3203 40.3105 59.6201c16.5 16.9004 36.8398 29.5801 59.2803 36.9404c23.6797 7.11035 48.2998 10.6104 73.0195 10.4004
c19.6504 0.0498047 39.2402 -2 58.4502 -6.12012c15.96 -3.33984 31.3701 -8.93945 45.75 -16.6299c17.3701 -9.7002 32 -23.6504 42.5303 -40.5205c15.4004 -25.4697 23.3008 -54.7695 22.791 -84.5293v-228.54c0 -26.9199 11.25 -52.6201 31.0303 -70.8896z
M277.622 39.8379c17.79 8.7002 34.3281 19.7568 49.1777 32.8564v229.37c-0.0996094 7.16992 -0.469727 13.6504 -0.969727 19.71c-13.2305 -15.5098 -42.9805 -36.0498 -110 -52.0996c-51.0801 -13.6797 -87.0605 -40.3193 -105.4 -70.0889
c-8.30957 -13.46 -13.4492 -28.6396 -15.0488 -44.3799c-1.37012 -14.8301 -0.0898438 -29.79 3.78027 -44.1699c0.69043 -3.90039 2.20996 -7.43066 3.07031 -11.1504c1.48047 -2.55957 1.66016 -5.43945 3.41016 -8.16992
c1.33984 -2.96973 2.95996 -5.81934 4.82031 -8.50977l2.82031 -4.40039l3.51953 -4.20996c10.6602 -12.5996 23.5898 -23.0693 38.1201 -30.8789c17.0195 -9.37988 35.8096 -15.0996 55.1592 -16.8193c23.2803 -2.08984 46.6807 2.40039 67.541 12.9404z" />
    <glyph glyph-name="b" unicode="b" horiz-adv-x="478" 
d="M425.669 333.603l-0.0761719 -0.00976562c31.5381 -69.0205 31.5381 -148.338 0 -217.358c-10.6406 -22.2861 -25.2314 -42.4609 -43.0645 -59.5459c-15.5371 -14.5049 -33.0273 -26.7656 -51.9609 -36.4258c-17.8721 -9.33496 -37.1855 -15.6006 -57.1338 -18.5361
c-6.71875 -1.12695 -13.5186 -1.70508 -20.3311 -1.72852c-48.5166 0 -92.2471 27.9541 -122.815 72.4854v-72.4854h-106.286l2.89453 2.66309c19.7822 18.2666 31.0322 43.9678 31.0322 70.8936v477.764c-0.387695 27.9541 6.33984 55.5469 19.5498 80.1855
c9.02148 16.5332 21.7871 30.7266 37.2754 41.4443c13.1338 8.83984 27.5342 15.6328 42.708 20.1475c18.3379 5.38379 37.3555 8.10059 56.4678 8.06738v-14.4736c-29.2559 1.58008 -56.248 -15.7119 -67.043 -42.9492
c-4.88281 -11.6143 -8.49023 -23.7246 -10.7598 -36.1172c-3.75098 -18.5293 -5.69043 -37.3799 -5.79004 -56.2842v-173.957c30.5684 44.502 74.3086 72.4844 122.815 72.4844c7.44336 -0.0224609 14.8701 -0.707031 22.1924 -2.0459
c19.5156 -3.09668 38.3896 -9.37793 55.8691 -18.5928c18.751 -9.65332 36.0859 -21.8389 51.5176 -36.2139c17.7783 -17.0527 32.3252 -37.1807 42.9385 -59.4111zM366.279 138.243c14.2227 56.9209 14.2227 116.486 0 173.407
c-4.46191 19.0293 -10.6367 37.6152 -18.4492 55.5312c-7.12305 16.207 -17.4414 30.8115 -30.3379 42.9395c-17.6152 16.0361 -40.5107 25.0371 -64.3311 25.291c-50.292 0 -94.9678 -33.6758 -122.815 -85.502v-249.916c27.8477 -51.8262 72.5234 -85.502 122.815 -85.502
c23.8203 0.253906 46.7158 9.25488 64.3311 25.291c12.8955 12.125 23.2139 26.7256 30.3379 42.9287c7.81055 17.917 13.9854 36.5029 18.4492 55.5312z" />
    <glyph glyph-name="c" unicode="c" horiz-adv-x="478" 
d="M449.433 129.5l13.7803 -4.26172l-2.13965 -6.91016c-0.349609 -1.16992 -37.54 -114.76 -197.56 -118.14v-0.129883h-5.9502h-8.51953v0.230469c-4.58984 0.179688 -9.16016 0.489258 -13.6602 1.01953c-21.6104 2.16992 -42.8506 7.07031 -63.2207 14.6006
c-21.4199 7.67969 -41.6299 18.4102 -60 31.8398c-21.8301 15.7402 -40.1504 35.8398 -53.8203 59.0195c-41.79 73.2598 -41.79 163.14 0 236.399c13.6699 23.1904 31.9902 43.2803 53.8203 59.0205c18.3701 13.4404 38.5801 24.1602 60 31.8398
c20.3604 7.51953 41.5908 12.4297 63.1807 14.5898c6.92969 0.820312 13.9102 1.23047 20.8906 1.24023h7.29004v-0.370117c20.4805 -0.709961 40.7402 -4.50977 60.0898 -11.2598c20.7402 -7.01953 39.5303 -18.8594 54.8105 -34.5498
c16.5801 -17.1104 28.5996 -38.1006 34.96 -61.0605c2.55957 -9.37012 -6.60059 -18.3896 -19.7705 -19.8096c-8.40039 -0.94043 -16.8809 -0.990234 -25.3008 -0.129883c-13.5498 1.38965 -22.6699 5.87988 -22 11.04c1.67969 14.4404 -0.430664 29.0703 -6.11035 42.46
c-6.45996 15.0996 -16.5098 28.3994 -29.2695 38.749c-15.3301 12.8701 -34.6201 20.0898 -54.6299 20.4502l-1.53027 -0.0800781c-25.8701 -0.219727 -51.1006 -8.06934 -72.5205 -22.5693c-15.7598 -10.9502 -29.1299 -24.9697 -39.3203 -41.2295
c-11.4805 -17.46 -20.75 -36.2695 -27.5996 -56.0195c-21.25 -58.4902 -21.25 -122.59 0 -181.09c6.86035 -19.79 16.1699 -38.6504 27.71 -56.1309c10.3096 -16.3496 23.8398 -30.4395 39.7598 -41.3994c21.7305 -14.5195 47.2607 -22.2998 73.4004 -22.3496h1.42969
c154.52 0.610352 189.319 107 189.649 108.07z" />
    <glyph glyph-name="d" unicode="d" horiz-adv-x="475" 
d="M452.473 0.00976562l-106.303 -0.0185547v71.3604c-30.54 -43.8604 -73.9297 -71.3506 -122.02 -71.3506c-6.80957 0.0195312 -13.6094 0.599609 -20.3291 1.72949c-19.9502 2.92969 -39.2598 9.19922 -57.1299 18.5293
c-18.9404 9.66016 -36.4307 21.9199 -51.9609 36.4297c-17.8398 17.0801 -32.4297 37.2598 -43.0693 59.54c-31.5498 69.0303 -31.5498 148.36 0 217.391c10.6396 22.29 25.2295 42.46 43.0596 59.5498c15.5303 14.5 33.0205 26.7598 51.9609 36.4199
c17.8701 9.33984 37.1797 15.5996 57.1299 18.54c6.71973 1.12988 13.5195 1.7002 20.3291 1.73047c48.0898 0 91.4795 -27.4805 122.02 -71.3506v170.46c-0.139648 19.1602 -2.10938 38.2598 -5.88965 57.04c-2.28027 12.5898 -5.87012 24.9102 -10.7197 36.75
c-4.51953 11.1299 -11.6494 21.0098 -20.7891 28.8193c-13.2305 10.1602 -29.54 15.4902 -46.2197 15.1104v14.4697c19.2998 0 38.4902 -2.91016 56.9307 -8.62988c15.1797 -4.82031 29.5498 -11.9004 42.6201 -21.0107c15.3701 -10.9697 28.0098 -25.3096 36.96 -41.9395
c13.1504 -24.8096 19.8506 -52.5293 19.4902 -80.6094v-475.41c0 -26.9199 11.25 -52.6201 31.04 -70.8896zM224.17 14.4814c49.7598 0 94.1787 33.0312 121.969 84.0215v252.9c-27.9102 50.9697 -72.21 84 -122.02 84l-1.40039 -0.0996094
c-23.5498 -0.459961 -46.1201 -9.54004 -63.4199 -25.5205c-12.7002 -12.1299 -22.8701 -26.6602 -29.9102 -42.7402c-7.75 -17.9004 -13.8896 -36.4404 -18.3398 -55.4307c-14.21 -56.9102 -14.21 -116.45 0 -173.37c4.45996 -19.0303 10.6396 -37.6104 18.4492 -55.5303
c7.12012 -16.2002 17.4404 -30.8105 30.3408 -42.9404c17.6104 -16.0303 40.5107 -25.0303 64.3311 -25.29z" />
    <glyph glyph-name="e" unicode="e" horiz-adv-x="479" 
d="M444.082 130.65l13.8838 -4.28906l-2.13965 -6.90039c-0.360352 -1.16016 -37.1406 -113.53 -195.391 -116.9v-0.139648h-5.95996h-8.52051v0.230469c-4.5 0.150391 -8.98047 0.459961 -13.4004 0.969727c-21.4004 2.12988 -42.4404 6.96973 -62.6201 14.3994
c-21.2305 7.58008 -41.25 18.1699 -59.46 31.4395c-21.6396 15.5596 -39.8193 35.4395 -53.3691 58.3896c-41.4697 72.5498 -41.4697 161.62 0 234.17c13.5498 22.9502 31.7295 42.8301 53.3691 58.3799c18.21 13.2803 38.2295 23.8701 59.46 31.4502
c20.1602 7.42969 41.1904 12.2695 62.5703 14.4092c6.87012 0.799805 13.7705 1.20996 20.6807 1.20996h7.2002v-0.160156c27.3799 -1.03027 54.3896 -6.66992 79.8994 -16.6895c50.5596 -19.1699 89.6992 -60.2295 106.43 -111.649
c1.34961 -4.13965 2.59961 -8.38965 3.65918 -12.7295c0.19043 -0.55957 0.290039 -1.14941 0.290039 -1.73926h-339.94c-7.91992 -25.79 -12.1104 -52.5703 -12.4307 -79.5508c0.30957 -30.46 5.59961 -60.6602 15.6797 -89.4102
c6.75 -19.5596 15.9102 -38.1992 27.2705 -55.499c10.1504 -16.1904 23.4902 -30.1406 39.21 -41.001c18.0195 -12.1396 38.8291 -19.5098 60.4795 -21.4395c4.0498 -0.299805 8.05957 -0.700195 12.1699 -0.700195h1.34961c152.22 0.610352 186.09 102.511 187.46 106.86z
M141.105 369.741c-10.3604 -15.9004 -18.8691 -32.9414 -25.3691 -50.7812h266.39c-1.7998 13.0996 -5.74023 25.8193 -11.6699 37.6396c-10.0498 20.1104 -24.7695 37.5107 -42.9395 50.751c-21.3496 16.1104 -47.2295 25.0908 -73.96 25.6504h-0.69043
l-1.32031 -0.0800781c-25.5703 -0.209961 -50.5107 -7.99023 -71.6709 -22.3506c-15.5596 -10.8496 -28.75 -24.7393 -38.7695 -40.8291z" />
    <glyph glyph-name="f" unicode="f" horiz-adv-x="295" 
d="M413.225 568.417c3.30957 -5.54785 -3.69629 -13.0146 -15.7676 -19.0742c-7.58105 -3.73535 -15.4922 -6.75879 -23.6318 -9.03223c-12.8916 -3.64746 -23.9111 -0.250977 -24.6543 6.2041c-1.33008 14.9336 -3.73535 29.752 -7.19824 44.3389
c-3.34375 13.4551 -9.8584 25.915 -18.999 36.3389c-11.7529 12.2266 -28.1182 18.9287 -45.0713 18.458c-17.9473 1.03809 -35.7158 -4.03711 -50.4072 -14.3965c-10.1953 -7.84277 -18.3594 -18.0186 -23.8057 -29.6719
c-5.71484 -12.5254 -10.0723 -25.627 -12.9971 -39.0801c-4.68066 -20.0332 -7.10449 -40.5273 -7.22656 -61.0996v-51.5752h107.106v-14.4736h-107.106v-361.848c0 -26.9258 11.25 -52.627 31.0322 -70.8936l2.89453 -2.66309h-140.213l2.89453 2.66309
c19.7822 18.2666 31.0322 43.9678 31.0322 70.8936v361.848h-107.106v14.4736h107.106v51.5752c-0.378906 29.9023 6.93066 59.4004 21.2275 85.666c9.70605 17.4697 23.2295 32.5234 39.5625 44.04c13.9785 9.46973 29.3564 16.6885 45.5732 21.3926
c19.6367 5.69238 40.0459 8.26465 60.4814 7.62305h0.347656c20.3008 0.652344 40.5098 -3.00488 59.2949 -10.7295c17.7549 -8.04102 33.3428 -20.1895 45.4775 -35.4424c11.2305 -14.3633 21.3125 -29.5889 30.1533 -45.5352z" />
    <glyph glyph-name="g" unicode="g" horiz-adv-x="506" 
d="M449.517 420.77c-9.17969 -7.58984 -16.3877 -17.2891 -21.0078 -28.2695c-3.5498 -8.21973 -6.31934 -16.75 -8.2793 -25.4902c5.34961 -9.00977 9.90918 -18.46 13.6289 -28.2598c13.1201 -37.4199 12.3398 -78.3096 -2.2002 -115.189
c-5.76953 -14.1602 -13.5693 -27.4004 -23.1592 -39.3105c-13.9297 -17.1396 -31.4395 -31.0293 -51.3096 -40.6797c-16.6299 -7.54004 -34.0195 -13.2402 -51.8896 -17c-20.5098 -4.44043 -41.4297 -6.73047 -62.4199 -6.81055c-0.540039 0 -1 -0.0703125 -1.5 -0.0703125
h-3.62012c-22.6201 0.620117 -45.0898 3.77051 -67.0098 9.4209c-17.7002 4.42969 -34.8701 10.7998 -51.1904 18.9697c-17.4297 9.34961 -32.8701 22.0098 -45.4404 37.2695c-7.4502 -7.51953 -13.2598 -16.5 -17.0596 -26.3799
c-4.88965 -13.1504 -6.87988 -27.2002 -5.86035 -41.1904c0.530273 -10.8301 3.62988 -21.3799 9.03027 -30.7695c1.08008 -2.03027 2.42969 -3.91016 4.00977 -5.58008c1.30957 -1.74023 2.75977 -3.37012 4.31934 -4.87988
c3.08008 -2.86035 6.46973 -5.35059 10.1094 -7.44043l5.29004 -3.00977l5.86035 -2.2998c3.94043 -1.5498 8 -2.79004 12.1396 -3.71973c20.4697 -4.21973 41.3301 -6.2998 62.2305 -6.20996c12.9902 -0.19043 27.4102 -0.5 44.21 -0.259766l26.8301 0.299805
c9.55957 0.0595703 20.7295 0.269531 32.1699 0c38.2803 0.360352 76.3799 -5.18945 112.96 -16.4492c26.96 -8.11035 51.0996 -23.6104 69.6992 -44.7305c15.5898 -19.3096 24.1797 -43.3291 24.3799 -68.1494c-0.19043 -6.07031 -0.370117 -12.3398 -0.560547 -18.8994
c-0.5 -6.73047 -1.37988 -13.4307 -2.63965 -20.0703c-2.7998 -15.6504 -8.10938 -30.75 -15.7393 -44.7002l-0.400391 -0.660156c-10.9697 -18.6504 -25.7295 -34.8105 -43.3193 -47.4102c-17.4404 -12.4102 -36.4004 -22.54 -56.4004 -30.1699
c-35.4805 -13.4297 -72.6201 -21.9893 -110.4 -25.4297c-38.5303 -4.66992 -77.5107 -4.29004 -115.94 1.12988c-15 1.53027 -26.04 14.7607 -24.8604 29.791c1.33984 8.41992 4.41016 16.46 9 23.6396c6.46973 11.0996 19.79 16.1992 32.0098 12.2695
c32.0303 -10.8604 65.3398 -17.4902 99.0801 -19.7402c34.5195 -3.41992 69.3496 -2.15039 103.529 3.7793c19.1602 3.42969 37.6006 10.0898 54.5303 19.71c16.7695 9.61035 30.7393 23.4404 40.5195 40.1104c1.48047 2.63965 2.63086 5.44922 3.86133 8.20898
c8.84961 20.79 10.3896 43.9697 4.35938 65.7598c-4.36035 16.5996 -15.3701 30.6797 -30.4404 38.8994c-17.3896 8.44043 -36.1992 13.5908 -55.459 15.1904c-32.9199 3.66016 -66 5.52051 -99.1201 5.57031l-31.1904 0.639648
c-10.3398 0.320312 -20.04 0.720703 -29.2998 1.60059c-16.6904 1.2998 -33.2705 3.74023 -49.6309 7.2998c-25.9404 5.20996 -50.6406 15.3398 -72.7705 29.8594c-4.99023 3.32031 -9.7207 7.01074 -14.1504 11.041l-6.57031 6.0498l-5.96973 6.94043
c-3.9502 4.74023 -7.45996 9.82031 -10.4902 15.1904c-1.50977 2.78027 -2.84961 5.65039 -4.01953 8.59082c-1.41992 2.87988 -2.53027 5.88965 -3.33984 8.98926c-3.76953 13.0195 -5.25 26.5898 -4.37012 40.1094c0.650391 12.0098 2.59082 23.9102 5.79102 35.5
c0.950195 3.51953 2.08984 6.97949 3.41016 10.3896c0.0703125 0.179688 0.110352 0.349609 0.180664 0.519531c4.74023 12.4102 12.1504 23.6299 21.71 32.8604c-6.92969 10.5703 -12.6602 21.8906 -17.0703 33.7305c-13.1299 37.4102 -12.3496 78.3105 2.2002 115.19
c5.75977 14.1602 13.5596 27.4004 23.1592 39.3105c13.9199 17.1396 31.4297 31.0293 51.2998 40.6797c16.6201 7.54004 34.0205 13.2402 51.8809 17c44.4004 10.0098 90.5703 9.12988 134.551 -2.57031c13.0703 -3.36035 25.8701 -7.68066 38.2998 -12.9111
c6.76953 -3.11035 6.76953 -3.11035 17.5791 -8.75c4.87988 -2.87012 9.61035 -5.99023 14.1807 -9.33984c4.65039 4.5 9.66992 8.58984 15.0098 12.2402c13.1299 8.83984 27.5303 15.6396 42.71 20.1494c18.3301 5.38965 37.3496 8.09961 56.46 8.06934v-14.4697
c-16.5801 0.410156 -32.8105 -4.76953 -46.0801 -14.6992zM365.679 246.471c6.38965 23.5 6.87109 48.2412 1.38086 71.9609c-2.32031 9.54004 -5.35059 18.9004 -9.08105 27.9805c-6 14.6602 -13.6602 28.5801 -22.8398 41.4902
c-8.96973 12.1797 -20.0596 22.6494 -32.7393 30.8799c-14.8096 9.09961 -31.54 14.5996 -48.8604 16.0596c-3.16992 0.240234 -6.33984 0.570312 -9.55957 0.629883h-1.23047c-20.3799 0.419922 -40.4902 -4.61035 -58.2598 -14.5801
c-12.8398 -7.76953 -24.2002 -17.7793 -33.54 -29.5293c-9.61035 -12.54 -17.7607 -26.1396 -24.3008 -40.5293c-4.07031 -8.92969 -7.45996 -18.1602 -10.1299 -27.6006c-6.38965 -23.4902 -6.85938 -48.2002 -1.36914 -71.9199
c2.30957 -9.53027 5.33984 -18.8701 9.05957 -27.9404h0.700195l0.0800781 -1.80957c5.87012 -14.0303 13.2705 -27.3604 22.0703 -39.7705c8.95996 -12.1797 20.0596 -22.6396 32.75 -30.8799c14.8203 -9.11035 31.5801 -14.6104 48.9199 -16.0605
c3.11035 -0.230469 6.2002 -0.550781 9.35059 -0.610352h1.37012c20.3701 -0.429688 40.4902 4.60059 58.2598 14.5703c12.8398 7.78027 24.1895 17.7803 33.5293 29.54c9.61035 12.54 17.7705 26.1396 24.3105 40.5293c4.05957 8.92969 7.44922 18.1494 10.1289 27.5898z
" />
    <glyph glyph-name="h" unicode="h" horiz-adv-x="490" 
d="M467.363 2.67188l2.81934 -2.66309h-140.213l2.89453 2.66309c19.7822 18.2666 31.0322 43.9678 31.0322 70.8936v204.835c-0.0869141 83.9102 -23.0908 147.875 -80.0215 147.875c-38.1016 -0.62793 -74.5469 -15.6836 -101.983 -42.1289
c-19.6748 -18.0596 -37.0107 -38.5107 -51.6045 -60.877v-249.713c0 -26.9258 11.25 -52.627 31.0322 -70.8936l2.89453 -2.66309h-140.213l2.89453 2.66309c19.7822 18.2666 31.0322 43.9678 31.0322 70.8936v477.764c-0.385742 27.9531 6.3418 55.5459 19.5488 80.1855
c9.02344 16.5352 21.792 30.7285 37.2842 41.4434c13.1338 8.83984 27.5342 15.6328 42.708 20.1475c18.3379 5.38379 37.3555 8.10059 56.4678 8.06641v-14.4736c-29.2559 1.58008 -56.248 -15.7119 -67.043 -42.9492
c-4.88281 -11.6143 -8.49023 -23.7246 -10.7598 -36.1172c-3.74902 -18.5293 -5.68848 -37.3789 -5.79004 -56.2832v-203.291c38.0566 51.4688 97.7178 101.838 164.462 101.838c11.0391 0.231445 22.0762 -0.524414 32.9805 -2.25781
c9.44043 -1.66895 18.6367 -4.50879 27.375 -8.45312c15.624 -7.29199 29.5225 -17.8164 40.7783 -30.877c22.4541 -25.918 39.668 -63.4727 40.3916 -130.4v-204.333c0 -26.9258 11.25 -52.627 31.0322 -70.8936z" />
    <glyph glyph-name="i" unicode="i" horiz-adv-x="216" 
d="M125.824 449.886c-19.9844 0 -36.1846 16.2002 -36.1846 36.1846s16.2002 36.1846 36.1846 36.1846s36.1846 -16.2002 36.1846 -36.1846s-16.2002 -36.1846 -36.1846 -36.1846zM89.6396 300.023c-0.0996094 18.9043 -2.08691 37.7744 -5.83789 56.3037
c-2.26953 12.3926 -5.87695 24.5029 -10.7588 36.1172c-10.7949 27.2373 -37.7871 44.5293 -67.043 42.9492v14.4736c19.1084 0.0322266 38.1221 -2.68457 56.457 -8.06738c15.1738 -4.51465 29.5742 -11.3076 42.708 -20.1475
c15.4922 -10.7148 28.2607 -24.9082 37.2842 -41.4434c13.208 -24.6396 19.9355 -52.2324 19.5498 -80.1855v-226.458c0 -26.9258 11.25 -52.627 31.0322 -70.8936l2.89453 -2.66309h-140.213l2.89453 2.66309c19.7822 18.2666 31.0322 43.9678 31.0322 70.8936v226.458z
" />
    <glyph glyph-name="j" unicode="j" horiz-adv-x="205" 
d="M124.362 449.9c-19.9902 0 -36.1904 16.2002 -36.1904 36.1807s16.2002 36.1807 36.1904 36.1807c19.9805 0 36.1807 -16.2002 36.1807 -36.1807s-16.2002 -36.1807 -36.1807 -36.1807zM103.723 421.65c15.4805 -10.7197 28.2246 -24.9131 37.2344 -41.4434
c13.21 -24.6396 19.9404 -52.2295 19.5508 -80.1895v-408.48c0.610352 -30.2998 -6.23926 -60.29 -19.9395 -87.3203c-9.76953 -18.5195 -24.1592 -34.2197 -41.7588 -45.5693c-14.6504 -9.24023 -30.8408 -15.7803 -47.8008 -19.2998
c-19.8096 -4.32031 -40.0293 -6.51074 -60.3096 -6.52051h-1.20996c-22.25 -0.259766 -44.3896 3.28027 -65.4492 10.4707c-20.8096 7.33008 -39.2197 20.2002 -53.25 37.2197c-14.5703 17.8398 -24.9805 38.7002 -30.4707 61.0801
c-2.17969 8.83984 6.9502 17.1602 20.1699 18.5801c8.41016 0.929688 16.8906 0.959961 25.3008 0.110352c13.5 -1.41992 22.6797 -6.2998 21.8398 -11.8301c-2.12988 -14.5498 -0.969727 -29.3896 3.39062 -43.4199c10.9502 -34.4502 42.9805 -57.8203 79.1309 -57.7305
c18.3203 -0.320312 36.3701 4.48926 52.1006 13.8994c11.1504 7 20.21 16.8604 26.2598 28.5508c6.25 12.0596 10.75 24.9395 13.3701 38.2695c4.25 20.9004 6.34961 42.1807 6.25 63.501v408.51c-0.0996094 18.9102 -2.04004 37.7598 -5.79004 56.29
c-2.26953 12.3896 -5.86914 24.5 -10.749 36.1104c-10.7998 27.2402 -37.79 44.5303 -67.0498 42.9502v14.4805c19.1104 0.0302734 38.1299 -2.68945 56.4697 -8.06934c15.1699 -4.51953 29.5703 -11.3096 42.71 -20.1494z" />
    <glyph glyph-name="k" unicode="k" horiz-adv-x="483" 
d="M484.971 0.00878906l-140.213 0.0214844c5.5293 14.8496 3.33887 31.4746 -5.84863 44.3857l-105.052 147.73l-105.572 -109.085v-9.47559c0 -26.9258 11.25 -52.627 31.0322 -70.8936l2.89453 -2.66309h-140.213l2.89453 2.66309
c19.7822 18.2666 31.0322 43.9678 31.0322 70.8936v477.764c-0.386719 27.9502 6.34082 55.54 19.5498 80.1758c9.02734 16.5273 21.7959 30.7139 37.2852 41.4248c13.1338 8.83984 27.5342 15.6328 42.708 20.1475c18.3379 5.38379 37.3555 8.10059 56.4678 8.06738
v-14.4736c-29.2559 1.58008 -56.248 -15.7119 -67.043 -42.9492c-4.88281 -11.6143 -8.49023 -23.7246 -10.7598 -36.1172c-3.75098 -18.5293 -5.69043 -37.3799 -5.79004 -56.2842v-447.484l221.565 228.938l0.250977 0.289062
c14.7793 15.542 24.0713 35.4912 26.459 56.8057c1.79395 17.918 -0.107422 36.0137 -5.58691 53.167c-5.21973 15.9346 -13.624 30.6416 -24.7021 43.2285c-3.89844 4.6123 0.308594 14.0107 10.4209 23.2256c6.2793 5.66992 13.1885 10.6006 20.5918 14.6963
c11.502 6.45508 24.5186 4.41895 27.9824 -4.88281c8.81445 -22.5303 13.0459 -46.5918 12.4473 -70.7773c-0.700195 -22.9287 -6.06445 -45.4746 -15.7666 -66.2617c-10.6035 -21.999 -24.7109 -42.1289 -41.7715 -59.6035l-75.1865 -77.6865l132.06 -185.72
c16.6289 -23.3857 38.2637 -42.7686 63.3281 -56.7383z" />
    <glyph glyph-name="l" unicode="l" horiz-adv-x="184" 
d="M55.6396 73.5742l-0.0488281 477.774c-0.0996094 18.9043 -2.03906 37.7549 -5.79004 56.2842c-2.26953 12.3926 -5.87695 24.5029 -10.7598 36.1172c-10.7949 27.2373 -37.7871 44.5293 -67.043 42.9492v14.4736c19.1123 0.0332031 38.1299 -2.68359 56.4678 -8.06738
c15.1738 -4.51465 29.5742 -11.3076 42.708 -20.1475c15.4883 -10.7178 28.2539 -24.9111 37.2754 -41.4443c13.209 -24.6357 19.9365 -52.2256 19.5498 -80.1758v-477.764c0 -26.9258 11.25 -52.627 31.0322 -70.8936l2.89453 -2.66309h-140.213l2.89453 2.66309
c19.7822 18.2666 31.0322 43.9678 31.0322 70.8936z" />
    <glyph glyph-name="m" unicode="m" horiz-adv-x="827" 
d="M701.595 277.897l-0.0859375 -0.0273438v0.762695c-0.144531 83.7939 -23.0908 147.634 -80.0215 147.634c-38.1016 -0.62793 -74.5469 -15.6836 -101.983 -42.1289c-21 -19.292 -39.3281 -41.3037 -54.498 -65.4502c1.83008 -13.5205 2.79688 -27.1436 2.89453 -40.7871
v-204.333c0 -26.9258 11.25 -52.627 31.0322 -70.8936l2.89453 -2.66309h-140.213l2.89453 2.66309c19.7822 18.2666 31.0322 43.9678 31.0322 70.8936v204.333v1.24512c-0.22168 83.5332 -23.2061 147.132 -80.0107 147.132
c-38.0918 -0.62793 -74.5293 -15.6758 -101.964 -42.1094c-20.3027 -18.6426 -38.1113 -39.8311 -52.9834 -63.0381c0.811523 -7.00684 1.26855 -14.0498 1.37012 -21.1025v-226.362c0 -26.9258 11.25 -52.627 31.0322 -70.8936l2.89453 -2.66309h-140.213l2.89453 2.66309
c19.7822 18.2666 31.0322 43.9678 31.0322 70.8936v226.458c-0.0996094 18.9043 -2.03906 37.7549 -5.79004 56.2842c-2.26953 12.3926 -5.87695 24.5029 -10.7588 36.1172c-10.7949 27.2373 -37.7871 44.5293 -67.043 42.9492v14.4736
c19.1084 0.0322266 38.1221 -2.68457 56.457 -8.06738c15.1738 -4.51465 29.5742 -11.3076 42.708 -20.1475c15.4922 -10.7148 28.2607 -24.9082 37.2842 -41.4434c6.75391 -12.1807 11.7168 -25.2715 14.7344 -38.8682c37.7764 53.6982 99.6377 108.516 169.276 108.516
c11.0391 0.230469 22.0762 -0.525391 32.9805 -2.25879c9.4375 -1.66992 18.6299 -4.50977 27.3652 -8.45312c15.624 -7.29102 29.5225 -17.8154 40.7773 -30.8779c16.9629 -19.9121 28.6045 -43.7969 33.8398 -69.4258c37.5938 54.46 100.304 110.966 171.014 110.966
c11.0391 0.230469 22.0762 -0.525391 32.9805 -2.25879c9.4375 -1.6709 18.6299 -4.51074 27.3652 -8.45312c15.624 -7.29199 29.5225 -17.8164 40.7783 -30.877c22.4541 -25.918 39.668 -63.4727 40.3916 -130.4v-204.333c0 -26.9258 11.25 -52.627 31.0322 -70.8936
l2.89453 -2.66309h-140.213l2.89453 2.66309c19.7822 18.2666 31.0322 43.9678 31.0322 70.8936v204.333z" />
    <glyph glyph-name="n" unicode="n" horiz-adv-x="521" 
d="M395.627 277.897h-0.078125v0.501953c-0.0869141 83.9102 -23.0908 147.875 -80.0215 147.875c-38.0918 -0.62793 -74.5293 -15.6758 -101.964 -42.1094c-20.3037 -18.6416 -38.1123 -39.8301 -52.9834 -63.0381c0.816406 -7.00586 1.27344 -14.0498 1.37012 -21.1025
v-226.41c0 -26.9258 11.25 -52.627 31.0322 -70.8936l2.89453 -2.66309h-140.213l2.89453 2.66309c19.7822 18.2666 31.0322 43.9678 31.0322 70.8936v226.458c-0.0996094 18.9043 -2.03906 37.7549 -5.79004 56.2842c-2.26953 12.3926 -5.87695 24.5029 -10.7588 36.1172
c-10.7949 27.2373 -37.7871 44.5293 -67.043 42.9492v14.4736c19.1123 0.0332031 38.1299 -2.68359 56.4678 -8.06641c15.1738 -4.51562 29.5742 -11.3086 42.708 -20.1475c15.4883 -10.7178 28.2539 -24.9111 37.2754 -41.4443
c6.75391 -12.1807 11.7168 -25.2715 14.7344 -38.8682c37.7764 53.6982 99.6377 108.516 169.276 108.516c11.0391 0.231445 22.0762 -0.524414 32.9805 -2.25781c9.44043 -1.66895 18.6367 -4.50879 27.375 -8.45312c15.624 -7.29199 29.5225 -17.8164 40.7783 -30.877
c22.4541 -25.918 39.668 -63.4727 40.3916 -130.4v-204.333c0 -26.9258 11.25 -52.627 31.0322 -70.8936l2.89453 -2.66309h-140.213l2.89453 2.66309c19.7822 18.2666 31.0322 43.9678 31.0322 70.8936v204.333z" />
    <glyph glyph-name="o" unicode="o" horiz-adv-x="510" 
d="M451.843 342.78c41.3096 -73.1299 41.3291 -162.549 0.0195312 -235.679c-13.54 -23.1504 -31.7197 -43.2607 -53.3896 -59.0703c-18.25 -13.5 -38.3496 -24.29 -59.6992 -32.0303c-20.2803 -7.59961 -41.46 -12.5596 -63.0098 -14.75
c-6.7998 -0.799805 -13.6396 -1.20996 -20.4893 -1.21973h-0.700195c-6.84961 0.00976562 -13.6895 0.419922 -20.4893 1.21973c-21.5498 2.19043 -42.7295 7.15039 -63.0098 14.75c-21.3398 7.74023 -41.4502 18.5303 -59.7002 32.0303
c-21.6699 15.8096 -39.8398 35.9199 -53.3896 59.0703c-41.3096 73.1299 -41.3096 162.55 0 235.68c13.5498 23.1504 31.7197 43.25 53.3896 59.0596c18.25 13.5098 38.3604 24.2998 59.7002 32.04c20.2598 7.58984 41.4102 12.54 62.9297 14.7305
c6.92969 0.830078 13.8896 1.24023 20.8594 1.25h0.0996094c6.96973 -0.00976562 13.9297 -0.419922 20.8398 -1.25c21.5303 -2.19043 42.6904 -7.14062 62.9502 -14.7305c21.3496 -7.74023 41.4492 -18.5303 59.6992 -32.04
c21.6699 -15.7998 39.8496 -35.9102 53.3896 -59.0605zM394.782 134.551c20.9004 58.4502 20.8896 122.341 -0.0107422 180.801c-6.76953 19.75 -15.9492 38.5996 -27.3389 56.1094c-10.1602 16.3701 -23.5498 30.4902 -39.3701 41.4902
c-21.5898 14.5996 -47.0596 22.4199 -73.1299 22.46h-0.0595703l-1.50977 -0.0898438c-25.7803 -0.219727 -50.9004 -8.12012 -72.1699 -22.6797c-15.6504 -10.9805 -28.9004 -25.0303 -38.9307 -41.2998c-11.3301 -17.4697 -20.4697 -36.2695 -27.2197 -55.96
c-20.9102 -58.46 -20.9102 -122.35 0 -180.8c6.75977 -19.7598 15.9395 -38.6094 27.3291 -56.1094c10.1602 -16.3701 23.5605 -30.4902 39.3701 -41.5c21.5596 -14.5703 46.9697 -22.3906 73 -22.4502h0.30957l1.41016 0.0898438
c25.7695 0.219727 50.8896 8.10938 72.1592 22.6689c15.6504 10.9805 28.9004 25.0303 38.9404 41.2998c11.3203 17.4697 20.4707 36.2695 27.2207 55.9697z" />
    <glyph glyph-name="p" unicode="p" horiz-adv-x="566" 
d="M507.687 342.152c40.5684 -72.8945 40.5596 -161.533 -0.00878906 -234.428c-13.3701 -23.085 -31.3105 -43.1992 -52.7236 -59.1113c-18.0547 -13.6016 -38.002 -24.4883 -59.208 -32.3154c-20.124 -7.70117 -41.1719 -12.7295 -62.6045 -14.9561
c-6.8291 -0.828125 -13.7021 -1.25 -20.582 -1.26367h-0.231445c-60.6016 1.10059 -116.955 31.3535 -151.357 81.2559v-259.015c0 -26.8516 11.1895 -52.4893 30.8779 -70.748l3.03906 -2.81738h-140.213l3.03906 2.81738c19.6904 18.2617 30.8799 43.9033 30.8779 70.7588
v477.734c-0.0996094 18.9043 -2.03906 37.7549 -5.79004 56.2842c-2.26953 12.3926 -5.87695 24.5029 -10.7588 36.1172c-10.7949 27.2373 -37.7871 44.5293 -67.043 42.9492v14.4736c19.1084 0.0322266 38.1221 -2.68457 56.457 -8.06738
c15.1738 -4.51465 29.5742 -11.3076 42.708 -20.1475c15.4922 -10.7148 28.2607 -24.9082 37.2842 -41.4434c4.4082 -7.83789 8.03711 -16.0889 10.8359 -24.6348c35.7412 56.998 94.1387 94.2539 160.053 94.2539h0.0869141
c7.47754 -0.0195312 14.9453 -0.522461 22.3574 -1.50586c21.0957 -2.35742 41.7998 -7.42285 61.6006 -15.0723c21.0342 -7.7959 40.8184 -18.6211 58.7256 -32.1328c21.3545 -15.8818 39.2451 -35.9531 52.5781 -58.9863zM450.429 134.771l0.000976562 -0.0576172
c20.3984 58.3809 20.3984 121.953 0 180.334c-6.63184 19.6943 -15.6123 38.5176 -26.748 56.0625c-9.93164 16.375 -23.1338 30.5264 -38.7803 41.5693c-21.3232 14.6797 -46.5879 22.5674 -72.4756 22.627h-0.106445c-65.3154 0 -122.689 -39.8613 -154.898 -99.5811
c2.26172 -11.7686 3.45312 -23.7178 3.56055 -35.7012v-192.319c32.7783 -56.1582 88.3867 -93.1826 151.348 -93.1826h0.106445c25.8877 0.0595703 51.1523 7.94727 72.4756 22.627c15.6445 11.043 28.8428 25.1943 38.7705 41.5693
c11.1367 17.541 20.1172 36.3613 26.7471 56.0527z" />
    <glyph glyph-name="q" unicode="q" horiz-adv-x="566" 
d="M503.643 441.8c18.3262 5.37305 37.3311 8.08398 56.4287 8.04785v-14.4736c-29.2568 1.58594 -56.2529 -15.708 -67.043 -42.9492c-4.88574 -11.6143 -8.49609 -23.7246 -10.7686 -36.1182c-3.74805 -18.5293 -5.68652 -37.3789 -5.78906 -56.2832v-477.726
c0 -26.9258 11.25 -52.627 31.0322 -70.8936l2.89453 -2.66309h-140.213l2.89453 2.66309c19.7822 18.2666 31.0322 43.9678 31.0322 70.8936v259.054c-34.3926 -49.9141 -90.7432 -80.1816 -151.349 -81.2939h-0.241211
c-6.87012 0.0107422 -13.7334 0.429688 -20.5537 1.25391c-21.4355 2.22559 -42.4863 7.25391 -62.6143 14.9561c-21.2061 7.82715 -41.1533 18.7139 -59.208 32.3154c-21.4131 15.9121 -39.3535 36.0264 -52.7236 59.1113c-40.5645 72.8955 -40.5645 161.581 0 234.477
c13.3691 23.0889 31.3096 43.2061 52.7236 59.1211c18.0547 13.6016 38.002 24.4883 59.208 32.3154c20.124 7.70117 41.1719 12.7295 62.6045 14.9561c6.82324 0.828125 13.6895 1.25 20.5625 1.26367h0.241211c65.9141 0 124.359 -37.2461 160.062 -94.2539
c2.79883 8.5459 6.42773 16.7969 10.8359 24.6348c9.02148 16.5332 21.7871 30.7266 37.2754 41.4443c13.1338 8.83887 27.5342 15.6318 42.708 20.1475zM404.111 300.034c0.0966797 12.0059 1.28223 23.9756 3.54102 35.7676
c-32.209 59.7197 -89.583 99.5811 -154.898 99.5811h-0.106445l-1.42773 -0.0869141c-25.6221 -0.231445 -50.5771 -8.19531 -71.5967 -22.8496c-15.4814 -11.0244 -28.5303 -25.1143 -38.3369 -41.3945c-11.0752 -17.5273 -20.0156 -36.3154 -26.6318 -55.9648
c-20.3926 -58.376 -20.3926 -121.94 0 -180.316c6.63184 -19.6904 15.6123 -38.5098 26.7471 -56.0518c9.93164 -16.375 23.1328 -30.5264 38.7793 -41.5693c21.3203 -14.6777 46.5811 -22.5654 72.4658 -22.627h0.116211c62.9609 0 118.541 37.0244 151.349 93.1826
v192.329z" />
    <glyph glyph-name="r" unicode="r" horiz-adv-x="351" 
d="M341.407 411.8c0.483398 -1.43457 0.774414 -2.93066 0.867188 -4.44238c0.267578 -6.14453 -1.83984 -12.1562 -5.88574 -16.7891c-5.41895 -6.52539 -11.6816 -12.3008 -18.623 -17.1748c-4.62793 -3.45605 -9.86523 -6.00977 -15.4385 -7.52734
c-0.289062 -0.0966797 -0.578125 -0.0966797 -0.771484 -0.193359c-2.04688 -0.460938 -4.18066 -0.361328 -6.17578 0.289062h-0.0966797c-0.884766 0.375977 -1.7002 0.897461 -2.41211 1.54395c-9.15234 12.0518 -23.4648 19.0654 -38.5967 18.9131
c-19.249 -0.941406 -37.6855 -8.04492 -52.5889 -20.2627c-17.6904 -13.6855 -31.6045 -31.6504 -40.4307 -52.2021c0.385742 -4.3418 0.674805 -9.2627 0.674805 -13.8945h0.0966797v-226.468c-0.0234375 -26.9268 11.2061 -52.6387 30.9736 -70.9219l2.89453 -2.70215
h-140.203l2.89453 2.70215c19.7979 18.2705 31.0615 43.9814 31.0703 70.9219v226.468h-0.0966797c-0.0585938 18.8975 -1.99805 37.7422 -5.78906 56.2559c-2.26074 12.3799 -5.85156 24.4795 -10.71 36.0889c-10.8271 27.2188 -37.8115 44.4961 -67.0625 42.9395v14.4736
c19.1025 0.0429688 38.1123 -2.6543 56.4482 -8.00977c15.1807 -4.53809 29.5908 -11.3369 42.7461 -20.167c15.4766 -10.7021 28.2324 -24.8789 37.2471 -41.3955c6.83203 -12.2568 11.8076 -25.459 14.7637 -39.1758c7.10156 15.2256 15.5967 29.7617 25.377 43.4219
c15.0859 22.1885 36.8545 38.9883 62.1416 47.957c22.0771 7.56348 46.1006 7.18848 67.9307 -1.06055c3.71191 -1.24609 7.35156 -2.69531 10.9033 -4.3418l10.1318 -5.59668c3.79297 -2.01562 6.58594 -5.50684 7.71973 -9.64941z" />
    <glyph glyph-name="s" unicode="s" horiz-adv-x="360" 
d="M330.808 126.1c1.26953 -15.5996 -0.87793 -31.2939 -6.28809 -45.9844c-9.87012 -26.2402 -29.46 -47.6602 -54.71 -59.8301c-25.5996 -12.2197 -53.46 -18.9697 -81.8096 -19.8301c-3.96973 -0.230469 -7.87988 -0.390625 -11.7402 -0.390625h-0.589844
c-18.9902 -0.0595703 -37.9307 1.9707 -56.4707 6.06055c-35.4902 8.55957 -67.7598 27.1494 -92.9697 53.5498c-5.29004 5.49023 -0.879883 16.3506 10.2803 23.751c7.01953 4.7002 14.4492 8.75977 22.1992 12.1396c12.3604 5.30957 22.21 6.43945 23.71 1.76953
c8.96973 -26.4297 25.4395 -49.6895 47.4092 -66.9092c13.2695 -10.1602 29.4795 -15.7402 46.1895 -15.9199h1.75977c28.8096 -0.719727 57.0098 8.41992 79.9199 25.9199c15.21 12.0195 24.2295 30.2197 24.5791 49.5996
c0.150391 8.95996 -1.41992 17.8799 -4.62988 26.25c-1.67969 4.2998 -3.81934 8.39941 -6.37891 12.2393c-1.30957 1.9502 -2.72949 3.81055 -4.25977 5.59082c-1.40039 1.5498 -2.91992 2.99023 -4.53027 4.31055c-11.21 8.51953 -23.3301 15.7695 -36.1504 21.6094
c-17.6299 8.94043 -35.5 17.5508 -58.8096 28.501c-46.0996 21.5996 -84.9893 45.3896 -108.819 77.3301c-11.5596 14.8799 -19.3691 32.3096 -22.7793 50.8398c-2.63965 15.7803 -1.40918 31.9707 3.57129 47.1709c8.78027 26.3096 26.6602 48.6299 50.4199 62.9297
c28.4102 16.2402 60.8105 24.21 93.5107 23.0098h0.330078c19.3096 0.150391 38.5498 -2.34961 57.1699 -7.43945c17.8301 -5.29004 34.3398 -14.2998 48.4297 -26.4395c14.5098 -12.3896 26.9502 -27.0098 36.8701 -43.3096
c4.08008 -6.50977 -2.58984 -16.5195 -15.1396 -21.3398c-7.9502 -2.84961 -16.1406 -4.97949 -24.4805 -6.36914c-13.1904 -2.53027 -22.8809 -1.68066 -23.4307 3.20898c-2.16016 27 -14.4004 52.21 -34.29 70.6104c-12.75 10.6699 -28.8203 16.5498 -45.4502 16.6201
h-0.25c-4.46973 0 -8.79004 -0.160156 -12.9697 -0.5h-0.0703125c-24.4404 -0.950195 -47.79 -10.4102 -66 -26.75c-14.2598 -13.5996 -22.21 -32.5293 -21.9697 -52.2393c0.599609 -18.9697 9.5293 -36.7197 24.4092 -48.5
c17.5596 -16.4697 46.7393 -32.3594 92.1494 -53.4893c21.0996 -9.78027 41.6592 -20.7002 61.5791 -32.7197c18.7998 -10.4902 35.5801 -24.2598 49.54 -40.6494c3.49023 -4.42969 6.58984 -9.16016 9.22949 -14.1406c6.5498 -12.5 10.54 -26.1904 11.7305 -40.2607z" />
    <glyph glyph-name="t" unicode="t" horiz-adv-x="231" 
d="M220.051 435.393l-82.04 -0.000976562v-276.558h0.106445c0.204102 -19.7578 1.60547 -39.4854 4.19727 -59.0732c1.5459 -12.9609 4.04199 -25.79 7.46875 -38.3848c2.84668 -11.5107 8.63574 -22.084 16.7998 -30.6836
c11.6221 -11.4365 27.6016 -17.3213 43.8652 -16.1533v-14.4736c-19.4658 -0.731445 -38.8418 2.99121 -56.6504 10.8838c-14.5801 6.2793 -28.002 14.9619 -39.7061 25.6865c-13.5352 12.3027 -24.4502 27.209 -32.0928 43.8271
c-10.9844 24.6465 -16.5264 51.3711 -16.249 78.3525h-0.106445v276.596h-54.6436c66.1455 28.0117 127.032 155.971 127.032 155.971v-141.516h82.0186v-14.4736z" />
    <glyph glyph-name="u" unicode="u" horiz-adv-x="495" 
d="M436.885 73.5742c0.0078125 -26.9248 11.2637 -52.626 31.0508 -70.8867l2.89453 -2.66309h-106.335v48.6035c-30.1504 -29.9834 -71.0615 -46.6309 -113.581 -46.2188h-6.03125c-19.8379 -0.128906 -39.5859 2.66406 -58.6094 8.28906
c-15.8018 4.82422 -30.6699 12.2959 -43.9707 22.0967c-15.627 11.7646 -28.248 27.0605 -36.8311 44.6377c-12.1084 25.6748 -18.1846 53.7793 -17.7637 82.1631v140.232l-0.116211 0.211914c-0.0996094 18.9043 -2.03906 37.7549 -5.79004 56.2842
c-2.26855 12.3936 -5.87598 24.5039 -10.7598 36.1182c-10.792 27.2393 -37.7861 44.5322 -67.042 42.9492v14.4736c19.1084 0.0322266 38.1221 -2.68457 56.457 -8.06738c15.1738 -4.51465 29.5742 -11.3076 42.708 -20.1475
c15.4922 -10.7158 28.2607 -24.9092 37.2842 -41.4443c13.209 -24.6387 19.9365 -52.2314 19.5498 -80.1846h0.116211v-140.532c0.0791016 -20.3359 1.74414 -40.6348 4.97949 -60.7119c1.95508 -12.9521 5.37988 -25.6396 10.209 -37.8154
c4.49512 -11.4385 11.8711 -21.5205 21.4121 -29.2666c11.6172 -8.58008 25.4736 -13.6074 39.8896 -14.4736c2.75 -0.173828 5.4707 -0.395508 8.30762 -0.395508h6.03125c44.1055 -0.538086 86.001 19.2656 113.581 53.6885v305.814
c0 26.9258 -11.25 52.627 -31.0322 70.8936l-2.89453 2.66309h140.213l-2.89453 -2.66309c-19.7822 -18.2666 -31.0322 -43.9678 -31.0322 -70.8936v-302.755z" />
    <glyph glyph-name="v" unicode="v" horiz-adv-x="529" 
d="M435.826 449.891l93.4922 0.0380859c-36.3789 -20.6025 -65.4785 -51.9746 -83.292 -89.7979l-169.479 -359.866l-138.949 293.777l0.328125 0.154297c-10.4404 24.1719 -19.1826 42.1973 -26.8438 56.9316c-6.99902 13.8311 -14.8965 27.1885 -23.6416 39.9873
c-7.85938 11.7344 -18.04 21.7344 -29.9131 29.3818c-16.4082 10.0059 -35.3115 15.168 -54.5283 14.8896v14.4746c21.3486 -0.0957031 42.6162 -2.6377 63.3857 -7.5752c16.8418 -3.7832 33.1416 -9.66699 48.5166 -17.5137
c17.8262 -9.22363 33.874 -21.5371 47.3975 -36.3682c19.1328 -21.5537 34.4297 -46.2275 45.2256 -72.9502l100.931 -213.465l138.949 294.993c8.59375 18.2207 3.83984 39.9434 -11.5781 52.9082z" />
    <glyph glyph-name="w" unicode="w" horiz-adv-x="809" 
d="M715.809 449.891l93.4824 0.0185547c-35.8818 -21.0869 -64.5654 -52.5117 -82.2988 -90.1641l-169.383 -359.673l-145.781 308.271l-145.568 -308.396l-143.388 303.368l0.125 0.0576172c-20.6875 44.8604 -30.5684 68.0674 -42.4561 88.4473
c-6.46191 11.5508 -15.4424 21.498 -26.2744 29.1035c-15.2363 9.8877 -33.1084 14.9336 -51.2666 14.4746v14.4746c20.4492 0.0693359 40.8262 -2.42383 60.6553 -7.4209c16.2188 -4.01465 31.7891 -10.3008 46.249 -18.6719
c26.1973 -15.3809 52.7422 -40.334 78.1582 -89.6816l0.22168 0.106445l7.33301 -15.5264l0.203125 -0.424805l102.417 -216.649l145.568 308.405l145.703 -308.184l138.226 293.468c8.85449 18.7988 3.96094 41.2021 -11.9258 54.5967z" />
    <glyph glyph-name="x" unicode="x" horiz-adv-x="481" 
d="M391.8 87.7568c10.8721 -15.624 23.4746 -29.9697 37.5664 -42.7656l49.4521 -44.9375h-140.213c9.0918 8.39258 10.6035 22.2041 3.54199 32.3643l-108.148 155.568l-98.8086 -142.098c-10.1162 -14.5518 -7.49023 -34.4121 6.05957 -45.835h-93.4727
c38.3633 19.3789 71.2988 48.0039 95.8359 83.293l81.5742 117.317l-66.1455 95.1631l0.298828 0.211914c-30.9062 46.4326 -46.5186 71.6084 -63.0479 93.1748c-9.09766 12.1406 -20.2852 22.5645 -33.0391 30.7812c-17.6133 10.4424 -37.7803 15.7871 -58.2529 15.4395
v14.4746c22.6035 -0.0322266 45.123 -2.75977 67.0811 -8.125c17.5469 -4.29883 34.5889 -10.4443 50.8408 -18.334c29.0635 -14.5605 59.7773 -37.3721 95.4795 -86.4004h0.0576172l2.0459 -2.89453c3.05859 -4.26465 6.14648 -8.6748 9.27246 -13.3359l39.4941 -56.8066
l97.3799 140.042c10.1162 14.5518 7.49023 34.4121 -6.05957 45.835h93.4727c-38.3633 -19.3789 -71.2988 -48.0039 -95.8359 -83.293l-80.1465 -115.263z" />
    <glyph glyph-name="y" unicode="y" horiz-adv-x="529" 
d="M529.33 449.674l0.0322266 0.0507812c-36.8701 -20.0869 -66.3779 -51.4023 -84.2383 -89.4004c-69.8994 -148.705 -237.035 -503.914 -240.181 -509.896l-0.202148 -0.357422c-10.4287 -21.4805 -24.3594 -41.0762 -41.2217 -57.9824l-4.27441 -3.85938
c-1.38965 -1.21582 -3.02051 -2.79785 -5.03711 -4.42871l-7.15039 -5.05664c-13.415 -9.15723 -28.459 -15.6621 -44.3193 -19.1641c-16.2715 -3.55273 -33.0078 -4.46777 -49.5693 -2.71191c-7.71191 0.71875 -15.3555 2.04492 -22.8594 3.9668
c-9.76465 2.36426 -13.6436 15.1494 -8.31738 27.3652c3.31934 7.77832 7.50488 15.1582 12.4766 22c8.08594 10.9131 16.3936 16.6064 21.0537 13.3936c3.89844 -2.77637 8.02344 -5.21973 12.3311 -7.30469c9.78418 -4.92578 20.3037 -8.22754 31.1475 -9.77539
c11.2754 -1.56738 22.749 -0.912109 33.7725 1.92969l6.40723 1.69824c1.87207 0.675781 3.42578 1.40918 4.7666 1.93066l4.2168 1.71777c19.0723 9.12891 34.5312 24.3906 43.9043 43.3438c3.73438 7.13086 35.1426 73.5078 75.6699 159.589l-132.494 280.215
l0.202148 0.0966797c-10.7686 25.252 -19.5107 43.6816 -27.1045 58.5225c-6.58301 13.3086 -14.1191 26.124 -22.5498 38.3457c-7.66504 11.2705 -17.6787 20.748 -29.3535 27.7812c-16.2744 9.22559 -34.7354 13.8926 -53.4385 13.5088v14.4736
c20.6768 0.0126953 41.3066 -1.97461 61.6006 -5.93359c16.6357 -3.06543 32.7871 -8.3418 48.0244 -15.6895c30.1543 -14.8506 63.792 -42.7852 90.9453 -106.287l104.116 -220.196c51.6045 109.779 107.782 229.526 139.412 296.975
c8.26172 17.626 3.65039 38.6035 -11.2412 51.1406h93.4727z" />
    <glyph glyph-name="y" unicode="&#xff;" horiz-adv-x="529" 
d="M529.33 449.674l0.0322266 0.0507812c-36.8701 -20.0869 -66.3779 -51.4023 -84.2383 -89.4004c-69.8994 -148.705 -237.035 -503.914 -240.181 -509.896l-0.202148 -0.357422c-10.4287 -21.4805 -24.3594 -41.0762 -41.2217 -57.9824l-4.27441 -3.85938
c-1.38965 -1.21582 -3.02051 -2.79785 -5.03711 -4.42871l-7.15039 -5.05664c-13.415 -9.15723 -28.459 -15.6621 -44.3193 -19.1641c-16.2715 -3.55273 -33.0078 -4.46777 -49.5693 -2.71191c-7.71191 0.71875 -15.3555 2.04492 -22.8594 3.9668
c-9.76465 2.36426 -13.6436 15.1494 -8.31738 27.3652c3.31934 7.77832 7.50488 15.1582 12.4766 22c8.08594 10.9131 16.3936 16.6064 21.0537 13.3936c3.89844 -2.77637 8.02344 -5.21973 12.3311 -7.30469c9.78418 -4.92578 20.3037 -8.22754 31.1475 -9.77539
c11.2754 -1.56738 22.749 -0.912109 33.7725 1.92969l6.40723 1.69824c1.87207 0.675781 3.42578 1.40918 4.7666 1.93066l4.2168 1.71777c19.0723 9.12891 34.5312 24.3906 43.9043 43.3438c3.73438 7.13086 35.1426 73.5078 75.6699 159.589l-132.494 280.215
l0.202148 0.0966797c-10.7686 25.252 -19.5107 43.6816 -27.1045 58.5225c-6.58301 13.3086 -14.1191 26.124 -22.5498 38.3457c-7.66504 11.2705 -17.6787 20.748 -29.3535 27.7812c-16.2744 9.22559 -34.7354 13.8926 -53.4385 13.5088v14.4736
c20.6768 0.0126953 41.3066 -1.97461 61.6006 -5.93359c16.6357 -3.06543 32.7871 -8.3418 48.0244 -15.6895c30.1543 -14.8506 63.792 -42.7852 90.9453 -106.287l104.116 -220.196c51.6045 109.779 107.782 229.526 139.412 296.975
c8.26172 17.626 3.65039 38.6035 -11.2412 51.1406h93.4727z" />
    <glyph glyph-name="z" unicode="z" horiz-adv-x="389" 
d="M343.346 45.5244l29.4385 31.8428v-77.291h-360.785l257.538 435.278h-134.288c-26.9014 -0.000976562 -52.5811 -11.2324 -70.8447 -30.9844l-29.4395 -31.8428v77.291h327.303l-257.538 -435.278h167.771c26.9014 0.000976562 52.5811 11.2324 70.8447 30.9844z" />
    <glyph glyph-name="braceleft" unicode="{" horiz-adv-x="337" 
d="M256.418 -156.859c11.3809 -5.61719 23.7627 -8.91699 36.4307 -9.6875l0.125 -14.4736c-14.6084 0.756836 -29.0391 3.55371 -42.8721 8.30859c-5.91113 1.8623 -11.6914 4.11914 -17.3008 6.75391l-8.02832 3.55078l-7.34277 4.13965
c-9.32227 5.2041 -18.2637 11.0635 -26.7568 17.5332l-11.5117 10.3438c-4.0293 3.3877 -7.71973 7.15918 -11.0195 11.2607l-10.4502 12.708c-3.47949 4.6123 -6.61719 9.47266 -9.38867 14.542c-2.94336 5.19141 -6.42676 10.6338 -9.12891 16.5488
c-2.46973 5.94434 -4.96875 12.2939 -7.50684 19.0488l-3.85938 10.5078l-2.66309 11.1934c-1.76562 7.70996 -3.51172 15.9307 -5.22949 24.7207c-1.10938 8.7041 -1.75586 17.9189 -2.52734 27.7803l-0.964844 15.2461
c0.134766 5.14648 0.276367 10.4531 0.424805 15.9209c0.392578 10.9355 0.881836 21.2285 1.4668 30.8779c0.521484 8.55859 1.12012 15.8535 1.83398 23.1582c0.231445 7.02441 0.462891 13.6338 0.674805 19.8965c-0.125 6.08887 -0.241211 11.8301 -0.357422 17.2822
c-0.428711 17.7236 -3.87793 35.2441 -10.1992 51.8076c-6.26758 15.4668 -16.7393 28.8701 -30.2305 38.6934c-8.50977 6.20312 -17.7812 11.2881 -27.5869 15.1299c-12.4785 4.66797 -25.3467 8.21973 -38.4531 10.6143l1.34082 7.11133l-1.34082 7.11133
l1.42773 0.289062c23.4043 3.43945 45.6943 12.251 65.124 25.7441c13.3271 9.83008 23.6523 23.1787 29.8174 38.5488c6.26758 16.5391 9.69043 34.0195 10.123 51.7012l0.357422 17.2627c-0.211914 6.25293 -0.433594 12.8623 -0.674805 19.8867
c-0.723633 7.33301 -1.3125 14.6182 -1.83398 23.1582c-0.591797 9.64941 -1.08105 19.9424 -1.4668 30.8779c-0.148438 5.46777 -0.290039 10.7744 -0.424805 15.9209l0.964844 15.2461c0.771484 9.86133 1.41797 19.0957 2.52734 27.7803
c1.71777 8.79004 3.46387 17.002 5.22949 24.7217l2.66309 11.1934l3.85938 10.5078c2.53809 6.77344 5.04688 13.1035 7.50781 19.0479c2.70215 5.93457 6.18555 11.3672 9.12891 16.5488c2.77148 5.06934 5.90918 9.92969 9.3877 14.542l10.4502 12.708
c3.2998 4.10156 6.99023 7.87305 11.0195 11.2607l11.5117 10.3438c8.49414 6.46875 17.4355 12.3281 26.7578 17.5332l7.34277 4.13965l8.02832 3.55078c5.60938 2.63574 11.3896 4.89258 17.3008 6.75488c13.833 4.75488 28.2637 7.55176 42.8721 8.30859l-0.125 -14.4736
c-12.668 -0.738281 -25.0615 -3.99609 -36.4551 -9.58203c-4.91895 -2.27441 -9.58594 -5.05859 -13.9238 -8.30762l-6.0498 -4.41895c-1.83301 -1.63086 -3.50195 -3.37695 -5.18066 -5.01758c-6.21387 -6.16602 -11.6719 -13.0488 -16.2598 -20.5039
c-1.94922 -3.75391 -3.68652 -7.55566 -5.45215 -11.2129c-1.94824 -3.62988 -3.48828 -7.46484 -4.59277 -11.4346l-3.85938 -12.0518c-1.24316 -4.32617 -2.23535 -8.7207 -2.97168 -13.1611c-0.858398 -4.6123 -2.20898 -9.07031 -2.98047 -14.0977
c-0.569336 -5.16211 -1.23535 -10.4883 -2.06543 -16.0361l-1.36035 -8.50098c-0.173828 -3.05566 -0.350586 -6.19141 -0.530273 -9.4082c-0.415039 -6.39746 -0.974609 -13.1426 -1.71777 -20.2637c-0.116211 -7.3623 -0.232422 -15.1689 -0.367188 -23.4678
c-0.148438 -4.14258 -0.302734 -8.41406 -0.463867 -12.8145c0.186523 -4.49609 0.379883 -9.13086 0.579102 -13.9043c0.357422 -9.54297 0.560547 -18.5264 0.637695 -27.0176c0.183594 -9.62012 0.270508 -19.3848 0.183594 -28.1748
c-0.530273 -9.04102 -1.52441 -17.6191 -2.40234 -25.6084c-1.30273 -8.0957 -3.19434 -15.7861 -4.8252 -22.9268c-6.39258 -24.9512 -19.2803 -47.7637 -37.3516 -66.1172c-15.5137 -15.0098 -34.0137 -26.5859 -54.2959 -33.9746
c-13.1748 -5.03027 -26.6963 -9.09961 -40.459 -12.1768c13.9629 -3.16309 27.6807 -7.32324 41.0479 -12.4482c20.1113 -7.39551 38.4502 -18.9229 53.833 -33.8398c18.0107 -18.3223 30.8545 -41.083 37.2275 -65.9727c1.63086 -7.13086 3.52246 -14.8213 4.8252 -22.917
c0.887695 -7.97949 1.88184 -16.5576 2.40332 -25.5986c0.0869141 -8.78125 0 -18.5176 -0.183594 -28.167c-0.0673828 -8.48145 -0.279297 -17.4648 -0.636719 -27.0176c-0.199219 -4.7666 -0.392578 -9.40137 -0.579102 -13.9043
c0.161133 -4.40039 0.31543 -8.67188 0.463867 -12.8145c0.125 -8.29883 0.25 -16.0957 0.366211 -23.4678c0.75293 -7.10156 1.30273 -13.8369 1.71777 -20.2637c0.179688 -3.22266 0.356445 -6.3584 0.530273 -9.40723l1.36035 -8.50098
c0.830078 -5.54785 1.50586 -10.874 2.06543 -16.0361c0.771484 -5.03711 2.12207 -9.49512 2.98047 -14.0977c0.736328 -4.44043 1.72852 -8.83496 2.97168 -13.1611l3.85938 -12.0518c1.10449 -3.96973 2.64453 -7.80469 4.59277 -11.4346
c1.77539 -3.66699 3.52148 -7.45898 5.45117 -11.2129c4.58691 -7.45508 10.0449 -14.3379 16.2588 -20.5039c1.66895 -1.64062 3.34766 -3.38672 5.18066 -5.01758l6.0498 -4.41016c4.33789 -3.24902 9.00488 -6.0332 13.9238 -8.30762z" />
    <glyph glyph-name="verticalbar" unicode="|" horiz-adv-x="125" 
d="M69.4736 -173.679h-14.4736v959.436h14.4736v-959.436z" />
    <glyph glyph-name="braceright" unicode="}" horiz-adv-x="337" 
d="M322.988 270.873l-1.32812 -6.97754l1.34082 -7.11133l-1.42773 -0.289062c-23.4043 -3.43848 -45.6943 -12.25 -65.123 -25.7441c-13.3271 -9.83008 -23.6523 -23.1787 -29.8174 -38.5488c-6.26758 -16.5391 -9.68945 -34.0195 -10.1221 -51.7012l-0.357422 -17.2627
c0.211914 -6.25293 0.433594 -12.8623 0.674805 -19.8867c0.723633 -7.33301 1.3125 -14.6182 1.83398 -23.1582c0.591797 -9.64941 1.08105 -19.9424 1.4668 -30.8779c0.148438 -5.46777 0.290039 -10.7744 0.424805 -15.9209
c-0.31543 -5.22949 -0.636719 -10.3115 -0.964844 -15.2451c-0.771484 -9.86133 -1.41797 -19.0957 -2.52734 -27.7803c-1.71777 -8.79004 -3.46387 -17.002 -5.22949 -24.7217l-2.66309 -11.1934l-3.85938 -10.5078c-2.53809 -6.77344 -5.04688 -13.1035 -7.50781 -19.0479
c-2.70215 -5.93457 -6.18555 -11.3672 -9.12891 -16.5488c-2.77246 -5.06836 -5.91016 -9.92871 -9.38867 -14.541l-10.4502 -12.708c-3.2998 -4.10156 -6.99023 -7.87305 -11.0195 -11.2607l-11.5117 -10.3438c-8.49316 -6.46973 -17.4346 -12.3291 -26.7568 -17.5332
l-7.34277 -4.13965l-8.02832 -3.55078c-5.60938 -2.63477 -11.3896 -4.8916 -17.3008 -6.75488c-13.833 -4.75488 -28.2637 -7.55176 -42.8721 -8.30859l0.125 14.4736c12.668 0.738281 25.0615 3.99609 36.4551 9.58203c4.91895 2.27441 9.58594 5.05859 13.9238 8.30762
l6.0498 4.41016c1.83301 1.63086 3.50195 3.37695 5.18066 5.01758c6.21387 6.16602 11.6719 13.0488 16.2588 20.5039c1.94922 3.75391 3.67676 7.55566 5.45215 11.2129c1.94824 3.62988 3.48828 7.46484 4.59277 11.4336l3.85938 12.0518
c1.24316 4.32617 2.23535 8.7207 2.97168 13.1611c0.858398 4.6123 2.20898 9.07031 2.98047 14.0977c0.569336 5.16211 1.23535 10.4883 2.06543 16.0361l1.36035 8.50098l0.530273 9.4082c0.415039 6.39746 0.974609 13.1426 1.71777 20.2637
c0.116211 7.3623 0.232422 15.1689 0.367188 23.4678c0.148438 4.14258 0.302734 8.41406 0.463867 12.8145c-0.186523 4.49609 -0.379883 9.13086 -0.579102 13.9043c-0.357422 9.54297 -0.560547 18.5264 -0.637695 27.0176
c-0.183594 9.62012 -0.270508 19.3848 -0.183594 28.1748c0.530273 9.04102 1.52441 17.6191 2.40234 25.6084c1.30273 8.0957 3.19434 15.7861 4.8252 22.9268c6.39258 24.9512 19.2803 47.7637 37.3516 66.1172c15.5137 15.0098 34.0137 26.5859 54.2959 33.9746
c13.1748 5.03027 26.6963 9.09961 40.459 12.1768c-13.9629 3.16309 -27.6807 7.32324 -41.0479 12.4482c-20.1104 7.39648 -38.4482 18.9238 -53.833 33.8389c-18.0078 18.3242 -30.8506 41.084 -37.2266 65.9717c-1.63086 7.13086 -3.52246 14.8213 -4.8252 22.917
c-0.887695 7.97949 -1.88184 16.5576 -2.40332 25.5986c-0.0869141 8.78125 0 18.5176 0.183594 28.167c0.0673828 8.48145 0.279297 17.4648 0.636719 27.0176c0.199219 4.7666 0.392578 9.40137 0.579102 13.9043c-0.161133 4.40039 -0.31543 8.67188 -0.463867 12.8145
c-0.125 8.29883 -0.25 16.0957 -0.366211 23.4678c-0.75293 7.10156 -1.30273 13.8369 -1.71777 20.2637l-0.530273 9.4082l-1.36035 8.50098c-0.830078 5.54785 -1.50586 10.874 -2.06543 16.0361c-0.771484 5.03711 -2.12207 9.49512 -2.98047 14.0977
c-0.736328 4.44043 -1.72852 8.83496 -2.97168 13.1611l-3.85938 12.0518c-1.10449 3.96875 -2.64453 7.80371 -4.59277 11.4346c-1.77539 3.66699 -3.52148 7.45898 -5.45117 11.2129c-4.58789 7.45508 -10.0459 14.3379 -16.2598 20.5039
c-1.66895 1.64062 -3.34766 3.38672 -5.18066 5.01758l-6.0498 4.41895c-4.33789 3.24902 -9.00488 6.0332 -13.9238 8.30762c-11.3936 5.58594 -23.7871 8.84375 -36.4551 9.58203l-0.125 14.4736c14.6084 -0.756836 29.0391 -3.55371 42.8721 -8.30859
c5.91113 -1.8623 11.6914 -4.11914 17.3008 -6.75488l8.02832 -3.55078l7.34277 -4.13965c9.32227 -5.20508 18.2637 -11.0645 26.7578 -17.5332l11.5117 -10.3438c4.0293 -3.3877 7.71973 -7.15918 11.0195 -11.2607l10.46 -12.7373
c3.47852 -4.6123 6.61621 -9.47266 9.38867 -14.541c2.94336 -5.19141 6.42676 -10.6338 9.12891 -16.5488c2.46973 -5.94434 4.96875 -12.2939 7.50684 -19.0488l3.85938 -10.5078l2.66309 -11.1934c1.76562 -7.70996 3.52148 -15.9307 5.22949 -24.7207
c1.10938 -8.7041 1.75586 -17.9189 2.52734 -27.7803c0.295898 -4.92773 0.617188 -10.0098 0.964844 -15.2461c-0.134766 -5.14648 -0.276367 -10.4531 -0.424805 -15.9209c-0.392578 -10.9355 -0.881836 -21.2285 -1.4668 -30.8779
c-0.521484 -8.55859 -1.12012 -15.8535 -1.83398 -23.1582c-0.231445 -7.02441 -0.462891 -13.6338 -0.674805 -19.8965c0.125 -6.08887 0.241211 -11.8301 0.357422 -17.2822c0.428711 -17.7236 3.87793 -35.2441 10.1992 -51.8076
c6.26758 -15.4668 16.7393 -28.8701 30.2305 -38.6934c8.50977 -6.20312 17.7812 -11.2881 27.5869 -15.1299c12.4785 -4.66797 25.3467 -8.21973 38.4531 -10.6133z" />
    <glyph glyph-name="asciitilde" unicode="~" horiz-adv-x="579" 
d="M561.156 378.935l-6.01855 -4.18945c-12.0713 -8.38477 -22.4443 -16.1426 -31.6113 -23.4756c-8.52734 -7.26074 -17.4189 -14.082 -26.6416 -20.4365c-16.4941 -11.1436 -34.1973 -20.3818 -52.7715 -27.5391c-21.625 -8.35156 -44.541 -12.8672 -67.7178 -13.3447
c-15.874 -0.333984 -31.7354 1.12891 -47.2812 4.36133c-20.9199 4.42969 -40.8926 12.5215 -58.9961 23.9014l-11 6.92773c-5.76758 3.49414 -11.7715 6.58301 -17.9678 9.24414c-2.91992 1.40527 -5.92285 2.62988 -8.99316 3.66699
c-10.9873 4.16504 -22.2373 7.60156 -33.6768 10.2861c-18.082 4.40527 -36.4658 7.46582 -55 9.15723c-16.9072 1.81055 -34 0.664062 -50.5137 -3.3877c-4.39062 -1.24512 -8.8584 -2.83691 -13.5674 -4.55469c-4.46777 -2.23828 -9.02246 -4.12988 -14.1172 -7.2373
c-10.083 -5.94434 -20.9863 -12.9111 -33.0576 -21.2285l-6.01172 -4.13965l-8.21191 11.917l5.96289 4.10059l1.16797 0.810547c11.9453 8.24023 22.2217 15.8633 31.3115 23.0908c4.58301 3.58984 9.60059 7.09277 14.0781 10.46
c4.75684 2.89453 9.24414 6.0498 13.7402 8.68359c16.8701 10.0869 34.7764 18.3301 53.4092 24.5869c21.8906 7.37891 44.8701 11.0068 67.9688 10.7305c15.9844 -0.1875 31.8838 -2.36523 47.3301 -6.48438c4.63184 -1.0957 9.18945 -2.48438 13.6445 -4.1582
c4.89258 -1.6123 9.68652 -3.50977 14.3574 -5.68359c5.14258 -2.24316 10.1436 -4.79883 14.9746 -7.65234l13.4121 -8.2207c11.7314 -7.18262 24.2852 -12.9268 37.3906 -17.1084c11.3057 -3.54395 22.7881 -6.49707 34.4004 -8.84766
c18.2197 -3.84375 36.7197 -6.21191 55.3193 -7.08301c16.8535 -1.05176 33.7598 0.90918 49.9248 5.79004c9.70312 3.29199 18.957 7.78125 27.5488 13.3643c9.99707 6.00195 20.833 12.9785 32.8076 21.2959l6.14648 4.27441z" />
    <glyph glyph-name="nonbreakingspace" unicode="&#xa0;" horiz-adv-x="270" 
 />
    <glyph glyph-name="exclamdown" unicode="&#xa1;" horiz-adv-x="165" 
d="M82.1797 820.16c-19.9805 0 -36.1807 16.2002 -36.1807 36.1807s16.2002 36.1904 36.1807 36.1904c19.9902 0 36.1904 -16.21 36.1904 -36.1904s-16.2002 -36.1807 -36.1904 -36.1807zM95.7598 468.95l20.5527 -410.41
c1.34961 -26.75 -7.81055 -51.1504 -21.1709 -56.4199c-8.11035 -3.2998 -17.1904 -3.2998 -25.3008 0c-13.3496 5.28027 -22.5098 29.6699 -21.1699 56.4199l20.5596 410.4c3.75 77.2197 6.03027 154.72 6.03027 232.29h14.4697v-1.37012
c0.0195312 -77.1104 2.30957 -154.15 6.0293 -230.91z" />
    <glyph glyph-name="cent" unicode="&#xa2;" horiz-adv-x="447" 
d="M403.822 222.48l12.9932 -6.30859l-3.13965 -6.51953c-1.58008 -3.25977 -39.2197 -78.04 -148.25 -81.3203v-0.280273h-6.57031h-7.91113v0.240234c-2.19043 0.0898438 -4.37012 0.229492 -6.54004 0.389648v-126.97h-14.4697v128.52
c-18.7803 2.48047 -37.2207 7.01074 -55.001 13.5107c-21.2305 7.58008 -41.25 18.1699 -59.46 31.4395c-21.6504 15.5596 -39.8203 35.4395 -53.3701 58.3896c-41.4697 72.5498 -41.4697 161.62 0 234.17c13.5498 22.9502 31.7295 42.8301 53.3691 58.3799
c18.21 13.2803 38.2295 23.8701 59.46 31.4502c17.7803 6.50977 36.2207 11.04 55.001 13.5098v130.1h14.4697v-128.6l0.849609 0.0703125h0.290039c4.04004 0.290039 8.09961 0.5 12.2197 0.5h7.65039v-0.450195c20.8203 -1.04004 41.3105 -5.61035 60.6006 -13.5107
c20.4199 -8.08008 38.75 -20.6904 53.5996 -36.8701c16.1201 -17.4404 27.8604 -38.4805 34.25 -61.3604c2.62012 -9.41016 -6.58008 -18.5303 -19.7305 -19.96c-8.41016 -0.959961 -16.8906 -1 -25.3008 -0.139648c-13.5801 1.45996 -22.6699 5.94043 -22.0303 11.2002
c2.62988 32.04 -10.2002 63.4199 -34.5303 84.4395c-14.7002 13.7305 -33.9199 21.6201 -54.0303 22.1904h-0.0703125c-0.599609 0 -1.16992 -0.0996094 -1.76953 -0.0996094c-4.13965 -0.0996094 -8.13965 -0.379883 -12 -0.790039v-414.36
c0.55957 -0.0703125 1.08984 -0.169922 1.66016 -0.229492c3.79004 -0.280273 7.5498 -0.650391 11.4102 -0.650391h1.36035c105.3 0.30957 141.479 72.6797 141.84 73.4102zM229.976 145.842l0.0205078 409.546c-16.0801 -3.41992 -31.3496 -9.92969 -44.96 -19.1699
c-15.5498 -10.8496 -28.7402 -24.7393 -38.7705 -40.8291c-11.2998 -17.2695 -20.4199 -35.8799 -27.1504 -55.3896c-20.9102 -57.7695 -20.9102 -121.039 0 -178.809c6.74023 -19.5596 15.9004 -38.1992 27.2607 -55.499c10.1602 -16.1797 23.4902 -30.1299 39.21 -41
c13.4697 -9.04004 28.5293 -15.4297 44.3896 -18.8496z" />
    <glyph glyph-name="sterling" unicode="&#xa3;" horiz-adv-x="537" 
d="M151.753 158.179l0.457031 1.07324c9.91504 21.3252 14.624 44.7002 13.7402 68.2012c-0.55957 5.51953 -1.10938 10.8945 -1.63965 16.1338c-1.09961 5.17188 -2.54688 10.1797 -3.80078 15.0039l-1.92969 7.19824l-2.81738 7.06348
c-1.92969 4.68945 -3.62793 9.33105 -5.72168 14.0107c-4.17773 8.8584 -8.87695 17.8223 -14.1553 27.5391h-102.89v14.4736h94.9297c-3.78223 6.8125 -7.80566 14.04 -12.1768 21.9619c-7.20801 13.1426 -15.2842 27.9248 -23.6113 46.3164
c-10.1836 21.5723 -17.8818 44.2324 -22.9463 67.5439c-10.0234 44.998 -4.38965 92.0693 15.9697 133.431c13.6855 26.665 34.3652 49.1064 59.8252 64.9209c20.9238 12.7998 43.8076 22.0771 67.7373 27.4619c29.5859 7.06348 59.8994 10.626 90.3164 10.6143h0.424805
c24.3076 0.482422 48.5957 -1.67578 72.4375 -6.43652c22.6895 -4.85254 44.1377 -14.3223 63.0098 -27.8193c18.7129 -13.5146 35.6914 -29.2812 50.5527 -46.9434c5.88574 -6.62891 1.73633 -17.9189 -8.87793 -26.0537
c-6.74121 -5.1123 -14.0566 -9.41895 -21.7979 -12.833c-12.3506 -5.48047 -23.6689 -4.02344 -26.4766 2.73145c-6.55566 17.2812 -15.1914 33.6992 -25.7158 48.8926c-10.6211 15.0898 -24.2891 27.7852 -40.1211 37.2656
c-19.2324 11.2314 -41.1533 17.0312 -63.4238 16.7803c-28.4688 0.376953 -56.6348 -5.87695 -82.2695 -18.2656c-18.5117 -9.16504 -34.7822 -22.2891 -47.6572 -38.4424c-13.4727 -16.7412 -23.5449 -35.9521 -29.6523 -56.5547
c-1.82617 -6.27246 -3.30469 -12.6406 -4.42871 -19.0762c-0.492188 -3.44434 -1.4375 -6.82129 -1.75586 -10.5166c-0.321289 -3.67969 -0.65918 -7.47168 -1.0127 -11.376c-0.330078 -4.06934 -0.439453 -8.15332 -0.328125 -12.2344
c-0.24707 -4.29395 -0.121094 -8.60059 0.376953 -12.8721l1.04199 -13.4512l2.73047 -14.5703c4.24512 -18.9453 9.84277 -37.5615 16.751 -55.7051c6.0498 -17.0215 12.0898 -32.7783 16.9727 -47.4453c5.2793 -15.4922 9.65137 -31.2793 13.0938 -47.2812h186.867
v-14.4736h-184.021c0.964844 -5.70312 1.79492 -11.3193 2.41211 -16.8389c0.540039 -6.04004 0.723633 -12.0898 1.06152 -17.9658l0.424805 -8.7998l-0.424805 -8.9834c-0.357422 -5.98242 -0.396484 -11.9453 -0.96582 -18.0244
c-0.858398 -6.05957 -1.82324 -12.2549 -2.78809 -18.6719c-4.78125 -24.9893 -12.8408 -49.2383 -23.9688 -72.1182c-0.289062 -0.617188 -0.549805 -1.22461 -0.848633 -1.8418c-1.92969 -3.95605 -3.95605 -8.00879 -6.17578 -12.0615
c-8.87695 -16.3076 -23.2539 -38.79 -42.5527 -66.7725h319.776c26.9258 0 52.627 11.25 70.8936 31.0322l2.70215 2.89453v-106.335h-463.646c20.0703 26.9219 37.6318 51.1416 52.5879 72.3701c17.0576 23.7578 32.9023 48.3623 47.4746 73.7197l0.0478516 0.0966797
l0.694336 1.47656c1.94922 3.58008 3.67676 7.08301 5.28809 10.5566z" />
    <glyph glyph-name="currency" unicode="&#xa4;" horiz-adv-x="489" 
d="M385.064 132.83c15.709 -15.7061 36.3545 -25.5117 58.4541 -27.7607l13.374 -1.37012l-52.8779 -52.8779l-1.37988 13.4316c-2.26367 22.0713 -12.0645 42.6885 -27.751 58.3789l-11.6562 11.6562c-15.2275 -14.3057 -32.9111 -25.7461 -52.2012 -33.7725
c-21.4795 -8.89844 -44.4883 -13.5195 -67.7373 -13.6045h-0.868164c-44.0352 -0.185547 -86.4951 16.3711 -118.782 46.3164l-11.502 -11.502c-18.54 -18.541 -28.7363 -43.8281 -28.2432 -70.0439v-0.858398l-52.8779 52.8779h0.849609
c26.2021 -0.482422 51.4736 9.71289 70.0049 28.2432l11.5215 11.5215c-30.1348 32.4775 -46.7061 75.251 -46.3174 119.554c0.113281 44.5322 16.9941 87.3887 47.2812 120.036l-12.5439 12.5439c-18.541 18.54 -43.8281 28.7363 -70.0439 28.2432h-0.762695
l52.8779 52.8779v-0.907227c-0.493164 -26.2158 9.70312 -51.5029 28.2432 -70.0439l12.5439 -12.5439c32.5625 30.3838 75.4033 47.3408 119.939 47.4736h0.868164c44.0557 0.140625 86.5303 -16.4082 118.879 -46.3164l34.7373 34.7373l4.88281 47.6094l52.8779 -52.8779
l-13.3252 -1.37012c-22.0723 -2.2666 -42.6895 -12.0703 -58.3779 -27.7607l-10.6143 -10.6143c30.0869 -32.5391 46.6191 -75.335 46.2207 -119.65c-0.140625 -44.5166 -17.0586 -87.3447 -47.3789 -119.94zM358.229 149.437
c1.7373 1.7373 3.37891 3.47559 5.01953 5.21289c12.7988 14.041 23.1104 30.1611 30.4922 47.667c8.20508 19.7275 12.4668 40.8711 12.5449 62.2373c0.353516 40.4414 -14.6465 79.5117 -41.9736 109.326c-1.64062 1.7373 -3.28125 3.47461 -5.01855 5.21191
s-3.47461 3.37793 -5.21191 5.01855c-29.6357 27.1914 -68.4316 42.2139 -108.651 42.0713h-0.771484c-40.7412 -0.118164 -79.958 -15.5088 -109.905 -43.1328c-1.7373 -1.64062 -3.47461 -3.28125 -5.21191 -5.01855s-3.37793 -3.47461 -5.01855 -5.21191
c-27.5557 -29.9434 -42.9082 -69.1152 -43.0361 -109.809c-0.371094 -40.4736 14.6299 -79.5801 41.9736 -109.422c1.64062 -1.7373 3.28125 -3.47461 5.01855 -5.21191s3.47461 -3.37793 5.21191 -5.01855c29.6689 -27.125 68.4502 -42.1074 108.65 -41.9746h0.771484
c40.7217 0.126953 79.9238 15.4775 109.904 43.0352c1.7373 1.64062 3.47461 3.28125 5.21191 5.01855z" />
    <glyph glyph-name="yen" unicode="&#xa5;" horiz-adv-x="649" 
d="M511.409 701.201l93.4521 -0.0585938l-6.85059 -4.0332c-31.5918 -18.623 -57.2236 -45.8613 -73.8936 -78.5254l-145.153 -284.422v-93.3369h133.256v-14.4736h-133.256v-84.4307h133.305v-14.4736h-133.256v-49.9346c0 -29.4287 12.2959 -57.5186 33.917 -77.4834
h-140.213c21.627 19.9648 33.9268 48.0596 33.9268 77.4932v49.9639h-135.09v14.4736h135.09v84.4307h-135.09v14.4736h135.09v73.1123l-194.21 320.23c-16.4688 27.1543 -39.3848 49.8252 -66.7148 66.001l-1.71777 1.0127h140.213
c-7.63574 -16.0166 -6.69238 -34.8018 2.50879 -49.9736l183.441 -302.476l145.385 284.885c11.0186 21.5898 9.43262 47.4619 -4.13965 67.5449z" />
    <glyph glyph-name="section" unicode="&#xa7;" horiz-adv-x="566" 
d="M530.829 310.41c5.0498 -52.0098 -22.5908 -101.716 -69.4512 -124.815c-15.6396 -8.07031 -32.2598 -14.0898 -49.4395 -17.9199c-7.87012 -1.86035 -16.25 -3.32031 -24.9404 -4.4707c0.980469 -4.51953 1.7002 -9.09961 2.18066 -13.6992
c5.0498 -52 -22.6201 -101.7 -69.4805 -124.8c-15.6396 -8.07031 -32.2598 -14.0898 -49.4395 -17.9199c-20.54 -4.71973 -41.54 -7.09961 -62.6201 -7.08984h-0.360352c-21.0098 -0.19043 -42.0098 1.12988 -62.8301 3.9502
c-40.2002 5.7002 -77.9697 22.6807 -108.93 48.9707c-6.50977 5.66016 -3.79004 17.71 6.51953 26.2998c6.48047 5.44043 13.4805 10.21 20.9102 14.2402c11.8701 6.33984 21.8604 8.07031 24.2402 3.12012c14.9404 -28.25 37.6602 -51.6396 65.46 -67.3994
c16.75 -9.58984 35.7002 -14.6602 55 -14.7305l2.15039 0.0498047c19.4697 0.0703125 38.8096 3.20996 57.2998 9.29004c14.71 4.69043 28.4697 11.96 40.6201 21.4795c19.2998 14.5801 31.2803 36.8496 32.7998 60.9893
c0.700195 11.4404 -0.819336 22.9102 -4.46973 33.7705c-1.9502 5.67969 -4.52051 11.1396 -7.65039 16.2695c-1.61035 2.63965 -3.39062 5.17969 -5.31055 7.60938c-1.82031 2.23047 -3.82031 4.31055 -5.98047 6.23047c-13.79 11.21 -28.9297 20.6504 -45.0801 28.1006
c-21.29 10.9697 -43.2998 21.7002 -71.3994 34.8799c-55.7002 26.0596 -101.641 53.9697 -129.78 90.9795c-13.5703 17.0898 -22.8506 37.1699 -27.0811 58.5801c-3.28027 18.2402 -2.15039 37 3.31934 54.71c9.74023 31.0996 30.2998 57.6895 57.96 74.9297
c24.7002 15.0498 52.5605 24.1602 81.3906 26.6006c-0.320312 1.5498 -0.700195 3.09961 -0.969727 4.64941c-3.29004 18.2402 -2.15039 37 3.31934 54.71c9.74023 31.1104 30.2998 57.6904 57.96 74.9307c33.7002 19.9199 72.4102 29.7197 111.53 28.25h0.360352
c20.6602 0.110352 41.2998 -1.34961 61.75 -4.35938c40.96 -7.19043 77.4795 -30.1406 101.699 -63.9404c5.16016 -7.09961 -0.269531 -18.5596 -12.4092 -24.4697c-7.70996 -3.4502 -15.75 -6.14062 -23.9902 -8.01074
c-12.9697 -3.37988 -22.7793 -3.33008 -23.8193 1.66016c-6.76953 29.1104 -24.9697 54.2607 -50.5 69.8008c-16.0801 9.57031 -34.4199 14.7002 -53.1299 14.8506c-44.4297 0.0498047 -77.2393 -13.71 -97.2988 -32.5098
c-18.1299 -16.54 -28.7803 -39.7197 -29.5205 -64.2393c-0.410156 -24.5303 10.2197 -47.9502 28.9502 -63.79c21.8799 -21.5195 58.1104 -41.5391 113.11 -67.1289c25.3604 -11.75 50.1104 -24.7998 74.1299 -39.0996c22.1299 -12.1299 41.9199 -28.0898 58.4795 -47.1396
c4.03027 -5.01953 7.60059 -10.3994 10.6709 -16.0693c2.71973 -5.05957 5.08008 -10.3193 7.06055 -15.7197c3.62012 -9.86035 5.96973 -20.1299 7.00977 -30.5801zM482.139 266.874c0.69043 11.4297 -0.820312 22.9014 -4.4707 33.7617
c-1.9502 5.67969 -4.50977 11.1396 -7.63965 16.2695c-1.62012 2.63965 -3.40039 5.17969 -5.33008 7.60938c-1.82031 2.23047 -3.82031 4.31055 -5.9707 6.23047c-13.7998 11.21 -28.9395 20.6602 -45.0791 28.1006c-21.2998 10.9697 -43.3096 21.7002 -71.4092 34.8799
c-55.6904 26.0596 -101.631 53.9795 -129.781 90.9795c-9.25 11.9004 -16.6104 25.1602 -21.8203 39.3105c-26.4102 -2.58984 -51.3604 -13.3203 -71.4004 -30.7207c-18.1299 -16.54 -28.7803 -39.7197 -29.5205 -64.25
c-0.410156 -24.5195 10.2197 -47.9395 28.9502 -63.7793c21.8799 -21.5303 58.1104 -41.54 113.11 -67.1299c25.3604 -11.75 50.1104 -24.7998 74.1299 -39.0996c22.1299 -12.1299 41.9297 -28.0898 58.4795 -47.1396c4.03027 -5.03027 7.60059 -10.4004 10.6602 -16.0703
c2.71973 -5.07031 5.08008 -10.3203 7.06055 -15.7207c0.259766 -0.719727 0.469727 -1.4502 0.719727 -2.16992c8.78027 1.49023 17.4307 3.66016 25.8906 6.48047c14.71 4.67969 28.46 11.9492 40.6104 21.4688c19.2998 14.5801 31.2803 36.8496 32.8105 60.9893z" />
    <glyph glyph-name="copyright" unicode="&#xa9;" horiz-adv-x="771" 
d="M385.303 698.576c192.833 -0.197266 349.104 -156.471 349.302 -349.304c0 -192.915 -156.388 -349.304 -349.302 -349.304s-349.302 156.389 -349.302 349.304s156.388 349.304 349.302 349.304zM385.302 14.5107c184.826 0.191406 334.616 150.002 334.829 334.829
c0 184.921 -149.908 334.829 -334.829 334.829s-334.829 -149.908 -334.829 -334.829s149.908 -334.829 334.829 -334.829zM454.776 572.816c33.5029 -8.56445 63.8984 -26.4365 87.6729 -51.5479c4.9502 -5.11426 0.241211 -15.4385 -10.9326 -22.8203
c-7.04199 -4.68652 -14.4658 -8.77246 -22.1924 -12.2158c-12.293 -5.41309 -22.126 -6.58984 -23.4766 -2.07422c-7.57617 25.1025 -22.2021 47.502 -42.1387 64.5342c-12.0664 9.93359 -27.166 15.4424 -42.7939 15.6133l-1.64062 -0.0966797
c-27.1201 -0.172852 -53.6758 -7.76465 -76.7891 -21.9521c-16.9102 -10.8652 -31.6084 -24.8359 -43.3164 -41.1738c-12.9795 -17.5605 -23.5703 -36.7666 -31.4951 -57.1143c-24.7373 -59.8066 -24.7373 -126.984 0 -186.791
c7.94922 -20.3975 18.583 -39.6436 31.6211 -57.2295c11.8584 -16.417 26.7119 -30.4453 43.7783 -41.3477c23.4678 -14.2266 50.3887 -21.7432 77.832 -21.7305c44.0352 -1.53516 86.2578 17.5938 114.141 51.7109l4.56445 5.61621l11.2314 -9.11816l-4.56445 -5.61621
c-30.5859 -37.5566 -76.9629 -58.666 -125.372 -57.0654h-7.2373v0.260742c-27.3711 1.02734 -54.457 5.93945 -80.4453 14.5898c-22.4072 7.41016 -43.7266 17.7744 -63.3945 30.8193c-23.3398 15.4902 -43.1338 35.748 -58.0791 59.4404
c-46.6484 75.4209 -46.6484 170.732 0 246.153c14.9482 23.6934 34.7451 43.9512 58.0879 59.4395c19.668 13.0449 40.9873 23.4092 63.3945 30.8193c28.2803 9.4668 57.8613 14.4766 87.6826 14.8496h0.308594c18.0195 0.0625 35.9873 -1.93457 53.5537 -5.95312z" />
    <glyph glyph-name="guillemotleft" unicode="&#xab;" horiz-adv-x="627" 
d="M362.062 521.541l-303.401 -258.146l303.401 -258.156l-9.17676 -11.1934l-339.885 269.35l339.885 269.34zM610.153 521.541l-303.411 -258.146l303.411 -258.156l-9.17676 -11.1934l-339.885 269.35l339.885 269.34z" />
    <glyph glyph-name="softhyphen" unicode="&#xad;" horiz-adv-x="0" 
 />
    <glyph glyph-name="registered" unicode="&#xae;" horiz-adv-x="466" 
d="M232.643 701.172c110.216 -0.12207 199.535 -89.4355 199.663 -199.651c0 -110.264 -89.3857 -199.65 -199.649 -199.652s-199.652 89.3818 -199.656 199.646s89.3789 199.653 199.643 199.658zM232.644 316.331c102.227 0.111328 185.072 82.9521 185.189 185.179
c0 102.271 -82.9053 185.178 -185.176 185.18s-185.179 -82.9023 -185.183 -185.173s82.8984 -185.181 185.169 -185.186zM331.202 411.328c6.29492 -2.91699 13.2256 -4.18457 20.1455 -3.69238v-5.79004h-0.444336
c-17.3682 -0.193359 -29.1787 -0.907227 -41.4912 7.31348c-6.47363 4.82812 -11.4512 11.3877 -14.3584 18.9219c-3.41016 9.14258 -5.99316 18.5723 -7.71875 28.1758c-1.45898 7.2373 -4.06543 14.1953 -7.71973 20.6104
c-2.54785 4.51953 -5.61133 8.72852 -9.12793 12.543c-8.17773 9.13281 -19.8828 14.3154 -32.1416 14.2324h-42.9199v-56.1494c0.00195312 -10.1914 5.0918 -19.709 13.5664 -25.3682h-56.0811c8.47754 5.66113 13.5674 15.1826 13.5664 25.377v154.031
c-0.0078125 10.1592 -5.07227 19.6484 -13.5078 25.3096l-0.0869141 0.0576172h85.377c8.74707 -0.0390625 17.4707 -0.908203 26.0537 -2.5957c6.94727 -1.2334 13.7412 -3.21289 20.2637 -5.90527c13.6084 -5.81641 24.3838 -16.751 30 -30.4434
c5.61328 -14.5957 5.61328 -30.7549 0 -45.3506c-5.61816 -13.6914 -16.3926 -24.625 -30 -30.4434c-5.55762 -2.31152 -11.335 -4.05371 -17.2432 -5.20117c3.99023 -0.564453 7.93945 -1.39258 11.8203 -2.48047c7.35254 -2.13867 14.1055 -5.96094 19.7227 -11.1641
c8.55078 -8.19727 14.375 -18.8252 16.6836 -30.4434c1.86426 -9.18359 3.15332 -18.4746 3.85938 -27.8184c0.244141 -4.79688 1.16016 -9.53613 2.72168 -14.0781c1.7959 -4.17871 5.00293 -7.59375 9.06055 -9.64844zM238.771 509.494
c7.9248 -0.0664062 15.7344 1.91602 22.6758 5.74023c5.05176 2.90625 9.53711 6.70117 13.2393 11.2021c3.81055 4.68457 7.0498 9.80566 9.64941 15.2559c7.33984 14.9062 7.33984 32.376 0 47.2822c-2.62402 5.46484 -5.89648 10.5938 -9.74609 15.2754
c-3.73438 4.5293 -8.26758 8.33594 -13.374 11.2314c-7.02441 3.83105 -14.917 5.78809 -22.917 5.68359h-42.8525v-111.671h43.3252z" />
    <glyph glyph-name="degree" unicode="&#xb0;" horiz-adv-x="334" 
d="M166.704 708.418c76.0146 -0.0908203 137.613 -61.6895 137.704 -137.704c0 -76.0518 -61.6523 -137.704 -137.704 -137.704s-137.704 61.6523 -137.704 137.704s61.6523 137.704 137.704 137.704zM166.703 447.474c68.0215 0.0800781 123.146 55.209 123.23 123.23
c0 68.0586 -55.1719 123.23 -123.23 123.23s-123.23 -55.1719 -123.23 -123.23s55.1719 -123.23 123.23 -123.23z" />
    <glyph glyph-name="plusminus" unicode="&#xb1;" horiz-adv-x="484" 
d="M249.045 325.71h217.571v-14.4736h-217.571v-217.571h-14.4736v217.571h-217.571v14.4736h217.571v217.571h14.4736v-217.571zM466.616 2.41113h-449.616v14.4736h449.616v-14.4736z" />
    <glyph glyph-name="twosuperior" unicode="&#xb2;" horiz-adv-x="308" 
d="M234.71 491.02c17.6699 -0.00976562 34.3105 8.36328 44.8203 22.5732v-70.8203h-263.53c10.8604 16.9805 22.9902 33.1104 36.2803 48.25c5.98047 6.84961 12.1602 13.4092 18.6201 19.7793c42.9004 41.2695 67.5508 61.5693 90.7109 88.4189
c13.1602 14.6396 25.4199 30.0693 36.7197 46.1992c15.96 21.1396 24.8896 46.75 25.54 73.2402c-0.110352 12.2002 -2.23047 24.3105 -6.29004 35.8203c-2.94043 8.21973 -6.93066 16.0293 -11.8711 23.2295c-4.71973 7.19043 -10.8994 13.29 -18.1494 17.9297
c-9.99023 6.13965 -21.5 9.37988 -33.2402 9.33008h-0.209961c-11.8203 -0.0800781 -23.3506 -3.75 -33.0303 -10.54c-15.8701 -11.3604 -27.4404 -27.7705 -32.8105 -46.54c-0.950195 -3.29004 -7.62012 -3.20996 -16.1006 -0.19043
c-5.2998 1.91992 -10.3994 4.33984 -15.2393 7.22949c-7.66016 4.50977 -11.0205 11.7695 -7.50098 15.8896c16.6104 20.1299 39.4199 34.1895 64.8701 39.9697c13.1602 2.69043 26.5605 3.98047 39.9902 3.86035c13.0996 -0.200195 26.1396 -1.66016 38.9492 -4.37012
c10.5 -2.00977 20.71 -5.30957 30.3896 -9.8291c11.9404 -5.5498 22.3301 -13.9395 30.2598 -24.4492c12.0498 -16.6602 18.4395 -36.7598 18.209 -57.3193c0.0800781 -21.1104 -4.70996 -41.9404 -13.9795 -60.9004c-7.05957 -14.1504 -16.1191 -27.21 -26.8887 -38.7803
c-15.1299 -15.96 -32.1797 -29.9697 -50.7695 -41.71c-31.0498 -20.8096 -60.4795 -32.6494 -102.84 -73.3398c-4.25 -4.25 -8.38965 -8.49023 -12.4492 -12.9307h169.54z" />
    <glyph glyph-name="threesuperior" unicode="&#xb3;" horiz-adv-x="283" 
d="M253.669 553.79l-0.0839844 -4.52246c0.169922 -23.3496 -7.08008 -46.1396 -20.6797 -65.1201c-9.04004 -12.2002 -21.0596 -21.8799 -34.8994 -28.1201c-11.29 -4.95996 -23.21 -8.34961 -35.4297 -10.0693c-14.8701 -2.24023 -29.8896 -3.39062 -44.9297 -3.4502
h-0.240234c-13.2402 0.0800781 -26.4199 1.84961 -39.2197 5.25977c-12.5703 3.19043 -24.21 9.33008 -33.9297 17.9199c-10.8496 9.70996 -18.8096 22.2295 -22.9795 36.1797c-1.67969 5.71973 4.41016 11.2393 13.2002 12.0596
c5.61035 0.549805 11.25 0.589844 16.8701 0.0898438c9.03027 -0.830078 15.1299 -3.08984 14.5801 -5.78027c-1.34961 -7.71973 -0.389648 -15.6602 2.77051 -22.8301c3.82031 -8.5498 9.7207 -16 17.1504 -21.6904c9.04004 -7.28027 20.2402 -11.3506 31.8398 -11.5811
h0.839844c13.7598 -0.169922 27.3701 2.84961 39.75 8.83984c8.88965 4.5 16.7295 10.8398 22.9893 18.5898c6.5 7.92969 11.7402 16.8096 15.54 26.3291c5.54004 13.8701 8.4502 28.6396 8.60059 43.5801v4.17969l-0.110352 3.44043
c0.0302734 2.16992 -0.0800781 4.33984 -0.310547 6.5c-0.179688 4.21973 -0.929688 7.93945 -1.35938 11.5791c-1.19043 6.21973 -2.90039 12.3193 -5.13086 18.249c-3.45996 9.38965 -8.66016 18.0498 -15.3301 25.5098
c-12.5195 13.6504 -29.6992 25.2002 -64.5391 25.8506v9.65039h0.610352c10.2803 -0.120117 20.3799 2.72949 29.0898 8.19922c6.32031 4.15039 11.7207 9.56055 15.8506 15.9004c4.24023 6.41016 7.79004 13.25 10.6201 20.4004
c3.94043 9.62988 6.31055 19.8301 7.00098 30.21c0.0498047 1.76953 0.290039 2.92969 0.290039 5.06934c0.0996094 2.41992 0 3.45996 0 4.94043c0.19043 2.82031 -0.290039 5.35059 -0.290039 7.86035c-0.480469 4.4502 -1.27051 8.87012 -2.34082 13.2197
c-1.71973 7.28027 -4.35938 14.3203 -7.86914 20.9307c-3.40039 6.67969 -8.35059 12.4492 -14.4209 16.8389c-8.48047 5.86035 -18.5703 8.94043 -28.8799 8.82031h-0.19043c-11.0195 -0.240234 -21.6396 -4.16992 -30.1592 -11.1699
c-14.2402 -11.71 -24.6201 -27.4502 -29.7705 -45.1504c-0.669922 -2.92969 -7.01953 -2.18945 -15.5791 0.520508c-5.34961 1.74023 -10.54 3.95996 -15.5098 6.62988c-7.87012 4.21973 -11.1797 11.6895 -7.70996 15.7891c16.0596 18.54 37.3096 31.8496 61.0098 38.1992
c12.3896 3.16992 25.1299 4.79004 37.9297 4.82031c11.7695 -0.129883 23.4893 -1.47949 34.9893 -4.01953c9.57031 -1.94043 18.8301 -5.19043 27.5205 -9.65039c10.71 -5.54004 19.8203 -13.7402 26.4502 -23.8105c4.58984 -6.9502 8.03027 -14.6006 10.1807 -22.6406
c1.20996 -4.82031 2.00977 -9.73047 2.39941 -14.6807c0.19043 -2.5498 0.400391 -5.63965 0.400391 -7.48926c0.0498047 -2.12012 -0.129883 -5.35059 -0.269531 -8.11035c-0.889648 -18.6904 -7.97949 -36.5508 -20.1494 -50.7607
c-7.7998 -8.87988 -17.5801 -15.7998 -28.5605 -20.2002c-4.04004 -1.67969 -8.20996 -3.0498 -12.46 -4.09961c10.4297 -1.45996 20.6602 -4.16016 30.4502 -8.0498c14.3496 -5.82031 26.7393 -15.6299 35.6992 -28.2598
c6.08008 -8.55957 10.7598 -18.0293 13.8496 -28.0488c1.7002 -5.87012 2.9502 -11.8506 3.75 -17.8906c0.5 -3.25977 0.799805 -6.54004 0.889648 -9.83008z" />
    <glyph glyph-name="acute" unicode="&#xb4;" horiz-adv-x="107" 
d="M139.61 794.722l22.1348 -18.6611l-135.678 -149.757l-11.0674 9.33105z" />
    <glyph glyph-name="mu" unicode="&#xb5;" horiz-adv-x="546" 
d="M479.726 73.5742c-0.0078125 -26.9209 11.2295 -52.6211 31.001 -70.8926l2.89453 -2.66309h-106.296v46.123c-30.1504 -29.9834 -71.0615 -46.6309 -113.581 -46.2188h-6.21387c-21.0889 0.274414 -42.0742 2.99414 -62.5361 8.10449
c-16.6035 4.14453 -32.6826 10.1621 -47.9277 17.9375c-1.03223 0.55957 -2.07422 1.17676 -3.11621 1.76562v-205.433c0 -26.9258 11.25 -52.627 31.0322 -70.8936l2.89453 -2.67285h-140.213l2.89453 2.66309c19.7822 18.2666 31.0322 43.9678 31.0322 70.8936v477.754
c-0.100586 18.9043 -2.04004 37.7549 -5.79004 56.2842c-2.26953 12.3926 -5.87695 24.5029 -10.7588 36.1172c-10.792 27.2393 -37.7861 44.5322 -67.042 42.9492v14.4736c19.1084 0.0322266 38.1221 -2.68457 56.457 -8.06641
c15.1738 -4.51465 29.5742 -11.3076 42.708 -20.1475c15.4922 -10.7158 28.2607 -24.9092 37.2852 -41.4434c13.209 -24.6387 19.9365 -52.2314 19.5498 -80.1846v-142.925c0.254883 -20.2656 4.15039 -40.3203 11.501 -59.208
c5.03516 -13.6299 11.6201 -26.6357 19.626 -38.7617c7.71582 -11.5732 17.5742 -21.5625 29.0439 -29.4307c13.4756 -8.5459 28.8428 -13.6523 44.7529 -14.8701c2.4707 -0.154297 4.94043 -0.375977 7.44922 -0.375977
c0.472656 -0.00976562 0.907227 -0.0673828 1.38965 -0.0673828h6.02148c44.1074 -0.536133 86.0039 19.2715 113.582 53.6982v308.245c0 26.9258 -11.25 52.627 -31.0322 70.8936l-2.89453 2.66309h140.213l-2.89453 -2.66309
c-19.7822 -18.2666 -31.0322 -43.9678 -31.0322 -70.8936v-302.755z" />
    <glyph glyph-name="paragraph" unicode="&#xb6;" horiz-adv-x="600" 
d="M526.173 -177.77c-0.0253906 -26.8994 11.2051 -52.583 30.9727 -70.8262l2.89453 -2.70215h-140.203l2.89453 2.70215c19.8135 18.2598 31.0811 43.9785 31.0713 70.9229v864.381h-76.5186v-526.561h-31.9395c-195.59 0 -312.346 99.3877 -312.346 265.838v9.35938
c0 159.02 125.537 265.837 312.347 265.837h214.695l-2.89453 -2.60547c-19.7549 -18.292 -30.9814 -43.998 -30.9736 -70.9219v-805.424z" />
    <glyph glyph-name="onesuperior" unicode="&#xb9;" horiz-adv-x="146" 
d="M25.7793 442.658c14.2383 10.4863 22.6533 27.1094 22.6758 44.792v263.02l-25.4551 -1.85254c24.9629 11.6367 52.3857 42.3506 71.2793 64.2256l2.41211 2.78906v-328.19c0 -17.6611 8.37402 -34.2764 22.5693 -44.7832h-93.4814z" />
    <glyph glyph-name="guillemotright" unicode="&#xbb;" horiz-adv-x="627" 
d="M273.269 532.734l339.875 -269.34l-339.875 -269.35l-9.17676 11.1934l303.401 258.156l-303.401 258.146zM25.1768 532.734l339.885 -269.34l-339.885 -269.35l-9.17676 11.1934l303.401 258.156l-303.401 258.146z" />
    <glyph glyph-name="onequarter" unicode="&#xbc;" horiz-adv-x="577" 
d="M40.3701 261.33c16.7402 12.3701 26.6299 31.9492 26.6299 52.7695v309.89l-30 -2.17969c29.4297 13.71 61.6895 49.8896 83.9492 75.6699l2.83984 3.29004v-386.68c0 -20.8096 9.87012 -40.3799 26.6006 -52.7598h-110.02zM485.62 141.249
c20.5996 0.00976562 39.9902 9.69922 52.3398 26.1797l1.92969 2.55957v-65.7695l-1.83984 2.4502c-12.3604 16.46 -31.7305 26.1396 -52.3105 26.1396h-22.25v-80.1797c0 -20.7402 9.83008 -40.25 26.4902 -52.5801h-109.62c16.6699 12.3301 26.5 31.8398 26.5 52.5801
v80.1396h-190.79l247.36 307.11v-298.63h22.1904zM406.871 141.248v214.78l-173.02 -214.78h173.02zM529.151 701.188h17.6396l-487.86 -701.18h-17.6396z" />
    <glyph glyph-name="onehalf" unicode="&#xbd;" horiz-adv-x="683" 
d="M75.7744 314.092l0.0380859 309.896l-29.999 -2.18066c29.4307 13.7119 61.6885 49.8965 83.9492 75.6699l2.84668 3.29004v-386.675c-0.00390625 -20.8096 9.86328 -40.3867 26.5928 -52.7617h-110.021c16.7295 12.375 26.5967 31.9521 26.5928 52.7617z
M596.515 52.5674c20.9053 -0.0273438 40.582 9.86719 53.0303 26.6621v-83.7744h-311.748c12.8428 20.083 27.1904 39.1631 42.9189 57.0762c7.07324 8.10547 14.3779 15.8633 22.0293 23.3994c50.7842 48.8057 79.9248 72.832 107.348 104.588
c15.5635 17.3252 30.0635 35.5762 43.4219 54.6533c14.6094 22.2998 30.1445 48.2373 30.2119 86.6416c-0.128906 14.4434 -2.64258 28.7656 -7.43945 42.3896c-3.47559 9.72754 -8.19434 18.9648 -14.0391 27.4814c-5.58398 8.50684 -12.8994 15.7402 -21.4688 21.2285
c-11.8262 7.27148 -25.4482 11.0947 -39.3311 11.0381h-0.250977c-13.9902 -0.0878906 -27.6221 -4.43652 -39.0791 -12.4668c-18.7617 -13.4521 -32.4248 -32.8525 -38.7705 -55.0498c-1.12891 -3.89844 -9.0127 -3.80176 -19.0479 -0.231445
c-6.26465 2.27344 -12.2998 5.13574 -18.0244 8.54883c-9.07031 5.33594 -13.0361 13.9238 -8.86719 18.7969c19.6426 23.8145 46.6279 40.4424 76.7305 47.2812c15.5566 3.17578 31.4043 4.70215 47.2812 4.55469c15.4863 -0.231445 30.9141 -1.96387 46.0664 -5.17285
c12.416 -2.36133 24.4922 -6.25098 35.9531 -11.5791c14.1221 -6.57422 26.4141 -16.5146 35.7988 -28.9482c14.2539 -19.7168 21.8027 -43.4873 21.5371 -67.8154c0.0898438 -24.9648 -5.56934 -49.6152 -16.5391 -72.041
c-8.3623 -16.7373 -19.0859 -32.1865 -31.8428 -45.873c-17.8965 -18.874 -38.0703 -35.4502 -60.0566 -49.3467c-36.7441 -24.6055 -71.5488 -38.6162 -121.657 -86.7471c-5.02734 -5.01758 -9.90039 -10.0449 -14.7246 -15.2939h200.56zM523.844 701.192h17.6387
l-487.847 -701.183h-17.6387z" />
    <glyph glyph-name="threequarters" unicode="&#xbe;" horiz-adv-x="688" 
d="M192.419 265.37c-17.4697 -2.61035 -35.1074 -3.9541 -52.7773 -3.99414h-0.269531c-15.5801 0.0898438 -31.0703 2.16992 -46.1201 6.17969c-14.79 3.75 -28.4697 10.9697 -39.8994 21.0801c-12.7695 11.4102 -22.1191 26.1299 -27.0195 42.5303
c-1.98047 6.73047 5.18945 13.2207 15.5195 14.1904c6.59961 0.650391 13.2295 0.69043 19.8291 0.110352c10.6201 -1.01953 17.7998 -3.64941 17.1494 -6.80957c-1.58008 -9.08008 -0.450195 -18.4102 3.25977 -26.8506c4.5 -10.04 11.4297 -18.8096 20.1699 -25.5
c10.6201 -8.54004 23.7705 -13.3203 37.3906 -13.5898h0.959961c16.1797 -0.209961 32.1797 3.33984 46.75 10.3896c10.4502 5.29004 19.6504 12.7402 27.0107 21.8506c7.63965 9.33008 13.7998 19.7705 18.2695 30.9707c6.50977 16.3096 9.93945 33.6797 10.0996 51.25
v4.91992c-0.0400391 1.36035 -0.0800781 2.7002 -0.120117 4.03027c0.0302734 2.5498 -0.0898438 5.09961 -0.370117 7.63965c-0.219727 4.92969 -1.08984 9.33984 -1.59961 13.6201c-1.40039 7.30957 -3.41992 14.4893 -6.04004 21.459
c-4.05957 11.0498 -10.1699 21.2295 -18.0195 30.0098c-14.7197 16.0498 -34.9199 29.6201 -75.9004 30.3896v11.3496h0.730469c12.0898 -0.150391 23.9697 3.19922 34.21 9.64941c7.42969 4.87988 13.7793 11.2402 18.6396 18.6904
c4.96973 7.5498 9.14941 15.5898 12.459 24c4.63965 11.3203 7.41992 23.3105 8.24023 35.5205c0.0595703 2.11035 0.339844 3.44043 0.339844 5.9707c0.110352 2.83984 0 4.0498 0 5.79004c0.209961 3.32031 -0.339844 6.29004 -0.339844 9.24023
c-0.570312 5.24023 -1.49023 10.4307 -2.75977 15.5508c-2.01953 8.57031 -5.11914 16.8398 -9.23926 24.6201c-4.00977 7.84961 -9.81934 14.6396 -16.9697 19.7998c-9.96973 6.88965 -21.8301 10.5098 -33.9502 10.3799h-0.230469
c-12.96 -0.290039 -25.4502 -4.91016 -35.46 -13.1504c-16.75 -13.7598 -28.9502 -32.2598 -35 -53.0693c-0.799805 -3.42969 -8.26953 -2.56934 -18.3398 0.621094c-6.29004 2.0498 -12.4004 4.64941 -18.2305 7.78906c-9.28027 4.91016 -13.1699 13.75 -9.09961 18.5703
c18.8896 21.7998 43.8799 37.4502 71.7402 44.9199c14.5801 3.74023 29.5605 5.66016 44.6104 5.70996c13.8398 -0.150391 27.6299 -1.74023 41.1396 -4.74023c11.2598 -2.25977 22.1396 -6.06934 32.3594 -11.3096c12.5898 -6.50977 23.3096 -16.1396 31.1191 -27.9795
c5.38965 -8.17969 9.42969 -17.1699 11.9697 -26.6299c1.41992 -5.66992 2.36035 -11.4395 2.82031 -17.2598c0.230469 -3.00977 0.470703 -6.62988 0.470703 -8.7998c0.0498047 -2.5 -0.160156 -6.30957 -0.320312 -9.55957
c-1.0498 -21.9697 -9.37988 -42.9697 -23.6895 -59.6797c-9.16992 -10.4404 -20.6699 -18.5801 -33.5801 -23.7598c-4.75 -1.98047 -9.65039 -3.59082 -14.6504 -4.83105c12.2695 -1.70996 24.2891 -4.88965 35.8086 -9.45996
c16.8701 -6.86035 31.4297 -18.3906 41.96 -33.2402c7.15039 -10.0498 12.6406 -21.1895 16.2803 -32.9795c2 -6.88965 3.46973 -13.9199 4.41992 -21.0303c0.589844 -3.83984 0.939453 -7.7002 1.03906 -11.5801l0.259766 -6.03027v-5.45996
c0.19043 -27.46 -8.3291 -54.2695 -24.3291 -76.5791c-10.6299 -14.3496 -24.75 -25.7295 -41.0303 -33.0693c-13.29 -5.83008 -27.2998 -9.82031 -41.6699 -11.8506zM653.711 167.386l1.97949 2.59961v-65.7695l-1.83984 2.4502
c-12.3604 16.46 -31.7305 26.1396 -52.3105 26.1396h-22.25v-80.1797c0 -20.7402 9.83008 -40.25 26.5 -52.5801h-109.63c16.6699 12.3301 26.5 31.8398 26.5 52.5801v80.1396h-190.81l247.36 307.11v-298.63h22.1904c20.5801 0.00976562 39.96 9.68945 52.3096 26.1396z
M522.66 141.245v214.78l-173.02 -214.78h173.02zM632.41 701.186h17.6396l-487.85 -701.18h-17.6396z" />
    <glyph glyph-name="questiondown" unicode="&#xbf;" horiz-adv-x="509" 
d="M333.711 818.16c-19.9902 0 -36.1904 16.2002 -36.1904 36.1807s16.2002 36.1904 36.1904 36.1904c19.9805 0 36.1807 -16.21 36.1807 -36.1904s-16.2002 -36.1807 -36.1807 -36.1807zM489.391 129.67c5.55957 -1.61035 10.1895 -5.47266 12.7695 -10.6523
c2.58008 -5.19043 2.87012 -11.21 0.790039 -16.6201c-13.1504 -24.46 -31.7305 -45.5898 -54.3203 -61.75c-21.0996 -14.7002 -44.8193 -25.2305 -69.8691 -31.0303c-26.6904 -6.13965 -54 -9.21973 -81.3799 -9.16992l-1.92969 0.0595703
c-18.7695 0.179688 -37.5098 1.54004 -56.1094 4.08008c-17.21 2.58008 -34.1797 6.58008 -50.7295 11.96c-31.3701 9.91992 -60.21 26.5195 -84.5498 48.6494c-23.7998 21.8799 -42.5596 48.6602 -55 78.5c-3.30957 7.44043 -5.61914 15.1602 -8.37891 22.96
c-2.44043 8.00977 -4.44043 16.1494 -5.99023 24.3799l-2.57031 12.6201c-0.469727 4.32031 -0.779297 8.7002 -1.12891 13.1104c-0.969727 8.96973 -1.22949 18 -0.769531 27.0098c1.17969 34.4199 10.29 68.0996 26.6104 98.4297
c14.5098 27.4297 32.9395 52.6094 54.6895 74.749c42.4102 44.1104 92.4297 81.0703 154.109 129.021c61.4502 47.8203 61.4502 95.6406 61.4502 151.011v9.49023h14.4697v-9.49023c0.00976562 -56.71 0.0195312 -110.27 -67.0205 -162.439l-0.0996094 -0.0703125
c-51.9805 -38.6797 -95.5703 -87.5 -128.12 -143.52c-13.1104 -23.0596 -23.5 -47.5693 -30.9805 -73.0195c-7.74023 -24.9004 -12.04 -50.7402 -12.7803 -76.7998c-0.389648 -6.66992 -0.389648 -13.3604 0 -20.0303
c0.0400391 -3.2998 0.0703125 -6.58008 0.0703125 -9.83008l1.12988 -9.70996c0.849609 -6.41992 0.819336 -12.9795 2.06934 -19.2393s1.92969 -12.7793 3.38965 -18.8994c4.79004 -24.8096 14.2002 -48.5 27.7197 -69.8496c15.2803 -23.5996 36.4902 -42.79 61.5 -55.6299
c14.3604 -7.50977 29.5908 -13.1895 45.3604 -16.9092c17.5898 -3.95996 35.5596 -6.01953 53.5996 -6.12988h0.44043c25.0801 0.179688 49.6904 6.87012 71.4102 19.4297c18.29 10.4502 34.4102 24.3301 47.4697 40.8604c11.5996 15.1504 19.5293 32.79 23.1592 51.5205
c0.629883 7 11.4502 10.4297 24.96 9.01953c8.41992 -0.94043 16.6699 -2.98047 24.5596 -6.07031z" />
    <glyph glyph-name="Agrave" unicode="&#xc0;" 
d="M525.342 13.9502l15.1953 -14.0605h-140.2c18.7305 17.3398 24.8809 44.3994 15.4912 68.1299l-97.9004 247.5c-38.8604 -25.8096 -84.71 -39.0791 -131.35 -37.999c-72.8799 1.78027 -104.26 -29.4297 -108.689 -34.25l-38.3096 -96.8799l-0.0996094 -0.290039
c-0.129883 -0.349609 -0.219727 -0.699219 -0.349609 -1.03906c-5.88965 -15.9004 -6.2998 -33.3008 -1.16016 -49.4609c8.80957 -26.79 27.9492 -48.96 53.1797 -61.5703c4.41992 -2.28027 2.36035 -12.0498 -4.75 -23.6299
c-0.959961 -1.55957 -2.09961 -2.95996 -3.06934 -4.45996h0.0595703l0.19043 -0.19043l-3.86035 -5.11035l-1.05957 -1.4502l-3.75977 -4.91992c-0.0996094 0.0898438 -0.0996094 0.0898438 -0.199219 0.0898438l-0.120117 0.0996094
c-1.16992 -1.38965 -2.25977 -2.85938 -3.47949 -4.16895c-8.96973 -9.7998 -20.4697 -12.6895 -25.4697 -6.26953c-25.1201 30.6797 -37.3604 69.9199 -34.1201 109.45c2.15039 20.0195 7.06055 39.6494 14.6006 58.3193v0.0595703l217.2 549.14l257.64 -651.52
c5.34961 -13.5303 13.6895 -25.6699 24.3896 -35.5195zM186.917 292.09c44.7002 -0.94043 88.5811 12.1406 125.471 37.4004l-100.25 253.49l-123.9 -313.22v-0.0800781c30.0996 16.6797 64.3193 24.4492 98.6797 22.4092zM304.178 773.591l-11.0703 -9.32031
l-135.67 149.75l22.1299 18.6602z" />
    <glyph glyph-name="Aacute" unicode="&#xc1;" 
d="M525.342 13.9502l15.1953 -14.0605h-140.2c18.7305 17.3398 24.8809 44.3994 15.4912 68.1299l-97.9004 247.5c-38.8604 -25.8096 -84.71 -39.0791 -131.35 -37.999c-72.8799 1.78027 -104.26 -29.4297 -108.689 -34.25l-38.3096 -96.8799l-0.0996094 -0.290039
c-0.129883 -0.349609 -0.219727 -0.699219 -0.349609 -1.03906c-5.88965 -15.9004 -6.2998 -33.3008 -1.16016 -49.4609c8.80957 -26.79 27.9492 -48.96 53.1797 -61.5703c4.41992 -2.28027 2.36035 -12.0498 -4.75 -23.6299
c-0.959961 -1.55957 -2.09961 -2.95996 -3.06934 -4.45996h0.0595703l0.19043 -0.19043l-3.86035 -5.11035l-1.05957 -1.4502l-3.75977 -4.91992c-0.0996094 0.0898438 -0.0996094 0.0898438 -0.199219 0.0898438l-0.120117 0.0996094
c-1.16992 -1.38965 -2.25977 -2.85938 -3.47949 -4.16895c-8.96973 -9.7998 -20.4697 -12.6895 -25.4697 -6.26953c-25.1201 30.6797 -37.3604 69.9199 -34.1201 109.45c2.15039 20.0195 7.06055 39.6494 14.6006 58.3193v0.0595703l217.2 549.14l257.64 -651.52
c5.34961 -13.5303 13.6895 -25.6699 24.3896 -35.5195zM186.917 292.09c44.7002 -0.94043 88.5908 12.1406 125.471 37.4004l-100.25 253.49l-123.9 -313.22v-0.0800781c30.0996 16.6797 64.3193 24.4492 98.6797 22.4092zM306.647 914.021l-135.681 -149.75
l-11.0596 9.32031l124.61 159.09z" />
    <glyph glyph-name="Acircumflex" unicode="&#xc2;" 
d="M525.342 13.9502l15.1953 -14.0605h-140.2c18.7305 17.3398 24.8809 44.3994 15.4912 68.1299l-97.9004 247.5c-38.8604 -25.8096 -84.71 -39.0791 -131.35 -37.999c-72.8799 1.78027 -104.26 -29.4297 -108.689 -34.25l-38.3096 -96.8799l-0.0996094 -0.290039
c-0.129883 -0.349609 -0.219727 -0.699219 -0.349609 -1.03906c-5.88965 -15.9004 -6.2998 -33.3008 -1.16016 -49.4609c8.80957 -26.79 27.9492 -48.96 53.1797 -61.5703c4.41992 -2.28027 2.36035 -12.0498 -4.75 -23.6299
c-0.959961 -1.55957 -2.09961 -2.95996 -3.06934 -4.45996h0.0595703l0.19043 -0.19043l-3.86035 -5.11035l-1.05957 -1.4502l-3.75977 -4.91992c-0.0996094 0.0898438 -0.0996094 0.0898438 -0.199219 0.0898438l-0.120117 0.0996094
c-1.16992 -1.38965 -2.25977 -2.85938 -3.47949 -4.16895c-8.96973 -9.7998 -20.4697 -12.6895 -25.4697 -6.26953c-25.1201 30.6797 -37.3604 69.9199 -34.1201 109.45c2.15039 20.0195 7.06055 39.6494 14.6006 58.3193v0.0595703l217.2 549.14l257.64 -651.52
c5.34961 -13.5303 13.6895 -25.6699 24.3896 -35.5195zM88.2373 269.68c30.0996 16.6797 64.3203 24.4502 98.6807 22.4102c44.7002 -0.94043 88.5801 12.1396 125.47 37.3994l-100.25 253.49l-123.9 -313.22v-0.0800781zM173.258 839.15l-67.8389 -74.8809
l-11.0703 9.33008l62.3096 79.54l31.1504 39.7695c11.5098 14.5898 16.0098 20.8701 42.2197 52.9004c26.2002 -32.0303 30.7002 -38.2998 42.21 -52.8994l31.1602 -39.7695l62.3096 -79.54l-11.0703 -9.33008l-67.8496 74.8799l-33.9102 37.4404
c-7.62012 8.29004 -19.1602 21.3203 -22.5898 24.7002c-0.0898438 -0.139648 -0.139648 -0.219727 -0.259766 -0.399414c-0.129883 0.179688 -0.169922 0.259766 -0.259766 0.399414c-3.44043 -3.38965 -14.9805 -16.3701 -22.5908 -24.7002z" />
    <glyph glyph-name="Atilde" unicode="&#xc3;" 
d="M525.342 13.9502l15.1953 -14.0605h-140.2c18.7305 17.3398 24.8809 44.3994 15.4912 68.1299l-97.9004 247.5c-38.8604 -25.8096 -84.71 -39.0791 -131.35 -37.999c-72.8799 1.78027 -104.26 -29.4297 -108.689 -34.25l-38.3096 -96.8799l-0.0996094 -0.290039
c-0.129883 -0.349609 -0.219727 -0.699219 -0.349609 -1.03906c-5.88965 -15.9004 -6.2998 -33.3008 -1.16016 -49.4609c8.80957 -26.79 27.9492 -48.96 53.1797 -61.5703c4.41992 -2.28027 2.36035 -12.0498 -4.75 -23.6299
c-0.959961 -1.55957 -2.09961 -2.95996 -3.06934 -4.45996h0.0595703l0.19043 -0.19043l-3.86035 -5.11035l-1.05957 -1.4502l-3.75977 -4.91992c-0.0996094 0.0898438 -0.0996094 0.0898438 -0.199219 0.0898438l-0.120117 0.0996094
c-1.16992 -1.38965 -2.25977 -2.85938 -3.47949 -4.16895c-8.96973 -9.7998 -20.4697 -12.6895 -25.4697 -6.26953c-25.1201 30.6797 -37.3604 69.9199 -34.1201 109.45c2.15039 20.0195 7.06055 39.6494 14.6006 58.3193v0.0595703l217.2 549.14l257.64 -651.52
c5.34961 -13.5303 13.6895 -25.6699 24.3896 -35.5195zM186.917 292.09c44.7002 -0.94043 88.5811 12.1406 125.471 37.4004l-100.25 253.49l-123.9 -313.22v-0.0800781c30.0996 16.6797 64.3193 24.4492 98.6797 22.4092zM59.5479 823.73l-5.25 -5.49023l-10.3496 10.1299
l5.05957 5.16992l0.719727 0.730469c7.36035 7.49023 13.5205 14.4502 18.8301 21c5.15039 6.58984 10.7002 12.8398 16.6201 18.7402c10.9004 10.9102 23.4707 20.0303 37.2207 27.0205c16.8799 8.42969 35.6299 12.3896 54.4697 11.5098
c13.1904 -0.620117 26.1709 -3.54004 38.3506 -8.63965c3.65039 -1.41992 7.2002 -3.09961 10.6104 -5.0293c3.75977 -1.88965 7.34961 -4.06934 10.75 -6.5498c3.76953 -2.46973 7.33984 -5.22949 10.6797 -8.25977l8.5498 -7.71973
c11.29 -10.1699 24.7402 -17.6602 39.3301 -21.9102c11.2598 -3.61035 22.9297 -5.75 34.7393 -6.36035c11.5195 -0.740234 23.0391 1.5293 33.4092 6.58887c2.7002 1.62012 5.49023 3.25 8.49023 5.33008c3.07031 2.40039 6.2207 4.9502 9.46094 7.71973
c6.49023 5.54004 13.3398 11.9502 20.7598 19.5898l5.03027 5.19043l10.3896 -10.0898l-5.12012 -5.25c-7.37988 -7.58984 -13.5703 -14.6094 -18.9004 -21.2295c-2.67969 -3.28027 -5.12988 -6.51074 -7.41992 -9.65039l-7.71973 -9.65039
c-10.1201 -11.8701 -22.1396 -21.9697 -35.5693 -29.9102c-16.3301 -9.57031 -34.8398 -14.79 -53.7598 -15.1602c-13.1396 -0.139648 -26.21 1.84082 -38.7197 5.86035c-16.4805 5.55957 -31.5703 14.6299 -44.2002 26.5996l-6.75 6.33984
c-1.41992 1.4502 -2.95996 2.78027 -4.59961 3.98047c-1.44043 1.32031 -3.01074 2.5 -4.68066 3.51953c-1.49023 1.16016 -3.07031 2.20996 -4.7207 3.12988c-5.9502 3.66016 -12.2305 6.75977 -18.7402 9.25977c-11 4.37012 -22.5098 7.29004 -34.2598 8.69043
c-11.4697 1.46973 -23.1396 0.00976562 -33.8994 -4.25c-14.7402 -7.83008 -27.9004 -18.3203 -38.8105 -30.9502z" />
    <glyph glyph-name="Adieresis" unicode="&#xc4;" 
d="M525.342 13.9502l15.1953 -14.0605h-140.2c18.7305 17.3398 24.8809 44.3994 15.4912 68.1299l-97.9004 247.5c-38.8604 -25.8096 -84.71 -39.0791 -131.35 -37.999c-72.8799 1.78027 -104.26 -29.4297 -108.689 -34.25l-38.3096 -96.8799l-0.0996094 -0.290039
c-0.129883 -0.349609 -0.219727 -0.699219 -0.349609 -1.03906c-5.88965 -15.9004 -6.2998 -33.3008 -1.16016 -49.4609c8.80957 -26.79 27.9492 -48.96 53.1797 -61.5703c4.41992 -2.28027 2.36035 -12.0498 -4.75 -23.6299
c-0.959961 -1.55957 -2.09961 -2.95996 -3.06934 -4.45996h0.0595703l0.19043 -0.19043l-3.86035 -5.11035l-1.05957 -1.4502l-3.75977 -4.91992c-0.0996094 0.0898438 -0.0996094 0.0898438 -0.199219 0.0898438l-0.120117 0.0996094
c-1.16992 -1.38965 -2.25977 -2.85938 -3.47949 -4.16895c-8.96973 -9.7998 -20.4697 -12.6895 -25.4697 -6.26953c-25.1201 30.6797 -37.3604 69.9199 -34.1201 109.45c2.15039 20.0195 7.06055 39.6494 14.6006 58.3193v0.0595703l217.2 549.14l257.64 -651.52
c5.34961 -13.5303 13.6895 -25.6699 24.3896 -35.5195zM186.917 292.09c44.7002 -0.94043 88.5811 12.1406 125.471 37.4004l-100.25 253.49l-123.9 -313.22v-0.0800781c30.0996 16.6797 64.3193 24.4492 98.6797 22.4092zM327.218 795.781
c-19.9902 0 -36.1904 16.2002 -36.1904 36.1904c0 19.9805 16.2002 36.1807 36.1904 36.1807c19.9805 0 36.1807 -16.2002 36.1807 -36.1807c0 -19.9902 -16.2002 -36.1904 -36.1807 -36.1904zM133.688 795.781c-19.9805 0 -36.1807 16.2002 -36.1807 36.1904
c0 19.9805 16.2002 36.1807 36.1807 36.1807s36.1807 -16.2002 36.1807 -36.1807c0 -19.9902 -16.2002 -36.1904 -36.1807 -36.1904z" />
    <glyph glyph-name="Aring" unicode="&#xc5;" 
d="M525.342 13.9502l15.1953 -14.0605h-140.2c18.7305 17.3398 24.8809 44.3994 15.4912 68.1299l-97.9004 247.5c-38.8604 -25.8096 -84.71 -39.0791 -131.35 -37.999c-72.8799 1.78027 -104.26 -29.4297 -108.689 -34.25l-38.3096 -96.8799l-0.0996094 -0.290039
c-0.129883 -0.349609 -0.219727 -0.699219 -0.349609 -1.03906c-5.88965 -15.9004 -6.2998 -33.3008 -1.16016 -49.4609c8.80957 -26.79 27.9492 -48.96 53.1797 -61.5703c4.41992 -2.28027 2.36035 -12.0498 -4.75 -23.6299
c-0.959961 -1.55957 -2.09961 -2.95996 -3.06934 -4.45996h0.0595703l0.19043 -0.19043l-3.86035 -5.11035l-1.05957 -1.4502l-3.75977 -4.91992c-0.0996094 0.0898438 -0.0996094 0.0898438 -0.199219 0.0898438l-0.120117 0.0996094
c-1.16992 -1.38965 -2.25977 -2.85938 -3.47949 -4.16895c-8.96973 -9.7998 -20.4697 -12.6895 -25.4697 -6.26953c-25.1201 30.6797 -37.3604 69.9199 -34.1201 109.45c2.15039 20.0195 7.06055 39.6494 14.6006 58.3193v0.0595703l217.2 549.14l257.64 -651.52
c5.34961 -13.5303 13.6895 -25.6699 24.3896 -35.5195zM186.917 292.09c44.7002 -0.94043 88.5811 12.1406 125.471 37.4004l-100.25 253.49l-123.9 -313.22v-0.0800781c30.0996 16.6797 64.3193 24.4492 98.6797 22.4092zM230.158 766.841
c-43.9404 0.0595703 -79.5498 35.6699 -79.5996 79.6104c0 43.9697 35.6396 79.6094 79.5996 79.6094c43.9697 0 79.6094 -35.6396 79.6094 -79.6094c0 -43.96 -35.6396 -79.6104 -79.6094 -79.6104zM230.159 911.581
c-35.9502 -0.0400391 -65.0898 -29.1699 -65.1299 -65.1299c0 -35.9697 29.1602 -65.1299 65.1299 -65.1299s65.1396 29.1602 65.1396 65.1299s-29.1699 65.1299 -65.1396 65.1299z" />
    <glyph glyph-name="AE" unicode="&#xc6;" horiz-adv-x="769" 
d="M698.462 14.5498l58.0674 62.7412v-77.29l-458.24 -0.0996094l2.79004 2.61035c19.7998 18.2695 31.0693 43.9795 31.0791 70.9199v241.09c-38.5195 -25.2402 -83.8096 -38.1406 -129.84 -36.9707c-73.0596 1.79004 -104.51 -29.6504 -108.76 -34.3203v-0.0703125
c0 -0.0498047 -0.0400391 -0.0996094 -0.0996094 -0.0996094l-57.0195 -96.9697v-0.0595703c-6.20996 -16.1504 -6.72949 -33.9404 -1.48926 -50.4307c8.80957 -26.79 27.9492 -48.96 53.1797 -61.5703c4.41992 -2.28027 2.36035 -12.0498 -4.75 -23.6299
c-0.959961 -1.55957 -2.09961 -2.95996 -3.06934 -4.45996h0.0595703l0.19043 -0.19043l-3.86035 -5.11035l-1.05957 -1.4502l-3.75977 -4.91992c-0.0996094 0.0898438 -0.0996094 0.0898438 -0.199219 0.0898438l-0.110352 0.0996094
c-1.16992 -1.37988 -2.25 -2.84961 -3.48047 -4.15918c-8.9502 -9.7998 -20.46 -12.6895 -25.46 -6.26953c-25.1201 30.6904 -37.3604 69.9209 -34.1201 109.451c2.15039 20.0195 7.06055 39.6494 14.6006 58.3193v0.0595703l0.480469 0.959961l58.1904 98.8096
l-0.0703125 0.0595703l0.240234 0.290039l0.120117 0.230469l242.67 412.41c-5.29004 12.9199 -13.3604 24.5195 -23.6406 33.9697l-2.79004 2.59961h458.14v-77.3896l-29.4297 31.8496c-18.2695 19.79 -43.9795 31.0596 -70.9199 31.0693h-251.56v-328.85h107.4
c26.9297 -0.0195312 52.6396 11.2109 70.9199 30.9707l29.4297 31.9404v-140.2l-29.3301 31.75c-18.2402 19.79 -43.9199 31.0498 -70.8301 31.0693h-107.59v-328.85h293.92zM332.169 332.331l0.000976562 295.331c0.00976562 6.08984 -0.570312 12.1699 -1.73047 18.1396
l-218.82 -371.94c28.3604 13.5996 59.6699 19.8691 91.0801 18.2393c46.3701 -0.910156 91.79 13.2002 129.47 40.2305z" />
    <glyph glyph-name="Ccedilla" unicode="&#xc7;" horiz-adv-x="619" 
d="M599.888 140.55l13.1543 -6.31738l-3.13965 -6.50977c-0.599609 -1.23047 -59.2793 -118.37 -224.629 -127.061l-13.4697 -70.9902c11.46 5.99023 24.1797 9.18066 37.1094 9.31055c0.889648 0 1.73926 -0.0800781 2.62891 -0.0800781
c0.620117 -0.0195312 1.2002 -0.119141 1.79004 -0.119141l1.48047 -0.0898438h0.719727c0.549805 -0.0302734 1.09961 -0.0703125 1.61914 -0.150391h0.139648c8.5 -0.830078 16.8398 -2.7998 24.8096 -5.84961c8.16992 -3.0498 15.8096 -7.37988 22.6191 -12.8301
c8.03027 -6.33984 14.46 -14.4697 18.7803 -23.75c6.70996 -14.9199 9.08984 -31.4297 6.85938 -47.6299c-2.16016 -17.1699 -8.53027 -33.54 -18.5605 -47.6396c-6.69043 -9.36035 -15.0303 -17.4102 -24.6299 -23.75
c-7.99023 -5.37012 -16.6504 -9.67969 -25.7607 -12.8193c-10.0898 -3.58984 -20.6494 -5.68945 -31.3398 -6.22949l-0.769531 -0.0400391l-1.71973 -0.0498047h-1.09961c-8 -0.0400391 -15.9902 0.509766 -23.9102 1.64941
c-14.6396 2.20996 -28.29 8.70996 -39.2197 18.6904c-2.21973 1.95996 -0.599609 6.41992 3.57031 9.9502c2.62988 2.23047 5.45996 4.23047 8.4502 5.96094c4.76953 2.75 8.7998 3.28027 9.64941 1.35059c4.42969 -10.8203 12.1094 -19.9902 21.9795 -26.2598
c6.08984 -3.76953 13.0996 -5.76953 20.2598 -5.78906h0.639648c10.8301 0.19043 21.4199 3.30078 30.6396 8.99121c7.00977 4.37988 13.1895 9.96973 18.2598 16.5c5.63965 6.95996 10.4492 14.5596 14.3496 22.6299c5.7002 11.5898 9.5 24.0303 11.2305 36.8301
c1.4502 12.3096 0.709961 24.7793 -2.17969 36.8389c-1.86035 7.94043 -4.83008 15.5703 -8.83008 22.6699c-8.37988 16.04 -25.1396 25.9102 -43.2295 25.4697c-13.25 -0.160156 -26.2305 -3.75 -37.6807 -10.4199c-2.16016 -1.28027 -4.25977 -2.62012 -6.37012 -4.07031
l15.3896 81.5195c-2.17969 -0.0898438 -4.29004 -0.269531 -6.5 -0.269531v-0.120117h-5.50977h-8.95996v0.179688c-9.46973 0.230469 -18.9297 0.950195 -28.3193 2.14062c-32.3398 3.78027 -63.9902 12.0205 -94.0605 24.501
c-32.0996 13.0801 -62.0293 30.9404 -88.7793 52.9902c-31.5098 25.4502 -57.7695 56.7803 -77.3398 92.2402c-60.0098 111.42 -60.0098 245.54 0 356.96c19.5596 35.46 45.8291 66.79 77.3389 92.2402c26.75 22.04 56.6797 39.9102 88.7793 52.9902
c30.0898 12.4805 61.7695 20.7305 94.1191 24.5107c11.7002 1.51953 23.4805 2.28906 35.2705 2.31934h7.4502v-0.0595703c20.8896 0.0996094 41.7598 -1.08008 62.5 -3.54004c44.2402 -5.59961 85.9199 -23.8496 120.05 -52.5596
c6.99023 -5.7998 4.82031 -17.9902 -4.83008 -27.29c-6.08008 -5.87988 -12.7998 -11.0596 -20.0303 -15.4395c-11.5596 -6.94043 -22.3193 -8 -25.5889 -2.33008c-18.0703 31.0498 -44.8398 56.1299 -77 72.1494c-19.3496 9.62988 -40.6699 14.6396 -62.29 14.6094
h-0.169922l-2.37988 -0.150391c-41.4697 -0.459961 -82.04 -12.1104 -117.44 -33.7207c-26.3203 -16.3096 -49.3301 -37.4297 -67.8301 -62.2598c-21.1104 -27.1797 -38.3008 -57.1992 -51.0508 -89.1797c-39.4502 -96.6504 -39.4502 -204.91 0 -301.561
c12.7803 -32.0596 30.0303 -62.1396 51.2402 -89.3701c18.6904 -24.9697 41.9404 -46.1895 68.5107 -62.5293c35.9297 -21.6699 77.0596 -33.21 119.02 -33.3701h1.74023c169.57 0.820312 228.73 118.311 229.311 119.511z" />
    <glyph glyph-name="Egrave" unicode="&#xc8;" horiz-adv-x="501" 
d="M458.82 45.5098l29.4209 31.8799v-77.29l-458.24 -0.0996094l2.83008 2.61035c19.79 18.2695 31.0498 43.9795 31.0498 70.9199v554.16c0 26.9297 -11.2598 52.6396 -31.04 70.9092l-2.83008 2.59961h458.14v-77.3896l-29.4297 31.8496
c-18.2598 19.7803 -43.96 31.0303 -70.8896 31.0303h-251.57v-328.88h107.4c26.9297 0 52.6396 11.2598 70.9092 31.0498l29.4502 31.9102v-140.22l-29.3203 31.7598c-18.2695 19.7803 -43.9697 31.0303 -70.8896 31.0303h-107.55v-328.82h251.72
c26.9004 0 52.5801 11.2305 70.8398 30.9902zM332.501 773.58l-11.0605 -9.33008l-135.68 149.76l22.1299 18.6504z" />
    <glyph glyph-name="Eacute" unicode="&#xc9;" horiz-adv-x="501" 
d="M458.82 45.5098l29.4492 31.8398v-77.29l-458.27 -0.0595703l2.83008 2.61035c19.7998 18.2695 31.0596 43.9795 31.0498 70.9199v554.16c0 26.9297 -11.25 52.6396 -31.04 70.9092l-2.83008 2.59961h458.15v-77.3896l-29.4297 31.8496
c-18.2695 19.7803 -43.9697 31.0303 -70.8896 31.0303h-251.58v-328.87h107.41c26.9199 0 52.6201 11.25 70.8896 31.04l29.46 31.9102v-140.22l-29.3301 31.7598c-18.2598 19.7803 -43.96 31.0303 -70.8896 31.0303h-107.55v-328.82h251.72
c26.9004 0 52.5801 11.2305 70.8496 30.9902zM332.51 914.01l-135.68 -149.76l-11.0703 9.33008l124.61 159.08z" />
    <glyph glyph-name="Ecircumflex" unicode="&#xca;" horiz-adv-x="502" 
d="M459.8 45.5098l29.4395 31.8691v-77.29l-458.24 -0.0996094l2.83008 2.61035c19.79 18.2695 31.0498 43.9795 31.0498 70.9199v554.16c0 26.9404 -11.2598 52.6504 -31.0498 70.9199l-2.83008 2.59961h458.15v-77.3896l-29.4297 31.8496
c-18.2695 19.7803 -43.9697 31.0303 -70.8994 31.0303h-251.57v-328.87h107.4c26.9297 0 52.6299 11.25 70.8994 31.04l29.46 31.9102v-140.22l-29.3301 31.7598c-18.2695 19.7803 -43.9697 31.0303 -70.8896 31.0303h-107.55v-328.82h251.72
c26.9004 0 52.5801 11.2305 70.8398 30.9902zM203.35 839.129l-67.8389 -74.8809l-11.0703 9.33008l62.3096 79.54l31.1602 39.7695c11.5098 14.5898 16 20.8701 42.21 52.9004c26.2002 -32.0303 30.7002 -38.2998 42.2197 -52.8994l31.1504 -39.7695l62.3096 -79.54
l-11.0703 -9.33008l-67.8398 74.8799l-33.9199 37.4404c-7.61035 8.29004 -19.1504 21.3203 -22.5908 24.7002c-0.0898438 -0.139648 -0.129883 -0.219727 -0.259766 -0.399414c-0.120117 0.179688 -0.160156 0.259766 -0.259766 0.399414
c-3.42969 -3.38965 -14.9795 -16.3701 -22.5898 -24.7002z" />
    <glyph glyph-name="Edieresis" unicode="&#xcb;" horiz-adv-x="501" 
d="M458.81 45.5098l29.4307 31.8799v-77.29l-458.24 -0.0996094l2.83008 2.61035c19.79 18.2695 31.0498 43.9795 31.0498 70.9199v554.16c0 26.9297 -11.2598 52.6396 -31.04 70.9092l-2.83008 2.59961h458.14v-77.3896l-29.4297 31.8496
c-18.2598 19.7803 -43.96 31.0303 -70.8896 31.0303h-251.57v-328.87h107.4c26.9297 0 52.6299 11.25 70.8994 31.04l29.4502 31.9102v-140.22l-29.3203 31.7598c-18.2695 19.7803 -43.9697 31.0303 -70.8896 31.0303h-107.55v-328.82h251.72
c26.9004 0 52.5801 11.2305 70.8398 30.9902zM351.65 795.77c-19.9902 0 -36.1904 16.2002 -36.1904 36.1904c0 19.9805 16.2002 36.1807 36.1904 36.1807c19.9805 0 36.1807 -16.2002 36.1807 -36.1807c0 -19.9902 -16.2002 -36.1904 -36.1807 -36.1904zM158.131 795.77
c-19.9805 0 -36.1807 16.2002 -36.1807 36.1904c0 19.9805 16.2002 36.1807 36.1807 36.1807c19.9902 0 36.1904 -16.2002 36.1904 -36.1807c0 -19.9902 -16.2002 -36.1904 -36.1904 -36.1904z" />
    <glyph glyph-name="Igrave" unicode="&#xcc;" horiz-adv-x="199" 
d="M166.59 698.538c-19.7822 -18.2666 -31.0322 -43.9678 -31.0322 -70.8936v-554.07c0 -26.9258 11.25 -52.627 31.0322 -70.8936l2.89453 -2.66309h-140.213l2.89453 2.66309c19.7822 18.2666 31.0322 43.9678 31.0322 70.8936v554.07
c0 26.9258 -11.25 52.627 -31.0322 70.8936l-2.89453 2.66309h140.213zM172.746 773.59l-11.0684 -9.32227l-135.678 149.757l22.1357 18.6523z" />
    <glyph glyph-name="Iacute" unicode="&#xcd;" horiz-adv-x="199" 
d="M166.6 698.538c-19.7822 -18.2666 -31.0322 -43.9678 -31.0322 -70.8936v-554.07c0 -26.9258 11.25 -52.627 31.0322 -70.8936l2.89453 -2.66309h-140.213l2.89453 2.66309c19.7822 18.2666 31.0322 43.9678 31.0322 70.8936v554.07
c0 26.9258 -11.25 52.627 -31.0322 70.8936l-2.89453 2.66309h140.213zM172.756 914.025l-135.688 -149.756l-11.0674 9.32129l124.62 159.087z" />
    <glyph glyph-name="Icircumflex" unicode="&#xce;" horiz-adv-x="200" 
d="M166.904 698.538c-19.7822 -18.2666 -31.0322 -43.9678 -31.0322 -70.8936v-554.07c0 -26.9258 11.25 -52.627 31.0322 -70.8936l2.89453 -2.66309h-140.213l2.89453 2.66309c19.7822 18.2666 31.0322 43.9678 31.0322 70.8936v554.07
c0 26.9258 -11.25 52.627 -31.0322 70.8936l-2.89453 2.66309h140.213zM173.051 853.139l62.3057 -79.5381l-11.0674 -9.33105l-67.8438 74.8779l-33.917 37.4395c-7.61328 8.29883 -19.1533 21.3252 -22.5889 24.7021
c-0.0869141 -0.134766 -0.134766 -0.22168 -0.259766 -0.395508c-0.125 0.173828 -0.164062 0.260742 -0.260742 0.395508c-3.43555 -3.38672 -14.9756 -16.3652 -22.5889 -24.7021l-33.917 -37.4395l-67.8438 -74.8779l-11.0674 9.33105l62.3047 79.5391l31.1572 39.7744
c11.5117 14.5898 16.0078 20.8711 42.2148 52.8975c26.1973 -32.0264 30.7031 -38.2988 42.2148 -52.8984z" />
    <glyph glyph-name="Idieresis" unicode="&#xcf;" horiz-adv-x="200" 
d="M167.4 698.538c-19.7822 -18.2666 -31.0322 -43.9678 -31.0322 -70.8936v-554.07c0 -26.9258 11.25 -52.627 31.0322 -70.8936l2.89453 -2.66309h-140.213l2.89453 2.66309c19.7822 18.2666 31.0322 43.9678 31.0322 70.8936v554.07
c0 26.9258 -11.25 52.627 -31.0322 70.8936l-2.89453 2.66309h140.213zM192.71 795.783c-19.9844 0 -36.1846 16.2002 -36.1846 36.1846s16.2002 36.1846 36.1846 36.1846s36.1846 -16.2002 36.1846 -36.1846s-16.2002 -36.1846 -36.1846 -36.1846zM-0.81543 795.783
c-19.9844 0 -36.1846 16.2002 -36.1846 36.1846s16.2002 36.1846 36.1846 36.1846s36.1846 -16.2002 36.1846 -36.1846s-16.2002 -36.1846 -36.1846 -36.1846z" />
    <glyph glyph-name="Eth" unicode="&#xd0;" horiz-adv-x="717" 
d="M674.251 462.565l0.0185547 -0.104492c25.0215 -72.5469 25.0215 -151.385 0 -223.932c-24.6416 -69.6973 -71.5938 -129.314 -133.574 -169.605c-61.626 -38.3896 -131.567 -61.4248 -203.945 -67.1689c-12.1582 -1.20898 -24.4707 -1.81348 -36.9375 -1.81348h-227.848
l2.89453 2.66309c19.7822 18.2666 31.0322 43.9678 31.0322 70.8936v284.268h-97.8916v14.4736h97.8916v255.329c0 26.9258 -11.25 52.627 -31.0322 70.8936l-2.89453 2.66309h227.559c13.3799 -0.0195312 26.75 -0.744141 40.0537 -2.1709
c34.5068 -3.09961 68.5703 -9.97559 101.578 -20.5049c35.0127 -11.4727 68.5225 -27.1035 99.8115 -46.5576c36.4658 -23.8008 67.9834 -54.4307 92.8154 -90.2021c16.874 -24.502 30.4785 -51.1016 40.4688 -79.124zM607.671 260
c24.2021 83.252 14.1816 172.7 -27.8564 248.525c-17.6689 32.8926 -39.96 63.083 -66.1943 89.6514c-24.248 23.7422 -52.0176 43.5967 -82.3271 58.8604c-41.1338 19.6406 -86.1582 29.7783 -131.74 29.6621h-121.349v-314.383h131.577v-14.4736h-131.577v-343.34h121.349
c45.582 -0.116211 90.6064 10.0215 131.74 29.6621c30.3066 15.2637 58.0732 35.1182 82.3174 58.8604c26.2354 26.5674 48.5264 56.7578 66.1934 89.6514c11.4834 21.4688 20.8174 44.0195 27.8672 67.3232z" />
    <glyph glyph-name="Ntilde" unicode="&#xd1;" horiz-adv-x="627" 
d="M507.645 702.34l93.4727 0.00976562l-5.20117 -4.39062c-21.7471 -18.3359 -34.2959 -45.333 -34.2939 -73.7783v-623.883l-479.182 665.751l-0.462891 -0.260742v-587.64c0 -28.4473 12.5527 -55.4443 34.3037 -73.7783l5.20117 -4.38086h-93.4814l5.20117 4.39062
c21.7471 18.3359 34.2959 45.333 34.2939 73.7783v544.874c0.00195312 28.4453 -12.5469 55.4424 -34.2939 73.7783l-5.20117 4.39062h118.3l400.849 -556.917v479.896c0 28.4473 -12.5527 55.4443 -34.3037 73.7783zM143.348 823.728l-5.24609 -5.49609l-10.3438 10.1318
l5.05664 5.17188l0.723633 0.733398c7.3623 7.48828 13.5186 14.4453 18.8252 20.9971c5.14746 6.58496 10.7002 12.8438 16.625 18.7393c10.9014 10.915 23.4629 20.0342 37.2178 27.0186c16.875 8.42871 35.6279 12.3916 54.4697 11.5117
c13.1885 -0.617188 26.167 -3.54004 38.3467 -8.63574c3.6543 -1.42188 7.20117 -3.10547 10.6133 -5.03711c3.75684 -1.88184 7.35254 -4.07031 10.75 -6.54199c3.76953 -2.47168 7.34082 -5.2334 10.6807 -8.26074l8.54883 -7.71973
c11.2939 -10.1709 24.7383 -17.6611 39.3301 -21.9131c11.2559 -3.6123 22.9326 -5.75 34.7383 -6.3584c11.5215 -0.745117 23.0391 1.52637 33.415 6.59082c2.69238 1.62109 5.49023 3.25195 8.48145 5.32617c3.07812 2.40234 6.22363 4.9502 9.46582 7.71973
c6.48438 5.53906 13.335 11.9561 20.7549 19.5889l5.03711 5.19141l10.3828 -10.083l-5.11426 -5.25879c-7.38184 -7.58398 -13.5762 -14.6084 -18.9023 -21.2275c-2.68262 -3.28027 -5.13379 -6.50293 -7.4209 -9.64844l-7.71973 -9.64941
c-10.124 -11.8652 -22.1426 -21.9727 -35.5674 -29.9121c-16.3301 -9.56934 -34.8418 -14.7891 -53.7656 -15.1592c-13.1357 -0.133789 -26.207 1.84668 -38.7129 5.86621c-16.4893 5.55273 -31.5723 14.627 -44.2031 26.5938l-6.75488 6.33984
c-1.41797 1.45312 -2.9541 2.78613 -4.59277 3.98535c-1.44531 1.31836 -3.0127 2.49805 -4.67969 3.52246c-1.49707 1.15723 -3.07715 2.20215 -4.72852 3.12598c-5.94922 3.65625 -12.2217 6.75684 -18.7393 9.26367c-10.9941 4.36523 -22.5088 7.28418 -34.2549 8.68359
c-11.4766 1.47559 -23.1396 0.0146484 -33.8975 -4.24609c-14.7412 -7.83105 -27.9033 -18.3262 -38.8193 -30.9541z" />
    <glyph glyph-name="Ograve" unicode="&#xd2;" horiz-adv-x="704" 
d="M637.157 526.32c55.5596 -110.15 55.5498 -240.081 -0.00976562 -350.221c-18.3301 -35.1797 -43.0801 -66.6299 -72.96 -92.7197c-12.5801 -11.0195 -25.9004 -21.1797 -39.8506 -30.3994l-21.9199 -12.75c-7.25 -4.51953 -15.6699 -7.58984 -23.7197 -11.6602
c-29.04 -13.1396 -59.8701 -21.8799 -91.4805 -25.9502c-11.6504 -1.66016 -23.4102 -2.50977 -35.1904 -2.54004h-0.290039c-11.7598 0.0195312 -23.5098 0.859375 -35.1602 2.49902c-31.5996 4.07031 -62.4297 12.8105 -91.46 25.9404
c-8.0498 4.08008 -16.46 7.13965 -23.7197 11.6592l-21.9199 12.75c-13.96 9.23047 -27.2695 19.3809 -39.8594 30.4004c-29.8701 26.0898 -54.6201 57.54 -72.9404 92.7197c-55.5703 110.14 -55.5703 240.12 0 350.271c18.3301 35.1797 43.0703 66.6299 72.9502 92.7197
c12.5898 11.0098 25.8994 21.1699 39.8594 30.3896l21.9199 12.7598c7.25 4.50977 15.6699 7.58008 23.7197 11.6602c29.0303 13.1299 59.8604 21.8701 91.46 25.9297c11.6504 1.66016 23.3906 2.50977 35.1504 2.5498h0.360352
c11.7598 -0.0400391 23.5 -0.889648 35.1396 -2.5498c31.6104 -4.05957 62.4307 -12.7998 91.4707 -25.9297c8.0498 -4.08984 16.46 -7.14941 23.7197 -11.6592l21.9199 -12.7598c13.9502 -9.21973 27.2705 -19.3799 39.8506 -30.3896
c29.8799 -26.0898 54.6299 -57.54 72.96 -92.7197zM579.487 202.22c35.9805 96.0703 35.9814 201.91 0.000976562 297.99c-11.71 31.75 -27.5801 61.8203 -47.1904 89.4102c-8.61035 12.0596 -18.0908 23.4893 -28.3604 34.1689l-16.9902 15.21
c-6.19043 5.11035 -12.6807 9.85059 -19.4404 14.1904c-34.3701 22.3799 -74.4404 34.4199 -115.45 34.6797h-0.219727l-2.33008 -0.150391c-40.5703 -0.540039 -80.1299 -12.71 -114 -35.0498l-9.98047 -6.88965l-4.82031 -3.37988l-4.40039 -3.86035l-16.8203 -15.0996
c-10.1699 -10.6602 -19.5596 -22.0303 -28.0996 -34.04c-19.5195 -27.5498 -35.3193 -57.5498 -47.0098 -89.2197c-35.9805 -96.0703 -35.9805 -201.92 0 -297.99c11.71 -31.7598 27.5801 -61.8193 47.1904 -89.4092c8.61035 -12.0703 18.0908 -23.4902 28.3604 -34.1807
l16.9902 -15.21c6.19043 -5.11035 12.6904 -9.85059 19.4502 -14.1807c34.3604 -22.3896 74.4307 -34.4199 115.44 -34.6797h0.219727l2.33008 0.150391c40.5703 0.540039 80.1299 12.7002 114 35.04l9.96973 6.90039l4.83008 3.37988l4.40039 3.86035l16.8203 15.0996
c10.1602 10.6602 19.5498 22.0303 28.0898 34.0303c19.5195 27.5498 35.3291 57.5498 47.0195 89.2295zM425.288 773.59l-11.0703 -9.32031l-135.68 149.75l22.1396 18.6602z" />
    <glyph glyph-name="Oacute" unicode="&#xd3;" horiz-adv-x="704" 
d="M637.157 526.32c55.5596 -110.15 55.5391 -240.111 -0.0205078 -350.262c-18.3301 -35.1797 -43.0703 -66.6299 -72.96 -92.7197c-12.5801 -11.0195 -25.8896 -21.1699 -39.8496 -30.4004l-21.9199 -12.75c-7.25977 -4.51953 -15.6699 -7.58984 -23.7197 -11.6602
c-29.04 -13.1299 -59.8604 -21.8799 -91.4707 -25.9502c-11.6602 -1.66016 -23.4199 -2.50977 -35.1895 -2.54004h-0.290039c-11.7695 0.0302734 -23.5098 0.890625 -35.1602 2.54102c-31.5996 4.07031 -62.4297 12.8105 -91.46 25.9404
c-8.0498 4.08008 -16.46 7.13965 -23.7197 11.6592l-21.9102 12.75c-13.96 9.23047 -27.2803 19.3809 -39.8604 30.4004c-29.8799 26.0898 -54.6201 57.54 -72.9502 92.7197c-55.5703 110.14 -55.5703 240.12 0 350.271c18.3301 35.1797 43.0703 66.6299 72.96 92.7197
c12.5801 11.0098 25.9004 21.1699 39.8506 30.3896l21.9199 12.7598c7.25977 4.50977 15.6699 7.58008 23.7197 11.6602c29.0303 13.1299 59.8604 21.8701 91.46 25.9297c11.6504 1.66016 23.3906 2.50977 35.1602 2.5498h0.349609
c11.7598 -0.0400391 23.5 -0.889648 35.1504 -2.5498c31.5996 -4.05957 62.4297 -12.7998 91.46 -25.9297c8.0498 -4.08984 16.46 -7.14941 23.7197 -11.6592l21.9199 -12.7598c13.9502 -9.21973 27.2705 -19.3799 39.8506 -30.3896
c29.8896 -26.0898 54.6299 -57.54 72.96 -92.7197zM579.477 202.219c35.9805 96.0703 35.9893 201.92 0.00878906 297.99c-11.7197 31.7598 -27.5898 61.8193 -47.21 89.4092c-8.59961 12.0596 -18.0801 23.4795 -28.3496 34.1699l-16.9902 15.21
c-6.19043 5.12012 -12.6904 9.85059 -19.4502 14.1904c-34.3604 22.3799 -74.4307 34.4199 -115.44 34.6797h-0.230469l-2.33008 -0.150391c-40.5703 -0.540039 -80.1299 -12.71 -114 -35.0498l-9.96973 -6.88965l-4.82031 -3.37988l-4.40039 -3.86035l-16.8096 -15.0996
c-10.1699 -10.6602 -19.5596 -22.0303 -28.0996 -34.04c-19.5195 -27.5498 -35.3193 -57.5498 -47.0098 -89.2197c-35.9805 -96.0703 -35.9805 -201.92 0 -297.99c11.71 -31.7598 27.5801 -61.8193 47.2002 -89.4092c8.59961 -12.0703 18.0801 -23.4902 28.3398 -34.1807
l17.0098 -15.21c6.19043 -5.11035 12.6807 -9.85059 19.4404 -14.1807c34.3604 -22.3896 74.4404 -34.4297 115.45 -34.6797h0.230469l2.32031 0.150391c40.5703 0.540039 80.1299 12.7002 114 35.04l9.95996 6.90039l4.83008 3.37988l4.40039 3.86035l16.8203 15.0996
c10.1602 10.6602 19.5498 22.0303 28.0996 34.0303c19.5098 27.5498 35.3096 57.5498 47 89.2295zM425.285 914.019l-135.681 -149.75l-11.0596 9.32031l124.61 159.09z" />
    <glyph glyph-name="Ocircumflex" unicode="&#xd4;" horiz-adv-x="704" 
d="M637.144 526.317c55.5605 -110.146 55.5527 -240.113 -0.0078125 -350.26c-18.3291 -35.1826 -43.0732 -66.6289 -72.958 -92.7188c-12.582 -11.0195 -25.8965 -21.1748 -39.8516 -30.3955l-21.9131 -12.7559c-7.25586 -4.51562 -15.6699 -7.58398 -23.7266 -11.6562
c-29.0332 -13.1367 -59.8594 -21.8818 -91.4658 -25.9473c-11.6572 -1.66016 -23.416 -2.51172 -35.1914 -2.54785h-0.289062c-11.7617 0.0361328 -23.5068 0.887695 -35.1514 2.54785c-31.6055 4.06348 -62.4307 12.8047 -91.4648 25.9375
c-8.04785 4.08203 -16.4619 7.14062 -23.7178 11.6562l-21.9229 12.7559c-13.9531 9.22266 -27.2676 19.3779 -39.8516 30.3955c-29.8828 26.0918 -54.627 57.5381 -72.958 92.7197c-55.5605 110.146 -55.5605 240.122 0 350.269
c18.3311 35.1816 43.0752 66.6279 72.958 92.7197c12.584 11.0176 25.8984 21.1729 39.8516 30.3955l21.9229 12.7559c7.25586 4.51562 15.6602 7.58398 23.7168 11.6562c29.0342 13.1328 59.8594 21.874 91.4648 25.9375c11.6445 1.66016 23.3896 2.51172 35.1514 2.54785
h0.347656c11.7588 -0.0361328 23.501 -0.887695 35.1426 -2.54785c31.6055 -4.06348 62.4307 -12.8047 91.4648 -25.9375c8.05664 -4.08203 16.4609 -7.14062 23.7168 -11.6562l21.9229 -12.7559c13.9531 -9.22266 27.2676 -19.3779 39.8516 -30.3955
c29.8828 -26.0918 54.627 -57.5381 72.958 -92.7197zM579.472 202.217c35.9717 96.0732 35.9805 201.914 0.00878906 297.987c-11.7158 31.7559 -27.585 61.8203 -47.1943 89.4092c-8.6084 12.0674 -18.0869 23.4902 -28.3594 34.1777l-16.9922 15.207
c-6.19141 5.11328 -12.6846 9.84961 -19.4443 14.1836c-34.3613 22.3867 -74.4336 34.4248 -115.443 34.6797h-0.22168l-2.33496 -0.144531c-40.5674 -0.542969 -80.1289 -12.7051 -113.996 -35.0449l-9.97754 -6.89941l-4.82422 -3.37695l-4.40039 -3.85938
l-16.8184 -15.1016c-10.166 -10.6592 -19.5566 -22.0322 -28.0986 -34.0322c-19.5146 -27.5527 -35.3203 -57.5527 -47.0107 -89.2275c-35.9717 -96.0723 -35.9717 -201.915 0 -297.987c11.7158 -31.7559 27.585 -61.8203 47.1943 -89.4092
c8.61133 -12.0654 18.0898 -23.4883 28.3594 -34.1777l16.9922 -15.207c6.19238 -5.11621 12.6885 -9.85254 19.4531 -14.1846c34.3613 -22.3877 74.4336 -34.4258 115.443 -34.6797h0.22168l2.3252 0.144531c40.5703 0.546875 80.1338 12.709 114.006 35.0459
l9.96777 6.89941l4.82422 3.37695l4.39062 3.85938l16.8184 15.1016c10.166 10.6602 19.5566 22.0332 28.0996 34.0332c19.5186 27.5498 35.3252 57.5498 47.0117 89.2266zM295.107 839.144l-67.8418 -74.877l-11.0674 9.33105l62.3145 79.5391l31.1572 39.7744
c11.5117 14.5898 16.0078 20.8711 42.2148 52.8975c26.1973 -32.0264 30.7031 -38.2988 42.2148 -52.8984l31.1572 -39.7744l62.3145 -79.5391l-11.0674 -9.33105l-67.8438 74.8779l-33.9268 37.4395c-7.61328 8.29883 -19.1533 21.3252 -22.5889 24.7021
l-0.260742 -0.395508l-0.260742 0.395508c-3.44434 -3.38672 -14.9756 -16.3652 -22.5889 -24.7021z" />
    <glyph glyph-name="Otilde" unicode="&#xd5;" horiz-adv-x="704" 
d="M637.157 526.32c55.5596 -110.15 55.5488 -240.11 -0.0107422 -350.261c-18.3301 -35.1797 -43.0703 -66.6299 -72.96 -92.7197c-12.5801 -11.0195 -25.8896 -21.1699 -39.8496 -30.4004l-21.9199 -12.75c-7.25977 -4.51953 -15.6699 -7.58984 -23.7197 -11.6602
c-29.04 -13.1299 -59.8604 -21.8799 -91.4707 -25.9502c-11.6396 -1.65039 -23.3799 -2.51074 -35.1396 -2.54102h-0.349609c-11.7695 0.0302734 -23.5098 0.890625 -35.1602 2.54102c-31.5996 4.07031 -62.4297 12.8105 -91.46 25.9404
c-8.0498 4.08008 -16.46 7.13965 -23.7197 11.6592l-21.9102 12.75c-13.96 9.23047 -27.2803 19.3809 -39.8604 30.4004c-29.8799 26.0898 -54.6201 57.54 -72.9502 92.7197c-55.5703 110.14 -55.5703 240.12 0 350.271c18.3301 35.1797 43.0703 66.6299 72.96 92.7197
c12.5801 11.0098 25.9004 21.1699 39.8506 30.3896l21.9199 12.7598c7.25977 4.50977 15.6699 7.58008 23.7197 11.6602c29.0303 13.1299 59.8604 21.8701 91.46 25.9297c11.6504 1.66016 23.3906 2.50977 35.1602 2.5498h0.349609
c11.7598 -0.0400391 23.5 -0.889648 35.1504 -2.5498c31.5996 -4.05957 62.4297 -12.7998 91.46 -25.9297c8.0498 -4.08984 16.46 -7.14941 23.7197 -11.6592l21.9199 -12.7598c13.9502 -9.21973 27.2705 -19.3799 39.8506 -30.3896
c29.8896 -26.0898 54.6299 -57.54 72.96 -92.7197zM579.477 202.22c35.9805 96.0703 35.998 201.92 0.0175781 297.99c-11.7197 31.7598 -27.5898 61.8193 -47.21 89.4092c-8.61035 12.0596 -18.0801 23.4795 -28.3496 34.1699l-16.9902 15.21
c-6.19043 5.12012 -12.6904 9.85059 -19.4502 14.1904c-34.3701 22.3896 -74.46 34.4297 -115.479 34.6797h-0.200195l-2.33008 -0.150391c-40.5703 -0.540039 -80.1299 -12.71 -114 -35.0498l-9.96973 -6.88965l-4.82031 -3.37988l-4.40039 -3.86035l-16.8096 -15.0996
c-10.1699 -10.6602 -19.5596 -22.0303 -28.0996 -34.04c-19.5195 -27.5498 -35.3193 -57.5498 -47.0098 -89.2197c-35.9805 -96.0703 -35.9805 -201.92 0 -297.99c11.71 -31.7598 27.5801 -61.8193 47.2002 -89.4092c8.59961 -12.0703 18.0801 -23.4902 28.3398 -34.1807
l17.0098 -15.21c6.19043 -5.11035 12.6807 -9.85059 19.4404 -14.1807c34.3604 -22.3896 74.4404 -34.4297 115.45 -34.6797h0.230469l2.32031 0.150391c40.5703 0.540039 80.1299 12.7002 114 35.04l9.95996 6.90039l4.83008 3.37988l4.40039 3.86035l16.8203 15.0996
c10.1602 10.6602 19.5498 22.0303 28.0996 34.0303c19.5098 27.5498 35.3096 57.5498 47 89.2295zM180.674 823.729l-5.23828 -5.49023l-10.3398 10.1299l5.05957 5.16992l0.719727 0.730469c7.36035 7.49023 13.5205 14.4502 18.8301 21
c5.15039 6.58008 10.7002 12.8398 16.6201 18.7402c10.9004 10.9102 23.46 20.0303 37.2197 27.0205c16.8701 8.42969 35.6299 12.3896 54.4697 11.5098c13.1904 -0.620117 26.1709 -3.54004 38.3506 -8.63965c3.66016 -1.41992 7.20996 -3.09961 10.6201 -5.0293
c3.75977 -1.88965 7.34961 -4.06934 10.75 -6.5498c3.76953 -2.46973 7.3291 -5.22949 10.6689 -8.25977l8.5498 -7.71973c11.29 -10.1699 24.7402 -17.6602 39.3301 -21.9102c11.2598 -3.61035 22.9297 -5.75 34.7393 -6.36035
c11.5195 -0.740234 23.0293 1.5293 33.3994 6.58887c2.69043 1.62012 5.48047 3.25 8.4707 5.33008c3.08008 2.40039 6.23047 4.9502 9.4707 7.71973c6.49023 5.54004 13.3398 11.9502 20.7598 19.5898l5.03027 5.19043l10.3896 -10.0898l-5.11035 -5.25
c-7.37988 -7.58984 -13.5801 -14.6094 -18.9004 -21.2295c-2.67969 -3.28027 -5.13965 -6.51074 -7.41992 -9.65039l-7.71973 -9.65039c-10.1299 -11.8701 -22.1396 -21.9697 -35.5693 -29.9102c-16.3301 -9.57031 -34.8301 -14.79 -53.75 -15.1602
c-13.1396 -0.139648 -26.2197 1.84082 -38.7295 5.86035c-16.4902 5.55957 -31.5703 14.6299 -44.2002 26.5996l-6.75 6.33984c-1.41992 1.4502 -2.95996 2.78027 -4.59961 3.98047c-1.44043 1.32031 -3.01074 2.5 -4.68066 3.51953
c-1.49023 1.16016 -3.07031 2.20996 -4.73047 3.12988c-5.94043 3.66016 -12.21 6.75977 -18.7197 9.25977c-11 4.37012 -22.5098 7.29004 -34.2598 8.69043c-11.4805 1.46973 -23.1504 0.00976562 -33.9102 -4.25c-14.7402 -7.83008 -27.9004 -18.3203 -38.8203 -30.9502z
" />
    <glyph glyph-name="Odieresis" unicode="&#xd6;" horiz-adv-x="704" 
d="M637.153 526.317c55.5605 -110.146 55.5605 -240.113 0 -350.26c-18.3291 -35.1826 -43.0732 -66.6289 -72.958 -92.7188c-12.582 -11.0195 -25.8965 -21.1748 -39.8516 -30.3955l-21.9131 -12.7559c-7.25586 -4.51562 -15.6699 -7.58398 -23.7266 -11.6562
c-29.0361 -13.1377 -59.8652 -21.8828 -91.4746 -25.9473c-11.6416 -1.65918 -23.3838 -2.51074 -35.1426 -2.54785h-0.347656c-11.7617 0.0361328 -23.5068 0.887695 -35.1514 2.54785c-31.6055 4.06348 -62.4307 12.8047 -91.4648 25.9375
c-8.04785 4.08203 -16.4619 7.14062 -23.7178 11.6562l-21.9229 12.7559c-13.9531 9.22266 -27.2676 19.3779 -39.8516 30.3955c-29.8828 26.0918 -54.627 57.5381 -72.958 92.7197c-55.5605 110.146 -55.5605 240.122 0 350.269
c18.3311 35.1816 43.0752 66.6279 72.958 92.7197c12.584 11.0176 25.8984 21.1729 39.8516 30.3955l21.9229 12.7559c7.25586 4.51562 15.6602 7.58398 23.7168 11.6562c29.0342 13.1328 59.8594 21.874 91.4648 25.9375c11.6445 1.66016 23.3896 2.51172 35.1514 2.54785
h0.347656c11.7588 -0.0361328 23.501 -0.887695 35.1426 -2.54785c31.6094 -4.0625 62.4385 -12.8037 91.4756 -25.9375c8.05664 -4.08203 16.4609 -7.14062 23.7168 -11.6562l21.9229 -12.7559c13.9531 -9.22266 27.2676 -19.3779 39.8516 -30.3955
c29.8828 -26.0918 54.627 -57.5381 72.958 -92.7197zM579.479 202.217c35.9717 96.0732 35.9912 201.914 0.0195312 297.987c-11.7158 31.7559 -27.585 61.8203 -47.1943 89.4092c-8.6084 12.0674 -18.0869 23.4902 -28.3594 34.1777l-16.9922 15.207
c-6.19141 5.11328 -12.6846 9.84961 -19.4443 14.1836c-34.376 22.3936 -74.4658 34.4316 -115.492 34.6797h-0.183594l-2.33496 -0.144531c-40.5674 -0.542969 -80.1289 -12.7051 -113.996 -35.0449l-9.97754 -6.89941l-4.82422 -3.37695l-4.40039 -3.85938
l-16.8184 -15.1016c-10.166 -10.6592 -19.5566 -22.0322 -28.0986 -34.0322c-19.5146 -27.5527 -35.3203 -57.5527 -47.0107 -89.2275c-35.9717 -96.0723 -35.9717 -201.915 0 -297.987c11.7158 -31.7559 27.585 -61.8203 47.1943 -89.4092
c8.61133 -12.0654 18.0898 -23.4883 28.3594 -34.1777l16.9922 -15.207c6.19238 -5.11621 12.6885 -9.85254 19.4531 -14.1846c34.3613 -22.3877 74.4336 -34.4258 115.443 -34.6797h0.22168l2.3252 0.144531c40.5703 0.546875 80.1338 12.709 114.006 35.0459
l9.96777 6.89941l4.82422 3.37695l4.39062 3.85938l16.8184 15.1016c10.166 10.6602 19.5566 22.0332 28.0996 34.0332c19.5186 27.5498 35.3252 57.5498 47.0117 89.2266zM444.438 795.779c-19.9844 0 -36.1846 16.2002 -36.1846 36.1846s16.2002 36.1846 36.1846 36.1846
s36.1846 -16.2002 36.1846 -36.1846s-16.2002 -36.1846 -36.1846 -36.1846zM250.923 795.779c-19.9844 0 -36.1846 16.2002 -36.1846 36.1846s16.2002 36.1846 36.1846 36.1846s36.1846 -16.2002 36.1846 -36.1846s-16.2002 -36.1846 -36.1846 -36.1846z" />
    <glyph glyph-name="multiply" unicode="&#xd7;" horiz-adv-x="582" 
d="M564.951 527.495l-263.743 -263.743l263.743 -263.743l-10.2285 -10.2285l-263.743 263.743l-263.752 -263.743l-10.2285 10.2285l263.743 263.743l-263.743 263.743l10.2285 10.2383l263.752 -263.743l263.743 263.743z" />
    </font>
</defs>
</svg>
